{"glyphs":{"0":{"ha":675,"x_min":81,"x_max":594,"o":"m 594 412 q 577 223 594 303 q 527 90 559 142 q 446 12 494 37 q 338 -14 399 -14 q 231 12 279 -14 q 151 90 184 37 q 99 223 117 142 q 81 412 81 303 l 81 578 q 99 767 81 687 q 150 899 117 846 q 230 976 182 951 q 337 1001 277 1001 q 445 976 397 1001 q 526 899 492 951 q 576 767 559 846 q 594 578 594 687 l 594 412 m 518 589 q 473 844 518 758 q 337 930 428 930 q 202 844 248 930 q 156 589 156 758 l 156 403 q 168 255 156 319 q 202 146 180 191 q 259 79 225 102 q 338 56 294 56 q 417 79 384 56 q 473 146 451 102 q 507 255 496 191 q 518 403 518 319 l 518 589 z "},"1":{"ha":675,"x_min":114,"x_max":413,"o":"m 413 0 l 337 0 l 337 888 l 114 788 l 114 865 l 400 991 l 413 991 l 413 0 z "},"2":{"ha":675,"x_min":72,"x_max":614,"o":"m 614 0 l 90 0 l 90 64 l 361 430 q 426 523 399 481 q 468 600 452 564 q 490 667 484 635 q 497 728 497 698 q 486 810 497 772 q 454 874 475 847 q 402 916 433 901 q 330 930 370 930 q 253 913 287 930 q 196 866 219 897 q 160 794 172 836 q 147 703 147 752 l 72 703 q 90 818 72 764 q 140 913 107 872 q 221 977 173 954 q 330 1001 269 1001 q 431 983 386 1001 q 508 930 477 964 q 557 847 540 897 q 574 736 574 798 q 560 646 574 691 q 524 556 547 601 q 472 467 502 511 q 412 380 443 423 l 182 70 l 614 70 l 614 0 z "},"3":{"ha":675,"x_min":69,"x_max":591,"o":"m 241 538 l 313 538 q 394 554 359 538 q 453 595 429 569 q 489 655 477 621 q 500 730 500 690 q 490 811 500 774 q 459 875 480 848 q 407 916 438 901 q 332 930 375 930 q 261 917 294 930 q 206 876 229 903 q 169 812 182 850 q 156 728 156 775 l 81 728 q 99 838 81 788 q 152 924 118 888 q 231 981 185 960 q 332 1001 277 1001 q 432 983 387 1001 q 509 929 477 964 q 558 844 541 895 q 576 727 576 793 q 567 661 576 694 q 541 599 558 628 q 496 546 523 570 q 435 506 470 522 q 506 469 476 492 q 554 414 535 445 q 582 346 573 383 q 591 269 591 309 q 571 149 591 201 q 517 60 552 96 q 436 5 483 24 q 334 -14 389 -14 q 235 4 283 -14 q 150 57 187 22 q 91 144 113 92 q 69 267 69 197 l 144 267 q 158 182 144 220 q 197 115 172 143 q 257 72 222 87 q 334 56 292 56 q 468 110 420 56 q 515 266 515 164 q 501 357 515 319 q 459 420 486 395 q 395 456 433 445 q 313 468 358 468 l 241 468 l 241 538 z "},"4":{"ha":675,"x_min":50,"x_max":640,"o":"m 513 319 l 640 319 l 640 248 l 513 248 l 513 0 l 438 0 l 438 248 l 50 248 l 50 296 l 432 987 l 513 987 l 513 319 m 140 319 l 438 319 l 438 873 l 411 819 l 140 319 z "},"5":{"ha":675,"x_min":108,"x_max":612,"o":"m 136 506 l 177 987 l 594 987 l 594 910 l 241 910 l 214 579 q 240 598 224 588 q 275 615 256 608 q 318 628 295 623 q 366 633 340 633 q 467 611 422 633 q 545 548 513 589 q 594 448 576 507 q 612 315 612 389 q 597 183 612 243 q 551 80 582 123 q 474 11 521 36 q 361 -14 427 -14 q 268 3 311 -14 q 190 54 224 20 q 134 139 156 87 q 108 260 113 191 l 180 260 q 236 108 189 160 q 361 56 283 56 q 492 123 448 56 q 536 313 536 191 q 524 410 536 365 q 489 487 512 454 q 431 539 465 520 q 352 557 397 557 q 300 552 322 557 q 259 538 277 547 q 226 516 241 529 q 196 487 211 503 l 136 506 z "},"6":{"ha":675,"x_min":87,"x_max":604,"o":"m 494 994 l 494 922 l 484 922 q 352 895 410 922 q 254 818 294 868 q 192 695 214 767 q 164 534 169 623 q 250 618 199 589 q 365 648 302 648 q 470 622 425 648 q 544 551 515 595 q 589 448 574 507 q 604 323 604 389 q 587 191 604 252 q 538 84 570 129 q 460 13 506 39 q 356 -14 414 -14 q 242 15 292 -14 q 158 94 193 44 q 105 209 123 143 q 87 349 87 275 l 87 435 q 110 664 87 561 q 181 840 133 767 q 305 954 230 913 q 484 994 380 994 l 494 994 m 353 577 q 290 565 320 577 q 234 531 259 553 q 190 480 208 509 q 163 416 172 450 l 163 348 q 178 225 163 279 q 219 134 193 172 q 281 77 245 97 q 356 57 316 57 q 429 78 397 57 q 484 134 461 98 q 518 218 506 170 q 530 320 530 266 q 519 418 530 372 q 486 500 508 465 q 431 556 464 536 q 353 577 397 577 z "},"7":{"ha":675,"x_min":58,"x_max":606,"o":"m 606 940 l 253 0 l 174 0 l 525 917 l 58 917 l 58 987 l 606 987 l 606 940 z "},"8":{"ha":675,"x_min":75,"x_max":603,"o":"m 581 733 q 571 660 581 694 q 544 596 562 625 q 502 544 526 567 q 446 507 477 522 q 510 468 481 492 q 560 413 539 444 q 592 343 581 381 q 603 262 603 305 q 582 143 603 195 q 526 57 562 92 q 442 4 490 22 q 339 -14 394 -14 q 235 4 283 -14 q 151 57 186 22 q 95 143 115 92 q 75 262 75 195 q 85 343 75 305 q 117 413 96 381 q 165 468 137 444 q 229 507 194 492 q 173 544 198 522 q 131 596 149 567 q 104 660 114 625 q 95 733 95 694 q 113 847 95 798 q 164 931 132 897 q 241 983 197 966 q 338 1001 286 1001 q 434 983 389 1001 q 511 931 479 966 q 563 847 544 897 q 581 733 581 798 m 527 262 q 513 347 527 309 q 473 413 498 386 q 413 456 448 441 q 338 471 378 471 q 262 456 296 471 q 202 413 227 441 q 163 347 177 386 q 149 262 149 309 q 163 175 149 213 q 202 110 177 136 q 262 70 227 83 q 339 56 297 56 q 415 70 380 56 q 474 110 449 83 q 513 175 499 136 q 527 262 527 213 m 506 734 q 493 813 506 777 q 458 875 480 849 q 405 916 435 901 q 338 930 374 930 q 271 917 301 930 q 218 878 240 903 q 183 816 196 852 q 171 734 171 779 q 183 654 171 690 q 218 594 195 618 q 271 555 240 569 q 338 542 302 542 q 405 555 374 542 q 458 594 436 569 q 493 654 481 618 q 506 734 506 690 z "},"9":{"ha":675,"x_min":71,"x_max":587,"o":"m 199 65 q 345 94 286 65 q 440 175 404 123 q 493 297 477 227 q 511 450 509 368 q 472 398 494 422 q 425 358 450 375 q 370 333 399 342 q 309 323 340 323 q 205 351 250 323 q 131 425 161 379 q 86 531 101 471 q 71 654 71 591 q 88 789 71 726 q 137 899 105 852 q 216 974 169 946 q 323 1001 262 1001 q 440 971 390 1001 q 522 890 490 942 q 571 765 555 838 q 587 607 587 692 l 587 529 q 579 388 587 456 q 554 260 572 320 q 508 152 537 201 q 436 67 479 102 q 335 13 393 32 q 199 -7 276 -7 l 185 -7 l 186 65 l 199 65 m 319 395 q 387 409 355 395 q 442 448 418 424 q 484 502 467 471 q 512 566 502 533 l 512 615 q 498 751 512 692 q 458 849 484 810 q 399 909 433 889 q 323 930 364 930 q 249 908 281 930 q 193 848 216 886 q 157 762 170 811 q 145 658 145 713 q 156 560 145 608 q 189 476 168 513 q 243 417 211 439 q 319 395 276 395 z "},"\u0000":{"ha":0,"x_min":0,"x_max":0,"o":""},"\r":{"ha":312,"x_min":0,"x_max":0,"o":""}," ":{"ha":312,"x_min":0,"x_max":0,"o":""},"\"":{"ha":399,"x_min":97,"x_max":325,"o":"m 165 947 l 151 733 l 97 733 l 99 943 l 99 1042 l 165 1042 l 165 947 m 325 947 l 311 733 l 256 733 l 259 945 l 259 1042 l 325 1042 l 325 947 z "},"#":{"ha":751,"x_min":52,"x_max":688,"o":"m 430 278 l 257 278 l 213 0 l 151 0 l 195 278 l 52 278 l 52 342 l 205 342 l 253 639 l 95 639 l 95 705 l 263 705 l 309 987 l 370 987 l 325 705 l 498 705 l 543 987 l 606 987 l 560 705 l 688 705 l 688 639 l 549 639 l 502 342 l 645 342 l 645 278 l 492 278 l 448 0 l 386 0 l 430 278 m 267 342 l 440 342 l 488 639 l 315 639 l 267 342 z "},"$":{"ha":675,"x_min":79,"x_max":597,"o":"m 522 243 q 512 311 522 281 q 482 366 503 340 q 426 412 460 391 q 341 456 392 434 q 244 501 287 477 q 171 559 201 526 q 124 637 140 593 q 109 742 109 682 q 123 842 109 797 q 165 921 138 888 q 232 975 193 955 q 319 1000 271 996 l 319 1138 l 382 1138 l 382 1000 q 536 911 481 988 q 591 696 591 833 l 516 696 q 505 788 516 746 q 473 862 494 831 q 421 910 452 893 q 349 928 389 928 q 275 913 307 928 q 224 873 244 899 q 193 815 203 848 q 183 743 183 781 q 191 677 183 707 q 220 623 199 648 q 276 575 241 597 q 366 530 311 553 q 463 484 420 509 q 536 427 506 460 q 582 350 566 394 q 597 245 597 306 q 582 143 597 189 q 538 65 566 98 q 469 12 509 32 q 378 -12 428 -7 l 378 -141 l 316 -141 l 316 -13 q 228 8 271 -9 q 152 61 185 26 q 99 151 119 96 q 79 284 79 205 l 154 284 q 171 176 154 219 q 216 106 189 132 q 276 70 243 80 q 343 59 310 59 q 419 73 386 59 q 475 113 452 87 q 510 171 498 138 q 522 243 522 205 z "},"%":{"ha":888,"x_min":75,"x_max":818,"o":"m 75 798 q 87 877 75 840 q 119 941 98 913 q 171 985 140 969 q 239 1002 201 1002 q 307 985 277 1002 q 358 941 337 969 q 391 877 380 913 q 403 798 403 840 l 403 745 q 391 667 403 704 q 359 603 380 630 q 308 559 338 575 q 240 543 277 543 q 172 559 202 543 q 120 603 141 575 q 87 667 98 630 q 75 745 75 704 l 75 798 m 135 745 q 141 692 135 718 q 161 647 148 667 q 194 614 174 627 q 240 602 214 602 q 286 614 267 602 q 318 647 305 627 q 337 692 330 667 q 343 745 343 718 l 343 798 q 337 850 343 825 q 317 897 330 876 q 285 929 304 917 q 239 941 265 941 q 193 929 212 941 q 161 897 174 917 q 141 850 148 876 q 135 798 135 825 l 135 745 m 490 242 q 502 321 490 283 q 534 386 513 358 q 586 429 555 413 q 653 446 616 446 q 722 429 691 446 q 773 386 752 413 q 806 321 795 358 q 818 242 818 283 l 818 189 q 806 110 818 147 q 773 46 795 73 q 722 2 752 18 q 654 -14 692 -14 q 586 2 616 -14 q 535 46 556 18 q 502 110 513 73 q 490 189 490 147 l 490 242 m 549 189 q 556 136 549 162 q 575 90 562 111 q 608 58 588 70 q 654 45 628 45 q 701 58 681 45 q 733 90 720 70 q 752 136 745 110 q 758 189 758 161 l 758 242 q 752 297 758 271 q 732 342 745 323 q 700 374 720 362 q 653 385 680 385 q 608 374 627 385 q 575 342 588 362 q 556 297 562 323 q 549 242 549 271 l 549 189 m 262 81 l 216 115 l 621 886 l 667 853 l 262 81 z "},"&":{"ha":746,"x_min":75,"x_max":719,"o":"m 243 537 q 203 599 221 569 q 173 658 185 629 q 154 716 161 687 q 147 776 147 745 q 161 870 147 828 q 200 941 174 911 q 261 985 225 970 q 341 1001 297 1001 q 417 985 384 1001 q 474 943 451 970 q 510 882 498 917 q 522 807 522 846 q 513 744 522 773 q 488 688 503 714 q 452 641 473 663 q 411 600 432 618 l 337 532 l 559 222 q 595 323 582 267 q 608 442 608 378 l 677 442 q 604 160 677 273 l 719 0 l 628 0 l 559 96 q 456 16 514 45 q 334 -14 397 -14 q 225 6 273 -14 q 144 60 178 25 q 93 144 111 95 q 75 252 75 193 q 87 335 75 297 q 121 406 100 372 q 173 471 143 439 q 238 532 203 502 l 243 537 m 334 56 q 432 82 385 56 q 517 155 479 108 l 288 475 l 281 483 l 257 460 q 200 394 221 425 q 168 337 179 363 q 153 290 156 311 q 149 252 149 269 q 160 177 149 213 q 195 115 172 142 q 252 72 218 88 q 334 56 287 56 m 222 779 q 242 687 222 734 q 298 587 262 640 l 370 652 q 428 720 406 683 q 451 807 451 757 q 444 853 451 831 q 423 893 437 876 q 388 920 409 910 q 340 930 368 930 q 289 918 311 930 q 252 885 267 906 q 230 837 237 865 q 222 779 222 809 z "},"'":{"ha":236,"x_min":81,"x_max":153,"o":"m 153 947 l 142 739 l 81 739 l 84 941 l 84 1042 l 153 1042 l 153 947 z "},"(":{"ha":404,"x_min":92,"x_max":372,"o":"m 92 399 q 117 647 92 532 q 180 855 142 763 q 264 1011 218 947 q 354 1107 311 1076 l 372 1050 q 298 958 335 1019 q 233 814 262 898 q 186 625 204 730 q 168 401 168 520 l 168 387 q 186 163 168 268 q 233 -26 204 58 q 298 -171 262 -110 q 372 -265 335 -233 l 354 -319 q 264 -224 311 -288 q 180 -70 218 -161 q 117 137 142 21 q 92 389 92 252 l 92 399 z "},")":{"ha":412,"x_min":33,"x_max":312,"o":"m 312 389 q 301 216 312 298 q 270 63 290 134 q 224 -70 250 -9 q 170 -179 199 -131 q 110 -262 140 -227 q 50 -319 79 -298 l 33 -265 q 106 -172 70 -233 q 172 -27 143 -111 q 219 163 201 58 q 237 387 237 268 l 237 401 q 218 626 237 520 q 170 816 199 731 q 104 962 140 901 q 33 1054 68 1023 l 50 1107 q 110 1050 79 1086 q 170 965 140 1015 q 224 855 199 916 q 270 722 250 793 q 301 569 290 650 q 312 399 312 488 l 312 389 z "},"*":{"ha":589,"x_min":20,"x_max":571,"o":"m 245 678 l 20 750 l 41 821 l 267 737 l 264 987 l 334 987 l 329 735 l 549 821 l 571 751 l 345 673 l 496 475 l 439 431 l 294 637 l 155 433 l 98 475 l 245 678 z "},"+":{"ha":686,"x_min":56,"x_max":625,"o":"m 377 503 l 625 503 l 625 425 l 377 425 l 377 99 l 300 99 l 300 425 l 56 425 l 56 503 l 300 503 l 300 818 l 377 818 l 377 503 z "},",":{"ha":266,"x_min":41,"x_max":184,"o":"m 184 33 q 177 -28 184 3 q 159 -86 171 -58 q 129 -140 146 -115 q 89 -185 111 -165 l 41 -149 q 88 -64 72 -107 q 104 32 104 -22 l 104 129 l 184 129 l 184 33 z "},"-":{"ha":359,"x_min":40,"x_max":314,"o":"m 314 400 l 40 400 l 40 470 l 314 470 l 314 400 z "},".":{"ha":332,"x_min":98,"x_max":214,"o":"m 98 50 q 114 91 98 74 q 156 107 129 107 q 199 91 183 107 q 214 50 214 74 q 199 10 214 26 q 156 -5 183 -5 q 114 10 129 -5 q 98 50 98 26 z "},"/":{"ha":494,"x_min":29,"x_max":443,"o":"m 97 -85 l 29 -85 l 376 987 l 443 987 l 97 -85 z "},":":{"ha":279,"x_min":89,"x_max":206,"o":"m 89 50 q 104 91 89 74 q 146 107 119 107 q 189 91 174 107 q 205 50 205 74 q 189 10 205 26 q 146 -5 174 -5 q 104 10 119 -5 q 89 50 89 26 m 90 675 q 105 716 90 699 q 148 732 121 732 q 191 716 175 732 q 206 675 206 699 q 191 635 206 651 q 148 620 175 620 q 105 635 121 620 q 90 675 90 651 z "},";":{"ha":258,"x_min":42,"x_max":199,"o":"m 83 675 q 98 716 83 699 q 140 732 113 732 q 183 716 168 732 q 199 675 199 699 q 183 635 199 651 q 140 620 168 620 q 98 635 113 620 q 83 675 83 651 m 185 33 q 179 -28 185 3 q 160 -86 172 -58 q 130 -140 148 -115 q 90 -185 113 -165 l 42 -149 q 90 -64 73 -107 q 106 32 106 -22 l 106 129 l 185 129 l 185 33 z "},"<":{"ha":623,"x_min":57,"x_max":527,"o":"m 136 444 l 527 242 l 527 155 l 57 412 l 57 479 l 527 735 l 527 648 l 136 444 z "},"=":{"ha":671,"x_min":98,"x_max":574,"o":"m 574 562 l 98 562 l 98 635 l 574 635 l 574 562 m 574 283 l 98 283 l 98 356 l 574 356 l 574 283 z "},">":{"ha":633,"x_min":85,"x_max":568,"o":"m 485 447 l 85 650 l 85 736 l 568 480 l 568 413 l 85 156 l 85 241 l 485 447 z "},"?":{"ha":561,"x_min":60,"x_max":498,"o":"m 226 275 q 231 351 226 318 q 247 411 236 383 q 276 465 258 439 q 321 521 294 490 q 362 571 343 547 q 394 620 380 595 q 415 676 408 646 q 423 747 423 706 q 414 820 423 787 q 388 877 406 853 q 345 914 370 901 q 284 927 319 927 q 225 916 252 927 q 179 882 199 904 q 147 828 159 860 q 135 756 136 797 l 60 756 q 79 860 61 814 q 126 937 96 905 q 197 984 157 968 q 284 1001 237 1001 q 376 983 336 1001 q 443 931 416 964 q 484 850 470 897 q 498 747 498 804 q 488 664 498 703 q 460 592 478 626 q 417 526 441 557 q 363 461 392 494 q 314 376 327 424 q 300 275 300 329 l 226 275 m 218 48 q 231 88 218 72 q 267 104 243 104 q 304 88 291 104 q 317 48 317 72 q 304 10 317 25 q 267 -5 291 -5 q 231 10 243 -5 q 218 48 218 25 z "},"@":{"ha":1089,"x_min":77,"x_max":1014,"o":"m 1009 347 q 1001 261 1008 304 q 983 178 995 218 q 953 103 971 138 q 911 42 935 68 q 855 1 886 16 q 785 -14 823 -14 q 695 20 730 -14 q 648 115 660 54 q 575 19 618 51 q 482 -14 532 -14 q 411 8 441 -14 q 361 70 380 30 q 335 165 342 109 q 334 289 328 220 q 362 447 340 376 q 418 567 385 517 q 493 643 451 616 q 581 670 534 670 q 632 664 610 670 q 672 648 654 659 q 706 625 690 638 q 736 597 721 612 l 707 211 q 711 124 703 157 q 732 74 719 92 q 763 51 746 56 q 793 45 779 45 q 859 68 830 45 q 908 132 888 92 q 939 228 928 173 q 952 347 950 283 q 938 578 958 475 q 871 751 918 680 q 750 861 825 823 q 570 899 675 899 q 403 858 479 899 q 271 742 327 817 q 182 561 215 667 q 144 324 149 454 q 162 93 139 198 q 234 -87 185 -12 q 357 -204 283 -162 q 527 -245 431 -245 q 578 -242 552 -245 q 629 -231 604 -238 q 676 -214 654 -224 q 715 -192 698 -204 l 734 -247 q 689 -273 714 -262 q 636 -292 664 -284 q 579 -303 608 -300 q 525 -307 551 -307 q 332 -263 416 -307 q 190 -138 248 -220 q 105 61 133 -56 q 82 324 77 178 q 124 584 87 467 q 224 786 161 702 q 376 917 288 871 q 572 964 465 964 q 769 920 685 964 q 909 797 854 877 q 989 603 964 717 q 1009 347 1014 488 m 399 289 q 399 193 395 237 q 416 119 404 150 q 448 71 428 88 q 497 54 469 54 q 536 61 516 54 q 576 88 557 69 q 613 139 595 107 q 645 220 631 172 l 671 576 q 633 599 654 590 q 585 608 612 608 q 521 588 551 608 q 466 529 490 569 q 424 430 441 490 q 399 289 406 370 z "},"A":{"ha":762,"x_min":31,"x_max":732,"o":"m 566 276 l 195 276 l 111 0 l 31 0 l 345 987 l 417 987 l 732 0 l 651 0 l 566 276 m 218 349 l 543 349 l 380 878 l 218 349 z "},"B":{"ha":744,"x_min":117,"x_max":666,"o":"m 117 0 l 117 987 l 367 987 q 480 972 430 987 q 566 925 531 957 q 620 845 601 894 q 638 729 638 796 q 603 597 638 653 q 505 515 568 541 q 572 484 543 506 q 623 430 602 462 q 655 360 644 399 q 666 278 666 321 q 647 158 666 210 q 592 71 627 106 q 508 18 557 36 q 399 0 458 0 l 117 0 m 194 474 l 194 72 l 399 72 q 479 86 444 72 q 538 127 514 100 q 576 191 563 153 q 589 277 589 229 q 577 355 589 319 q 544 417 566 391 q 486 459 521 444 q 404 474 452 474 l 194 474 m 194 545 l 374 545 q 511 592 462 545 q 559 731 559 639 q 512 870 559 825 q 367 914 464 914 l 194 914 l 194 545 z "},"C":{"ha":785,"x_min":92,"x_max":709,"o":"m 709 308 q 619 64 698 142 q 401 -14 541 -14 q 273 14 330 -14 q 176 94 216 42 q 114 221 136 146 q 92 391 92 296 l 92 603 q 114 770 92 696 q 176 895 136 844 q 275 974 217 946 q 408 1001 334 1001 q 528 982 475 1001 q 620 924 581 963 q 681 823 659 884 q 709 678 703 762 l 630 678 q 609 793 625 746 q 566 871 593 841 q 499 914 538 901 q 408 928 460 928 q 306 906 350 928 q 232 842 262 884 q 186 741 201 801 q 171 604 171 680 l 171 391 q 185 254 171 315 q 229 149 200 193 q 301 82 258 106 q 401 58 344 58 q 496 71 456 58 q 565 113 537 83 q 609 190 593 142 q 630 308 625 237 l 709 308 z "},"D":{"ha":791,"x_min":117,"x_max":700,"o":"m 117 0 l 117 987 l 349 987 q 492 962 427 987 q 603 886 557 936 q 674 762 649 836 q 700 592 700 688 l 700 395 q 674 225 700 299 q 603 101 649 151 q 490 26 556 52 q 344 0 425 0 l 117 0 m 194 914 l 194 72 l 344 72 q 462 93 410 72 q 550 155 514 114 q 605 256 586 196 q 623 395 623 317 l 623 594 q 604 733 623 673 q 550 833 585 793 q 464 894 515 873 q 349 914 413 914 l 194 914 z "},"E":{"ha":690,"x_min":117,"x_max":635,"o":"m 577 473 l 194 473 l 194 72 l 635 72 l 635 0 l 117 0 l 117 987 l 631 987 l 631 914 l 194 914 l 194 545 l 577 545 l 577 473 z "},"F":{"ha":681,"x_min":117,"x_max":631,"o":"m 574 460 l 194 460 l 194 0 l 117 0 l 117 987 l 631 987 l 631 914 l 194 914 l 194 533 l 574 533 l 574 460 z "},"G":{"ha":824,"x_min":100,"x_max":718,"o":"m 718 115 q 685 78 707 100 q 628 36 663 56 q 544 1 593 16 q 429 -14 494 -14 q 294 12 355 -14 q 190 87 233 37 q 123 212 147 138 q 100 384 100 286 l 100 610 q 121 779 100 706 q 183 902 142 852 q 283 976 224 951 q 417 1001 342 1001 q 541 981 487 1001 q 632 924 595 962 q 691 832 670 887 q 718 709 713 778 l 640 709 q 620 800 635 760 q 579 869 606 841 q 512 913 552 898 q 418 928 473 928 q 237 847 297 928 q 177 612 177 767 l 177 384 q 195 243 177 304 q 245 141 212 182 q 324 79 277 100 q 429 58 370 58 q 511 68 475 58 q 573 91 547 77 q 615 118 599 104 q 640 140 631 132 l 640 397 l 424 397 l 424 470 l 718 470 l 718 115 z "},"H":{"ha":854,"x_min":117,"x_max":736,"o":"m 736 0 l 658 0 l 658 473 l 194 473 l 194 0 l 117 0 l 117 987 l 194 987 l 194 545 l 658 545 l 658 987 l 736 987 l 736 0 z "},"I":{"ha":339,"x_min":131,"x_max":208,"o":"m 208 0 l 131 0 l 131 987 l 208 987 l 208 0 z "},"J":{"ha":669,"x_min":52,"x_max":557,"o":"m 479 987 l 557 987 l 557 294 q 538 162 557 219 q 486 65 519 104 q 405 6 452 26 q 304 -14 359 -14 q 202 4 248 -14 q 122 57 155 21 q 71 146 89 92 q 52 272 52 199 l 130 272 q 176 112 130 165 q 304 58 222 58 q 373 73 341 58 q 429 118 405 88 q 466 192 452 148 q 479 294 479 235 l 479 987 z "},"K":{"ha":762,"x_min":117,"x_max":732,"o":"m 309 487 l 194 354 l 194 0 l 117 0 l 117 987 l 194 987 l 194 461 l 302 597 l 608 987 l 705 987 l 361 548 l 732 0 l 637 0 l 309 487 z "},"L":{"ha":644,"x_min":117,"x_max":602,"o":"m 195 72 l 602 72 l 602 0 l 117 0 l 117 987 l 195 987 l 195 72 z "},"M":{"ha":1038,"x_min":117,"x_max":921,"o":"m 219 987 l 518 119 l 819 987 l 921 987 l 921 0 l 844 0 l 844 429 l 850 859 l 548 0 l 488 0 l 187 854 l 194 429 l 194 0 l 117 0 l 117 987 l 219 987 z "},"N":{"ha":856,"x_min":117,"x_max":738,"o":"m 738 0 l 661 0 l 195 841 l 195 0 l 117 0 l 117 987 l 195 987 l 661 145 l 661 987 l 738 987 l 738 0 z "},"O":{"ha":819,"x_min":90,"x_max":729,"o":"m 729 387 q 707 214 729 289 q 644 89 685 139 q 543 12 602 38 q 410 -14 484 -14 q 278 12 337 -14 q 177 89 219 38 q 112 214 135 139 q 90 387 90 289 l 90 600 q 112 772 90 697 q 176 898 134 847 q 277 975 218 949 q 409 1001 336 1001 q 542 975 483 1001 q 643 898 602 949 q 707 772 684 847 q 729 600 729 697 l 729 387 m 651 601 q 589 844 651 763 q 409 926 526 926 q 231 844 294 926 q 167 601 167 763 l 167 387 q 231 142 167 224 q 410 60 296 60 q 590 142 528 60 q 651 387 651 223 l 651 601 z "},"P":{"ha":749,"x_min":117,"x_max":685,"o":"m 194 401 l 194 0 l 117 0 l 117 987 l 404 987 q 525 966 473 987 q 613 905 578 944 q 667 812 649 866 q 685 692 685 758 q 667 570 685 624 q 613 478 649 515 q 525 421 578 441 q 404 401 473 401 l 194 401 m 194 474 l 404 474 q 496 491 458 474 q 560 536 535 507 q 596 605 585 566 q 608 691 608 645 q 596 777 608 736 q 560 848 585 817 q 496 896 535 878 q 404 914 458 914 l 194 914 l 194 474 z "},"Q":{"ha":819,"x_min":87,"x_max":726,"o":"m 726 387 q 687 165 726 254 q 575 31 648 76 l 724 -119 l 671 -172 l 501 -1 q 407 -14 457 -14 q 275 12 334 -14 q 174 89 216 38 q 110 214 132 140 q 87 387 87 289 l 87 600 q 109 772 87 697 q 173 898 132 847 q 274 975 215 949 q 406 1001 333 1001 q 539 975 479 1001 q 640 898 599 949 q 704 772 682 847 q 726 600 726 697 l 726 387 m 648 601 q 586 844 648 763 q 406 926 524 926 q 228 844 292 926 q 164 601 164 763 l 164 387 q 229 142 164 224 q 407 60 293 60 q 587 142 526 60 q 648 387 648 223 l 648 601 z "},"R":{"ha":764,"x_min":115,"x_max":705,"o":"m 424 411 l 193 411 l 193 0 l 115 0 l 115 987 l 386 987 q 504 968 452 987 q 593 912 557 949 q 650 821 630 876 q 669 696 669 767 q 657 605 669 648 q 623 528 645 562 q 569 468 600 493 q 499 429 537 442 l 705 9 l 705 0 l 622 0 l 424 411 m 193 483 l 399 483 q 483 500 447 483 q 543 548 519 518 q 579 616 567 577 q 591 696 591 654 q 578 787 591 747 q 539 856 565 827 q 474 899 513 884 q 386 914 436 914 l 193 914 l 193 483 z "},"S":{"ha":718,"x_min":63,"x_max":659,"o":"m 581 243 q 570 315 581 283 q 534 372 559 347 q 466 420 509 398 q 359 463 423 441 q 247 509 297 484 q 162 567 197 534 q 108 643 127 600 q 89 745 89 687 q 110 849 89 802 q 167 930 130 897 q 255 982 204 964 q 368 1001 307 1001 q 488 978 435 1001 q 578 915 541 955 q 635 821 615 875 q 654 705 654 767 l 576 705 q 563 794 576 753 q 522 865 549 835 q 457 911 496 895 q 368 928 418 928 q 280 913 318 928 q 218 874 243 899 q 180 817 193 850 q 167 747 167 784 q 178 682 167 711 q 215 627 189 652 q 282 580 241 602 q 385 538 324 558 q 502 491 451 517 q 588 430 553 465 q 641 350 623 395 q 659 244 659 304 q 638 136 659 184 q 578 55 616 88 q 488 4 541 22 q 374 -14 436 -14 q 262 3 318 -14 q 163 56 207 20 q 91 148 119 92 q 63 282 63 203 l 140 282 q 161 177 140 220 q 215 108 182 134 q 290 70 248 81 q 374 58 332 58 q 459 72 421 58 q 525 109 498 85 q 566 167 551 133 q 581 243 581 201 z "},"T":{"ha":724,"x_min":43,"x_max":682,"o":"m 682 914 l 401 914 l 401 0 l 323 0 l 323 914 l 43 914 l 43 987 l 682 987 l 682 914 z "},"U":{"ha":792,"x_min":103,"x_max":690,"o":"m 690 987 l 690 291 q 667 150 690 208 q 604 55 644 92 q 510 3 564 19 q 397 -14 457 -14 q 281 3 334 -14 q 188 55 227 19 q 125 150 148 92 q 103 291 103 208 l 103 987 l 180 987 l 180 291 q 196 182 180 227 q 241 110 212 138 q 310 71 270 83 q 397 58 349 58 q 484 71 444 58 q 552 110 524 83 q 596 182 581 138 q 612 291 612 227 l 612 987 l 690 987 z "},"V":{"ha":751,"x_min":31,"x_max":721,"o":"m 373 123 l 375 113 l 378 123 l 635 987 l 721 987 l 412 0 l 339 0 l 31 987 l 115 987 l 373 123 z "},"W":{"ha":1071,"x_min":48,"x_max":1028,"o":"m 275 269 l 298 122 l 328 262 l 505 987 l 574 987 l 749 262 l 778 121 l 804 269 l 949 987 l 1028 987 l 818 0 l 745 0 l 559 770 l 540 861 l 521 770 l 332 0 l 258 0 l 48 987 l 127 987 l 275 269 z "},"X":{"ha":744,"x_min":45,"x_max":700,"o":"m 372 571 l 600 987 l 692 987 l 420 500 l 700 0 l 607 0 l 372 429 l 137 0 l 45 0 l 326 500 l 53 987 l 145 987 l 372 571 z "},"Y":{"ha":726,"x_min":26,"x_max":697,"o":"m 362 450 l 608 987 l 697 987 l 400 372 l 400 0 l 323 0 l 323 372 l 26 987 l 117 987 l 362 450 z "},"Z":{"ha":725,"x_min":64,"x_max":663,"o":"m 155 72 l 663 72 l 663 0 l 64 0 l 64 64 l 553 915 l 78 915 l 78 987 l 644 987 l 644 926 l 155 72 z "},"[":{"ha":313,"x_min":104,"x_max":298,"o":"m 298 1058 l 180 1058 l 180 -141 l 298 -141 l 298 -212 l 104 -212 l 104 1128 l 298 1128 l 298 1058 z "},"\\":{"ha":490,"x_min":40,"x_max":459,"o":"m 40 987 l 113 987 l 459 -85 l 387 -85 l 40 987 z "},"]":{"ha":313,"x_min":14,"x_max":208,"o":"m 14 1128 l 208 1128 l 208 -212 l 14 -212 l 14 -141 l 133 -141 l 133 1058 l 14 1058 l 14 1128 z "},"^":{"ha":513,"x_min":56,"x_max":451,"o":"m 254 878 l 128 494 l 56 494 l 227 987 l 281 987 l 451 494 l 379 494 l 254 878 z "},"_":{"ha":535,"x_min":14,"x_max":520,"o":"m 520 -70 l 14 -70 l 14 0 l 520 0 l 520 -70 z "},"`":{"ha":397,"x_min":70,"x_max":297,"o":"m 297 844 l 223 844 l 70 1034 l 168 1034 l 297 844 z "},"a":{"ha":654,"x_min":71,"x_max":568,"o":"m 488 0 q 479 46 483 18 q 475 102 476 73 q 441 58 460 79 q 396 21 421 37 q 339 -4 370 5 q 272 -14 308 -14 q 190 -1 227 -14 q 126 38 153 12 q 85 102 100 64 q 71 193 71 141 q 89 287 71 243 q 141 361 106 330 q 229 410 176 392 q 350 427 281 427 l 474 427 l 474 530 q 435 643 474 608 q 321 677 396 677 q 256 666 286 677 q 205 636 227 655 q 173 590 184 616 q 161 531 161 563 l 86 532 q 103 613 86 574 q 151 682 120 652 q 227 730 182 712 q 324 747 271 747 q 415 735 374 747 q 486 697 456 724 q 532 630 515 671 q 549 528 549 588 l 549 154 q 550 115 549 135 q 554 75 551 94 q 560 38 556 56 q 568 8 564 21 l 568 0 l 488 0 m 281 59 q 348 69 317 59 q 403 96 378 79 q 445 136 427 113 q 474 186 463 159 l 474 364 l 361 364 q 201 319 254 364 q 147 199 147 275 q 183 93 147 126 q 281 59 218 59 z "},"b":{"ha":675,"x_min":100,"x_max":602,"o":"m 602 332 q 586 178 602 243 q 539 71 570 113 q 466 7 509 28 q 366 -14 422 -14 q 250 16 297 -14 q 174 98 203 46 l 170 0 l 100 0 l 100 1042 l 175 1042 l 175 631 q 250 717 204 686 q 364 747 296 747 q 465 728 421 747 q 539 666 509 708 q 586 558 570 624 q 602 401 602 493 l 602 332 m 526 401 q 485 608 526 541 q 349 675 444 675 q 284 664 313 675 q 235 635 256 653 q 199 592 214 616 q 175 543 184 568 l 175 179 q 201 131 185 153 q 239 93 217 109 q 288 67 260 77 q 351 58 316 58 q 484 125 441 58 q 526 332 526 191 l 526 401 z "},"c":{"ha":630,"x_min":66,"x_max":571,"o":"m 332 56 q 393 64 363 56 q 445 92 422 73 q 482 145 467 112 q 498 227 496 178 l 571 227 q 549 123 568 168 q 496 48 529 78 q 422 2 464 18 q 332 -14 380 -14 q 133 72 200 -14 q 66 326 66 157 l 66 408 q 133 662 66 576 q 332 747 200 747 q 425 731 382 747 q 499 683 468 715 q 550 602 531 651 q 571 486 569 553 l 498 486 q 483 573 496 537 q 447 633 469 610 q 396 666 425 656 q 332 677 366 677 q 243 659 279 677 q 185 606 208 641 q 153 522 163 572 q 142 408 142 472 l 142 326 q 152 211 142 261 q 184 126 162 161 q 243 74 207 92 q 332 56 279 56 z "},"d":{"ha":677,"x_min":73,"x_max":574,"o":"m 73 401 q 90 558 73 493 q 138 666 106 624 q 213 728 169 708 q 313 747 258 747 q 424 718 378 747 q 499 635 470 688 l 499 1042 l 574 1042 l 574 0 l 504 0 l 500 94 q 425 15 471 43 q 312 -14 378 -14 q 213 7 257 -14 q 138 71 169 28 q 90 178 107 113 q 73 332 73 243 l 73 401 m 150 332 q 192 125 150 191 q 327 58 235 58 q 387 67 360 58 q 435 91 414 75 q 472 126 456 106 q 499 172 488 147 l 499 552 q 474 599 489 576 q 438 638 459 621 q 390 665 418 654 q 328 675 363 675 q 192 608 235 675 q 150 401 150 541 l 150 332 z "},"e":{"ha":635,"x_min":65,"x_max":576,"o":"m 342 -14 q 231 6 281 -14 q 143 67 180 26 q 85 171 106 109 q 65 319 65 233 l 65 402 q 87 560 65 494 q 145 667 109 625 q 229 728 181 709 q 330 747 277 747 q 513 668 450 747 q 576 424 576 588 l 576 360 l 140 360 l 140 319 q 155 202 140 252 q 197 120 170 153 q 262 72 224 87 q 346 56 300 56 q 445 75 403 56 q 522 135 487 94 l 561 85 q 526 47 546 64 q 479 16 506 29 q 418 -6 452 2 q 342 -14 385 -14 m 330 677 q 256 663 290 677 q 198 620 222 650 q 158 544 173 591 q 140 431 143 497 l 500 431 l 500 450 q 488 546 499 504 q 457 617 477 588 q 404 662 436 646 q 330 677 372 677 z "},"f":{"ha":417,"x_min":49,"x_max":409,"o":"m 150 0 l 150 666 l 49 666 l 49 734 l 150 734 l 150 824 q 199 996 150 937 q 336 1056 249 1056 q 373 1053 354 1056 q 409 1044 391 1050 l 404 975 q 375 981 390 979 q 342 983 360 983 q 257 942 288 983 q 226 824 226 901 l 226 734 l 370 734 l 370 666 l 226 666 l 226 0 l 150 0 z "},"g":{"ha":675,"x_min":74,"x_max":575,"o":"m 74 401 q 90 558 74 493 q 137 666 106 624 q 213 728 168 708 q 313 747 257 747 q 426 717 380 747 q 501 631 472 686 l 505 734 l 575 734 l 575 -18 q 558 -141 575 -90 q 508 -227 541 -193 q 431 -276 476 -260 q 329 -292 385 -292 q 271 -286 301 -292 q 213 -266 241 -279 q 158 -234 184 -252 q 114 -191 132 -215 l 149 -136 q 231 -201 187 -180 q 323 -222 275 -222 q 399 -212 366 -222 q 454 -177 432 -201 q 488 -114 476 -153 q 499 -21 499 -76 l 499 92 q 424 14 470 42 q 312 -14 378 -14 q 213 7 257 -14 q 138 71 169 28 q 91 178 107 113 q 74 332 74 243 l 74 401 m 150 332 q 193 125 150 191 q 327 58 235 58 q 388 67 361 58 q 436 92 415 76 q 473 128 457 107 q 499 174 488 149 l 499 549 q 474 597 489 574 q 439 637 460 620 q 391 665 418 654 q 328 675 363 675 q 193 608 235 675 q 150 401 150 541 l 150 332 z "},"h":{"ha":668,"x_min":100,"x_max":569,"o":"m 176 618 q 258 712 208 677 q 372 747 308 747 q 455 732 418 747 q 516 685 491 718 q 555 601 542 652 q 569 477 569 550 l 569 0 l 494 0 l 494 478 q 485 572 494 534 q 456 633 475 610 q 412 666 438 656 q 353 675 386 675 q 291 662 319 675 q 241 625 263 648 q 202 572 218 602 q 176 509 186 542 l 176 0 l 100 0 l 100 1042 l 176 1042 l 176 618 z "},"i":{"ha":292,"x_min":98,"x_max":197,"o":"m 184 0 l 109 0 l 109 734 l 184 734 l 184 0 m 98 945 q 111 985 98 968 q 147 1001 123 1001 q 184 985 171 1001 q 197 945 197 968 q 184 906 197 922 q 147 890 171 890 q 111 906 123 890 q 98 945 98 922 z "},"j":{"ha":296,"x_min":-41,"x_max":193,"o":"m 181 734 l 181 -87 q 140 -243 181 -189 q 19 -296 99 -296 q -12 -293 5 -296 q -41 -283 -28 -290 l -41 -215 q -16 -221 -31 -218 q 9 -224 -2 -224 q 81 -190 56 -224 q 106 -87 106 -157 l 106 734 l 181 734 m 94 945 q 107 985 94 968 q 143 1001 119 1001 q 180 985 167 1001 q 193 945 193 968 q 180 906 193 922 q 143 890 167 890 q 107 906 119 890 q 94 945 94 922 z "},"k":{"ha":602,"x_min":100,"x_max":585,"o":"m 253 367 l 176 281 l 176 0 l 100 0 l 100 1042 l 176 1042 l 176 379 l 239 459 l 467 734 l 560 734 l 302 424 l 585 0 l 495 0 l 253 367 z "},"l":{"ha":292,"x_min":109,"x_max":184,"o":"m 184 0 l 109 0 l 109 1042 l 184 1042 l 184 0 z "},"m":{"ha":1059,"x_min":98,"x_max":962,"o":"m 170 734 l 172 624 q 252 714 203 680 q 368 747 301 747 q 482 715 434 747 q 551 612 530 683 q 587 667 566 642 q 634 709 608 692 q 692 737 661 727 q 760 747 723 747 q 845 732 808 747 q 909 684 883 717 q 949 600 935 651 q 962 478 962 549 l 962 0 l 887 0 l 887 479 q 877 574 887 536 q 847 635 866 612 q 800 667 827 658 q 741 675 773 675 q 669 657 700 675 q 616 613 637 640 q 582 553 594 587 q 568 488 570 520 l 568 0 l 492 0 l 492 485 q 481 576 492 539 q 451 634 471 612 q 405 666 432 656 q 345 675 378 675 q 280 662 309 675 q 231 625 252 648 q 195 572 210 602 q 173 511 181 543 l 173 0 l 98 0 l 98 734 l 170 734 z "},"n":{"ha":669,"x_min":100,"x_max":569,"o":"m 172 734 l 174 617 q 257 712 207 677 q 372 747 308 747 q 455 732 418 747 q 516 685 491 718 q 555 601 542 652 q 569 477 569 550 l 569 0 l 494 0 l 494 478 q 485 572 494 534 q 456 633 475 610 q 412 666 438 656 q 353 675 386 675 q 291 662 319 675 q 241 625 263 648 q 202 572 218 602 q 176 509 186 542 l 176 0 l 100 0 l 100 734 l 172 734 z "},"o":{"ha":682,"x_min":72,"x_max":608,"o":"m 72 404 q 92 551 72 488 q 146 659 111 615 q 231 725 182 703 q 340 747 280 747 q 450 725 400 747 q 534 659 499 703 q 589 551 570 615 q 608 404 608 488 l 608 328 q 589 181 608 245 q 534 74 570 117 q 450 9 499 31 q 341 -14 401 -14 q 231 9 281 -14 q 146 74 182 31 q 92 181 111 117 q 72 328 72 245 l 72 404 m 148 328 q 161 215 148 265 q 198 130 174 165 q 259 75 223 94 q 341 56 295 56 q 426 75 390 56 q 486 130 462 94 q 521 215 509 165 q 533 328 533 265 l 533 404 q 520 516 533 466 q 483 603 507 567 q 422 657 458 638 q 340 677 386 677 q 259 657 294 677 q 198 603 223 638 q 161 516 174 567 q 148 404 148 466 l 148 328 z "},"p":{"ha":675,"x_min":100,"x_max":601,"o":"m 601 332 q 585 178 601 243 q 539 71 569 113 q 465 7 509 28 q 366 -14 421 -14 q 252 13 299 -14 q 175 88 205 40 l 175 -282 l 100 -282 l 100 734 l 170 734 l 173 633 q 250 717 203 687 q 363 747 297 747 q 465 728 420 747 q 539 666 509 708 q 585 558 570 624 q 601 401 601 493 l 601 332 m 526 401 q 482 608 526 542 q 345 675 438 675 q 283 665 311 675 q 235 638 256 655 q 200 600 214 621 q 175 553 185 578 l 175 167 q 202 123 186 143 q 239 87 218 102 q 287 64 260 73 q 347 56 313 56 q 482 124 438 56 q 526 332 526 191 l 526 401 z "},"q":{"ha":680,"x_min":73,"x_max":574,"o":"m 73 401 q 90 558 73 493 q 137 666 106 624 q 213 728 168 708 q 314 747 257 747 q 424 719 378 747 q 500 639 470 690 l 504 734 l 574 734 l 574 -282 l 498 -282 l 498 85 q 422 13 468 39 q 313 -14 377 -14 q 212 7 257 -14 q 137 71 168 28 q 90 178 106 113 q 73 332 73 243 l 73 401 m 150 332 q 193 124 150 191 q 328 56 236 56 q 433 86 392 56 q 498 164 475 117 l 498 559 q 472 604 488 583 q 436 642 457 625 q 389 667 416 658 q 329 677 362 677 q 193 609 236 677 q 150 401 150 542 l 150 332 z "},"r":{"ha":420,"x_min":100,"x_max":389,"o":"m 388 663 q 365 667 376 665 q 340 668 354 668 q 280 656 307 668 q 233 623 254 644 q 198 572 213 602 q 176 507 184 542 l 176 0 l 100 0 l 100 734 l 174 734 l 176 624 q 242 714 201 682 q 344 747 283 747 q 370 745 356 747 q 389 739 383 742 l 388 663 z "},"s":{"ha":620,"x_min":70,"x_max":543,"o":"m 467 180 q 459 222 467 203 q 431 260 450 242 q 380 298 412 279 q 302 338 349 317 q 212 381 252 361 q 146 426 173 402 q 105 480 119 450 q 91 552 91 511 q 106 628 91 593 q 150 690 121 664 q 219 732 178 717 q 310 747 260 747 q 406 731 363 747 q 478 687 449 715 q 524 619 508 659 q 539 532 539 579 l 464 532 q 454 587 464 561 q 424 633 444 613 q 376 665 404 653 q 310 677 347 677 q 244 666 271 677 q 199 638 217 656 q 174 599 182 621 q 165 555 165 577 q 172 515 165 532 q 197 481 179 498 q 245 448 215 465 q 324 408 276 431 q 416 364 375 385 q 485 318 456 343 q 528 260 513 292 q 543 184 543 229 q 527 102 543 139 q 480 40 511 66 q 408 0 450 14 q 314 -14 366 -14 q 209 4 254 -14 q 133 50 163 21 q 86 118 102 79 q 70 200 70 157 l 146 200 q 164 129 148 157 q 203 85 180 101 q 256 62 227 68 q 314 56 286 56 q 380 66 351 56 q 428 93 409 76 q 457 132 448 109 q 467 180 467 155 z "},"t":{"ha":403,"x_min":25,"x_max":348,"o":"m 214 921 l 214 734 l 339 734 l 339 666 l 214 666 l 214 178 q 220 117 214 140 q 237 81 227 94 q 262 63 248 68 q 292 59 276 59 q 321 61 307 59 q 346 66 335 64 l 348 -2 q 316 -11 336 -7 q 274 -14 296 -14 q 220 -4 245 -14 q 177 28 195 5 q 149 87 159 50 q 138 179 138 124 l 138 666 l 25 666 l 25 734 l 138 734 l 138 921 l 214 921 z "},"u":{"ha":669,"x_min":98,"x_max":568,"o":"m 494 87 q 417 13 465 40 q 300 -14 370 -14 q 218 2 255 -14 q 154 50 180 17 q 113 136 127 83 q 98 264 98 189 l 98 734 l 173 734 l 173 262 q 184 165 173 204 q 214 102 195 126 q 257 68 233 79 q 310 58 282 58 q 379 68 349 58 q 432 97 410 79 q 469 141 454 115 q 492 197 484 166 l 492 734 l 568 734 l 568 0 l 495 0 l 494 87 z "},"v":{"ha":589,"x_min":35,"x_max":553,"o":"m 295 118 l 475 734 l 553 734 l 324 0 l 264 0 l 35 734 l 112 734 l 295 118 z "},"w":{"ha":906,"x_min":47,"x_max":854,"o":"m 255 167 l 261 126 l 269 170 l 419 734 l 482 734 l 631 175 l 642 117 l 650 169 l 777 734 l 854 734 l 675 0 l 612 0 l 452 583 l 449 601 l 446 583 l 290 0 l 226 0 l 47 734 l 124 734 l 255 167 z "},"x":{"ha":597,"x_min":40,"x_max":555,"o":"m 297 437 l 458 734 l 547 734 l 338 374 l 555 0 l 467 0 l 298 309 l 128 0 l 40 0 l 256 374 l 48 734 l 136 734 l 297 437 z "},"y":{"ha":581,"x_min":31,"x_max":551,"o":"m 296 124 l 471 734 l 551 734 l 293 -117 q 273 -174 285 -142 q 240 -232 260 -205 q 190 -278 220 -259 q 119 -296 161 -296 q 105 -295 113 -296 q 90 -293 98 -294 q 75 -290 82 -292 q 64 -287 68 -288 l 64 -218 q 82 -221 71 -220 q 98 -222 93 -222 q 146 -214 125 -222 q 183 -189 167 -205 q 211 -148 199 -172 q 233 -90 223 -123 l 261 5 l 31 734 l 113 734 l 296 124 z "},"z":{"ha":597,"x_min":63,"x_max":549,"o":"m 153 70 l 549 70 l 549 0 l 63 0 l 63 61 l 434 663 l 73 663 l 73 734 l 526 734 l 526 672 l 153 70 z "},"{":{"ha":414,"x_min":52,"x_max":393,"o":"m 376 -273 q 283 -221 320 -253 q 223 -150 245 -190 q 191 -61 200 -109 q 181 41 181 -12 l 181 193 q 174 265 181 233 q 151 320 167 298 q 111 356 135 343 q 52 368 86 368 l 52 440 q 111 452 86 440 q 151 487 135 465 q 174 542 167 510 q 181 614 181 574 l 181 768 q 191 870 181 821 q 223 959 200 918 q 283 1032 245 1000 q 376 1083 320 1063 l 392 1028 q 329 989 355 1014 q 287 930 303 964 q 264 855 271 896 q 257 768 257 814 l 257 614 q 251 546 257 578 q 232 487 245 513 q 198 438 218 460 q 150 404 178 417 q 198 369 178 391 q 232 320 218 348 q 251 261 245 293 q 257 193 257 229 l 257 41 q 264 -46 257 -5 q 288 -120 272 -87 q 330 -178 304 -153 q 393 -218 356 -203 l 376 -273 z "},"|":{"ha":307,"x_min":121,"x_max":189,"o":"m 189 -183 l 121 -183 l 121 987 l 189 987 l 189 -183 z "},"}":{"ha":414,"x_min":20,"x_max":361,"o":"m 20 -218 q 83 -178 57 -203 q 125 -120 109 -153 q 149 -46 142 -87 q 157 41 157 -5 l 157 193 q 163 262 157 229 q 183 322 170 294 q 218 370 197 349 q 268 404 239 391 q 218 437 239 416 q 183 485 197 458 q 163 545 170 512 q 157 614 157 577 l 157 768 q 150 855 157 814 q 126 930 142 896 q 84 989 110 964 q 21 1028 58 1014 l 37 1083 q 131 1032 93 1063 q 191 959 168 1000 q 222 870 213 918 q 232 768 232 821 l 232 614 q 239 542 232 574 q 262 487 247 510 q 302 452 278 465 q 361 440 327 440 l 361 368 q 302 356 327 368 q 262 320 278 343 q 239 265 247 298 q 232 193 232 233 l 232 41 q 222 -61 232 -12 q 191 -150 213 -109 q 131 -221 168 -190 q 37 -273 93 -253 l 20 -218 z "},"~":{"ha":825,"x_min":94,"x_max":729,"o":"m 729 519 q 717 430 729 472 q 683 355 705 387 q 629 305 661 323 q 557 286 597 286 q 510 293 532 286 q 469 311 489 299 q 430 342 450 323 q 387 384 410 360 q 355 417 370 403 q 326 441 340 432 q 297 456 312 451 q 267 460 283 460 q 190 420 217 460 q 162 304 162 380 l 94 304 q 106 394 94 352 q 140 467 118 436 q 194 516 162 498 q 267 534 226 534 q 313 528 292 534 q 355 508 334 521 q 395 478 375 496 q 437 437 415 460 q 469 402 454 416 q 498 378 484 387 q 527 365 513 369 q 557 360 541 360 q 602 371 583 360 q 636 404 622 382 q 657 454 650 425 q 665 519 665 483 l 729 519 z "},"¡":{"ha":290,"x_min":93,"x_max":193,"o":"m 112 467 l 182 467 l 186 -243 l 108 -243 l 112 467 m 193 692 q 180 653 193 669 q 143 637 167 637 q 106 653 119 637 q 93 692 93 669 q 106 731 93 715 q 143 747 119 747 q 180 731 167 747 q 193 692 193 715 z "},"¢":{"ha":663,"x_min":79,"x_max":584,"o":"m 345 56 q 406 64 376 56 q 457 92 435 73 q 495 145 480 112 q 511 227 509 178 l 584 227 q 565 132 582 174 q 521 59 549 90 q 457 11 494 29 q 380 -12 421 -7 l 380 -166 l 304 -166 l 304 -11 q 136 86 193 2 q 79 326 79 170 l 79 408 q 136 647 79 563 q 304 745 193 732 l 304 894 l 380 894 l 380 745 q 460 722 423 740 q 523 671 496 703 q 566 593 550 639 q 584 486 582 547 l 511 486 q 496 573 509 537 q 460 633 482 610 q 409 666 438 656 q 345 677 379 677 q 256 659 292 677 q 198 606 220 641 q 165 522 176 572 q 155 408 155 472 l 155 326 q 165 211 155 261 q 197 126 175 161 q 256 74 220 92 q 345 56 292 56 z "},"£":{"ha":696,"x_min":66,"x_max":640,"o":"m 248 437 l 254 250 q 245 148 254 194 q 216 72 235 102 l 640 72 l 640 0 l 68 0 l 68 72 l 122 72 q 148 95 137 77 q 164 139 158 114 q 174 194 171 165 q 176 250 176 224 l 170 437 l 66 437 l 66 509 l 168 509 l 163 705 q 181 830 163 774 q 229 923 198 885 q 304 981 260 961 q 399 1001 347 1001 q 494 982 452 1001 q 566 928 536 962 q 610 845 595 893 q 625 738 625 796 l 547 738 q 535 825 547 789 q 501 884 522 861 q 452 918 479 907 q 393 928 424 928 q 332 914 359 928 q 284 871 304 899 q 253 801 264 842 q 241 705 241 759 l 246 509 l 440 509 l 440 437 l 248 437 z "},"¤":{"ha":1004,"x_min":74,"x_max":932,"o":"m 767 90 q 646 14 714 41 q 502 -14 578 -14 q 357 14 425 -14 q 237 90 290 41 l 132 -18 l 74 42 l 181 151 q 120 271 142 205 q 98 412 98 337 q 121 558 98 490 q 187 681 144 627 l 74 797 l 132 857 l 245 742 q 363 812 298 787 q 502 837 428 837 q 641 811 576 837 q 759 741 706 786 l 874 858 l 932 797 l 817 679 q 881 557 858 625 q 905 412 905 490 q 883 272 905 338 q 823 153 861 207 l 932 42 l 874 -18 l 767 90 m 174 412 q 200 276 174 340 q 271 165 226 212 q 375 91 315 118 q 502 63 435 63 q 628 91 569 63 q 732 165 688 118 q 802 276 777 212 q 828 412 828 340 q 802 548 828 484 q 732 658 777 611 q 628 732 688 705 q 502 760 569 760 q 375 732 435 760 q 271 658 315 705 q 200 548 226 611 q 174 412 174 484 z "},"¥":{"ha":726,"x_min":37,"x_max":684,"o":"m 360 507 l 593 987 l 684 987 l 428 479 l 632 479 l 632 418 l 398 418 l 398 281 l 632 281 l 632 220 l 398 220 l 398 0 l 320 0 l 320 220 l 88 220 l 88 281 l 320 281 l 320 418 l 88 418 l 88 479 l 293 479 l 37 987 l 127 987 l 360 507 z "},"¦":{"ha":301,"x_min":108,"x_max":189,"o":"m 108 -183 l 108 340 l 189 340 l 189 -183 l 108 -183 m 189 473 l 108 473 l 108 987 l 189 987 l 189 473 z "},"§":{"ha":734,"x_min":71,"x_max":654,"o":"m 654 292 q 619 178 654 225 q 522 108 584 131 q 601 28 574 76 q 629 -94 629 -20 q 609 -196 629 -151 q 555 -272 590 -241 q 470 -319 519 -303 q 359 -336 420 -336 q 254 -321 306 -336 q 161 -272 202 -306 q 96 -182 121 -238 q 71 -43 71 -126 l 146 -42 q 165 -149 146 -106 q 215 -217 184 -191 q 284 -254 246 -243 q 359 -265 322 -265 q 442 -252 406 -265 q 503 -217 478 -239 q 540 -163 527 -194 q 553 -95 553 -132 q 543 -33 553 -60 q 510 16 534 -6 q 446 58 486 39 q 345 98 406 78 q 232 140 282 117 q 147 195 182 163 q 93 270 112 227 q 74 374 74 313 q 107 489 74 441 q 200 559 140 536 q 125 639 151 592 q 99 759 99 686 q 118 859 99 814 q 173 935 138 903 q 258 984 208 966 q 370 1001 308 1001 q 483 982 433 1001 q 569 925 534 962 q 622 834 604 888 q 641 709 641 779 l 566 709 q 553 795 566 754 q 515 865 541 836 q 454 913 490 895 q 370 930 417 930 q 282 917 319 930 q 222 880 245 903 q 186 826 198 857 q 175 761 175 795 q 184 695 175 723 q 217 645 193 667 q 281 603 240 623 q 385 562 321 584 q 498 520 448 543 q 583 468 549 498 q 636 395 618 437 q 654 292 654 353 m 354 493 q 272 522 308 507 q 217 504 240 517 q 179 472 194 491 q 157 428 164 452 q 149 375 149 403 q 159 308 149 336 q 194 257 169 279 q 262 215 219 235 q 373 172 306 195 q 410 159 393 165 q 445 146 428 153 q 502 164 477 151 q 544 196 527 177 q 570 239 561 215 q 578 290 578 263 q 568 355 578 327 q 531 406 557 382 q 461 450 505 429 q 354 493 418 471 z "},"¨":{"ha":597,"x_min":97,"x_max":505,"o":"m 97 946 q 112 986 97 970 q 153 1002 126 1002 q 194 986 178 1002 q 209 946 209 970 q 194 907 209 923 q 153 892 178 892 q 112 907 126 892 q 97 946 97 923 m 393 945 q 408 985 393 969 q 449 1001 423 1001 q 490 985 475 1001 q 505 945 505 969 q 490 907 505 922 q 449 891 475 891 q 408 907 423 891 q 393 945 393 922 z "},"©":{"ha":1110,"x_min":73,"x_max":1035,"o":"m 760 411 q 745 317 760 357 q 703 251 730 277 q 635 211 675 224 q 547 198 596 198 q 454 217 496 198 q 383 271 412 236 q 337 354 353 305 q 321 460 321 402 l 321 527 q 337 633 321 585 q 383 716 353 682 q 454 770 412 751 q 547 789 496 789 q 635 776 596 789 q 703 736 675 763 q 746 670 731 710 q 761 577 761 630 l 694 577 q 656 691 694 655 q 547 727 619 727 q 479 712 509 727 q 430 670 450 696 q 399 607 410 643 q 389 528 389 570 l 389 460 q 399 381 389 418 q 430 318 410 345 q 479 276 450 291 q 547 261 509 261 q 656 296 618 261 q 693 411 693 332 l 760 411 m 130 494 q 145 373 130 431 q 188 266 161 315 q 255 175 216 216 q 341 105 294 134 q 442 61 388 77 q 554 45 496 45 q 666 61 612 45 q 767 105 720 77 q 852 175 814 134 q 919 266 891 216 q 962 373 947 315 q 977 494 977 431 q 944 670 977 589 q 852 812 910 752 q 718 907 795 872 q 554 941 641 941 q 442 926 496 941 q 341 881 388 910 q 255 812 294 852 q 188 722 216 772 q 145 615 161 673 q 130 494 130 557 m 73 494 q 90 632 73 566 q 138 753 107 697 q 214 856 170 810 q 311 933 258 901 q 426 983 365 966 q 554 1001 488 1001 q 682 983 621 1001 q 797 933 743 966 q 894 856 850 901 q 969 753 938 810 q 1018 632 1000 697 q 1035 494 1035 566 q 1018 357 1035 422 q 969 235 1000 292 q 894 133 938 178 q 797 54 850 87 q 682 3 743 21 q 554 -14 621 -14 q 426 3 488 -14 q 311 54 365 21 q 214 133 258 87 q 138 235 170 178 q 90 357 107 292 q 73 494 73 422 z "},"ª":{"ha":544,"x_min":102,"x_max":449,"o":"m 380 478 q 373 508 376 492 q 368 540 370 524 q 318 490 350 511 q 243 469 287 469 q 138 509 175 469 q 102 616 102 549 q 149 732 102 691 q 290 773 197 773 l 366 773 l 366 814 q 345 903 366 872 q 279 935 323 935 q 202 911 230 935 q 174 838 174 887 l 106 843 q 119 906 106 878 q 154 956 131 935 q 208 989 176 977 q 279 1001 240 1001 q 342 989 313 1001 q 391 954 370 977 q 423 896 412 930 q 434 814 434 861 l 434 601 q 438 538 434 568 q 449 478 441 508 l 380 478 m 257 534 q 289 540 273 534 q 320 555 305 546 q 346 576 334 564 q 366 602 358 589 l 366 717 l 291 717 q 200 691 231 717 q 170 619 170 666 q 190 557 170 581 q 257 534 211 534 z "},"«":{"ha":562,"x_min":81,"x_max":491,"o":"m 157 364 l 313 100 l 250 100 l 81 358 l 81 371 l 250 628 l 313 628 l 157 364 m 336 364 l 491 100 l 428 100 l 260 358 l 260 371 l 428 628 l 491 628 l 336 364 z "},"¬":{"ha":665,"x_min":84,"x_max":549,"o":"m 549 261 l 473 261 l 473 453 l 84 453 l 84 527 l 549 527 l 549 261 z "},"®":{"ha":1114,"x_min":69,"x_max":1032,"o":"m 69 494 q 86 632 69 566 q 135 753 104 697 q 210 856 166 810 q 308 933 254 901 q 423 983 361 966 q 551 1001 484 1001 q 679 983 617 1001 q 793 933 740 966 q 891 856 847 901 q 966 753 935 810 q 1015 632 998 697 q 1032 494 1032 566 q 1015 357 1032 422 q 966 235 998 292 q 891 133 935 178 q 793 54 847 87 q 679 3 740 21 q 551 -14 617 -14 q 423 3 484 -14 q 308 54 361 21 q 210 133 254 87 q 135 235 166 178 q 86 357 104 292 q 69 494 69 422 m 127 494 q 142 373 127 431 q 185 266 157 315 q 252 175 213 216 q 337 105 290 134 q 438 61 385 77 q 551 45 492 45 q 663 61 609 45 q 764 105 717 77 q 850 175 811 134 q 916 266 888 216 q 959 373 943 315 q 974 494 974 431 q 959 615 974 557 q 916 722 943 673 q 850 812 888 772 q 764 881 811 852 q 663 926 717 910 q 551 941 609 941 q 438 926 492 941 q 337 881 385 910 q 252 812 290 852 q 185 722 213 772 q 142 615 157 673 q 127 494 127 557 m 441 452 l 441 218 l 374 218 l 374 787 l 549 787 q 703 745 649 787 q 756 618 756 703 q 731 539 756 572 q 661 485 707 506 q 702 462 686 476 q 728 430 718 448 q 743 391 739 412 q 747 345 747 369 l 747 315 q 750 267 747 289 q 759 229 753 244 l 759 218 l 690 218 q 684 240 686 227 q 681 268 682 254 q 680 295 680 282 q 680 315 680 308 l 680 345 q 655 426 680 401 q 568 452 630 452 l 441 452 m 441 514 l 564 514 q 612 521 589 514 q 652 541 635 528 q 680 573 669 553 q 690 617 690 592 q 683 666 690 646 q 659 700 675 686 q 616 719 643 713 q 549 725 589 725 l 441 725 l 441 514 z "},"¯":{"ha":532,"x_min":75,"x_max":462,"o":"m 462 920 l 75 920 l 75 987 l 462 987 l 462 920 z "},"°":{"ha":525,"x_min":97,"x_max":427,"o":"m 97 831 q 110 897 97 866 q 146 951 123 928 q 199 987 169 974 q 263 1001 229 1001 q 327 987 297 1001 q 379 951 357 974 q 414 897 401 928 q 427 831 427 866 q 414 766 427 796 q 379 712 401 735 q 327 677 357 690 q 263 664 297 664 q 199 677 229 664 q 146 712 169 690 q 110 766 123 735 q 97 831 97 796 m 158 831 q 166 790 158 809 q 189 756 174 770 q 222 734 203 742 q 263 726 241 726 q 304 734 286 726 q 337 756 323 742 q 358 790 351 770 q 366 831 366 809 q 358 874 366 854 q 337 908 351 894 q 304 930 323 922 q 263 939 286 939 q 222 930 241 939 q 189 908 203 922 q 166 874 174 894 q 158 831 158 854 z "},"±":{"ha":647,"x_min":63,"x_max":585,"o":"m 365 563 l 585 563 l 585 493 l 365 493 l 365 196 l 296 196 l 296 493 l 63 493 l 63 563 l 296 563 l 296 859 l 365 859 l 365 563 m 563 0 l 87 0 l 87 71 l 563 71 l 563 0 z "},"²":{"ha":450,"x_min":56,"x_max":395,"o":"m 395 451 l 67 451 l 67 503 l 231 694 q 290 777 273 743 q 308 839 308 811 q 286 907 308 881 q 220 932 263 932 q 177 924 195 932 q 146 902 158 916 q 127 867 134 887 q 121 824 121 847 l 56 824 q 67 889 56 859 q 99 943 78 920 q 151 980 120 966 q 219 994 181 994 q 283 983 254 994 q 332 952 312 972 q 363 904 352 932 q 374 840 374 876 q 366 789 374 814 q 343 741 357 765 q 310 693 329 718 q 268 644 290 669 l 150 511 l 395 511 l 395 451 z "},"³":{"ha":450,"x_min":53,"x_max":386,"o":"m 165 751 l 210 751 q 254 758 235 751 q 286 777 273 765 q 305 806 298 789 q 311 842 311 823 q 306 877 311 861 q 289 906 300 894 q 261 925 278 918 q 220 932 243 932 q 183 926 200 932 q 153 909 165 920 q 133 881 140 897 q 126 844 126 865 l 60 844 q 73 906 60 878 q 107 953 85 933 q 157 983 128 972 q 219 994 186 994 q 283 984 254 994 q 333 955 313 974 q 366 907 354 935 q 377 843 377 879 q 356 772 377 804 q 294 724 334 741 q 363 677 340 710 q 386 597 386 645 q 373 532 386 560 q 338 484 361 503 q 286 454 316 464 q 220 444 255 444 q 159 453 189 444 q 105 481 129 462 q 67 530 82 500 q 53 600 53 559 l 119 600 q 127 561 119 578 q 148 530 134 543 q 180 510 161 517 q 222 503 199 503 q 295 529 269 503 q 321 600 321 555 q 291 673 321 651 q 210 695 260 695 l 165 695 l 165 751 z "},"´":{"ha":391,"x_min":84,"x_max":312,"o":"m 214 1034 l 312 1034 l 155 844 l 84 844 l 214 1034 z "},"µ":{"ha":679,"x_min":105,"x_max":574,"o":"m 180 734 l 180 305 q 192 181 180 229 q 223 105 203 133 q 269 67 243 77 q 325 56 296 56 q 393 67 363 56 q 443 96 422 77 q 477 142 463 115 q 498 203 490 170 l 498 734 l 574 734 l 574 0 l 509 0 l 503 100 q 434 17 477 47 q 330 -14 391 -14 q 244 5 283 -14 q 180 68 206 24 l 180 -282 l 105 -282 l 105 734 l 180 734 z "},"¶":{"ha":585,"x_min":59,"x_max":473,"o":"m 397 0 l 397 353 l 339 353 q 218 376 271 353 q 131 443 166 400 q 77 543 96 485 q 59 670 59 602 q 77 796 59 738 q 131 897 96 854 q 218 963 166 939 q 339 987 271 987 l 473 987 l 473 0 l 397 0 z "},"·":{"ha":317,"x_min":104,"x_max":208,"o":"m 104 486 q 118 527 104 511 q 156 544 132 544 q 194 527 180 544 q 208 486 208 511 q 194 447 208 463 q 156 431 180 431 q 118 447 132 431 q 104 486 104 463 z "},"¸":{"ha":312,"x_min":71,"x_max":243,"o":"m 158 0 l 151 -43 q 185 -53 168 -46 q 215 -74 201 -60 q 236 -108 228 -87 q 243 -159 243 -129 q 232 -215 243 -190 q 200 -257 221 -239 q 147 -285 178 -275 q 75 -295 116 -295 l 71 -241 q 112 -237 92 -241 q 148 -222 132 -232 q 173 -198 163 -213 q 182 -161 182 -182 q 176 -128 182 -141 q 158 -106 170 -115 q 127 -94 146 -98 q 83 -87 109 -90 l 100 0 l 158 0 z "},"¹":{"ha":414,"x_min":85,"x_max":281,"o":"m 281 454 l 215 454 l 215 902 l 85 855 l 85 918 l 273 990 l 281 990 l 281 454 z "},"º":{"ha":553,"x_min":89,"x_max":462,"o":"m 89 768 q 102 861 89 819 q 139 935 115 904 q 198 984 163 966 q 275 1001 233 1001 q 353 984 319 1001 q 412 935 388 966 q 449 861 436 904 q 462 768 462 819 l 462 701 q 449 607 462 650 q 412 533 436 564 q 353 485 388 503 q 276 468 319 468 q 198 485 233 468 q 139 533 163 503 q 102 607 115 564 q 89 701 89 650 l 89 768 m 157 701 q 164 635 157 665 q 185 582 171 604 q 223 547 200 559 q 276 534 245 534 q 328 547 306 534 q 365 582 350 559 q 387 635 380 604 q 394 701 394 665 l 394 768 q 387 833 394 802 q 365 886 379 863 q 328 921 350 908 q 275 935 305 935 q 223 921 245 935 q 186 886 201 908 q 164 833 172 863 q 157 768 157 802 l 157 701 z "},"»":{"ha":559,"x_min":77,"x_max":495,"o":"m 142 640 l 310 380 l 310 367 l 142 109 l 77 109 l 233 373 l 77 640 l 142 640 m 327 640 l 495 380 l 495 367 l 327 109 l 262 109 l 418 373 l 262 640 l 327 640 z "},"¼":{"ha":874,"x_min":76,"x_max":814,"o":"m 273 450 l 206 450 l 206 898 l 76 851 l 76 913 l 264 986 l 273 986 l 273 450 m 252 87 l 208 120 l 612 892 l 658 859 l 252 87 m 743 187 l 814 187 l 814 126 l 743 126 l 743 0 l 678 0 l 678 126 l 453 126 l 451 172 l 675 535 l 743 535 l 743 187 m 520 187 l 678 187 l 678 442 l 662 412 l 520 187 z "},"½":{"ha":913,"x_min":68,"x_max":836,"o":"m 227 87 l 182 120 l 587 892 l 633 859 l 227 87 m 265 450 l 199 450 l 199 898 l 68 851 l 68 913 l 256 986 l 265 986 l 265 450 m 836 0 l 508 0 l 508 52 l 672 243 q 731 326 713 292 q 749 388 749 360 q 726 456 749 430 q 661 481 704 481 q 617 473 636 481 q 587 451 599 465 q 568 416 574 436 q 562 373 562 396 l 496 373 q 508 438 496 408 q 540 492 519 469 q 591 529 561 515 q 660 543 622 543 q 724 532 695 543 q 773 502 753 522 q 804 453 793 481 q 814 389 814 425 q 806 338 814 363 q 784 290 798 314 q 750 242 770 267 q 709 193 731 218 l 591 60 l 836 60 l 836 0 z "},"¾":{"ha":933,"x_min":80,"x_max":876,"o":"m 332 87 l 288 120 l 692 892 l 738 859 l 332 87 m 806 187 l 876 187 l 876 126 l 806 126 l 806 0 l 741 0 l 741 126 l 515 126 l 513 172 l 737 535 l 806 535 l 806 187 m 583 187 l 741 187 l 741 442 l 724 412 l 583 187 m 193 751 l 237 751 q 281 758 262 751 q 313 777 300 765 q 332 806 326 789 q 338 842 338 823 q 333 877 338 861 q 316 906 328 894 q 288 925 305 918 q 247 932 271 932 q 210 926 227 932 q 180 909 193 920 q 160 881 168 897 q 153 844 153 865 l 87 844 q 100 906 87 878 q 134 953 113 933 q 184 983 155 972 q 246 994 213 994 q 311 984 281 994 q 360 955 340 974 q 393 907 381 935 q 404 843 404 879 q 383 772 404 804 q 321 724 361 741 q 390 677 368 710 q 413 597 413 645 q 400 532 413 560 q 366 484 388 503 q 313 454 343 464 q 247 444 282 444 q 186 453 216 444 q 133 481 156 462 q 95 530 109 500 q 80 600 80 559 l 146 600 q 154 561 146 578 q 175 530 161 543 q 208 510 189 517 q 249 503 227 503 q 322 529 296 503 q 348 600 348 555 q 318 673 348 651 q 237 695 288 695 l 193 695 l 193 751 z "},"¿":{"ha":566,"x_min":62,"x_max":503,"o":"m 332 466 q 327 393 331 422 q 314 338 323 363 q 288 291 304 314 q 245 237 271 267 q 204 185 224 210 q 169 133 184 161 q 145 72 154 105 q 136 -5 136 38 q 174 -139 136 -92 q 281 -186 211 -186 q 339 -174 313 -186 q 386 -140 366 -162 q 416 -86 405 -118 q 427 -14 427 -54 l 503 -14 q 485 -119 502 -73 q 438 -197 468 -165 q 368 -244 408 -228 q 281 -260 328 -260 q 189 -242 229 -260 q 120 -192 148 -224 q 77 -112 92 -159 q 62 -7 62 -65 q 73 83 62 42 q 104 161 85 125 q 149 231 123 198 q 203 296 174 264 q 231 333 220 315 q 247 372 241 352 q 254 416 252 393 q 256 466 256 439 l 332 466 m 340 692 q 327 653 340 669 q 290 637 314 637 q 253 653 267 637 q 240 692 240 669 q 253 731 240 715 q 290 747 267 747 q 327 731 314 747 q 340 692 340 715 z "},"Æ":{"ha":1095,"x_min":20,"x_max":1058,"o":"m 1058 0 l 585 0 l 576 263 l 241 263 l 112 0 l 20 0 l 522 987 l 1023 987 l 1023 917 l 628 917 l 641 549 l 977 549 l 977 479 l 644 479 l 658 70 l 1058 70 l 1058 0 m 279 341 l 573 341 l 553 898 l 279 341 z "},"×":{"ha":640,"x_min":66,"x_max":566,"o":"m 66 125 l 269 372 l 73 609 l 123 665 l 316 429 l 510 665 l 559 609 l 363 372 l 566 125 l 517 71 l 316 314 l 115 71 l 66 125 z "},"Ø":{"ha":819,"x_min":90,"x_max":744,"o":"m 729 387 q 707 214 729 289 q 644 89 685 139 q 543 12 602 38 q 410 -14 484 -14 q 226 42 302 -14 l 174 -57 l 111 -57 l 183 81 q 114 208 138 132 q 90 387 90 284 l 90 600 q 112 772 90 697 q 176 898 134 847 q 277 975 218 949 q 409 1001 336 1001 q 530 980 475 1001 q 625 918 585 959 l 680 1021 l 744 1021 l 663 869 q 712 752 696 819 q 729 600 729 684 l 729 387 m 167 387 q 222 155 167 237 l 587 846 q 409 926 526 926 q 231 844 294 926 q 167 601 167 763 l 167 387 m 651 601 q 643 704 651 658 q 621 787 635 751 l 262 110 q 410 60 320 60 q 590 142 528 60 q 651 387 651 223 l 651 601 z "},"Þ":{"ha":718,"x_min":116,"x_max":640,"o":"m 191 987 l 191 782 l 371 782 q 486 761 436 782 q 571 702 536 739 q 623 612 605 664 q 640 500 640 561 q 623 388 640 439 q 571 299 605 336 q 486 240 536 261 q 371 219 436 219 l 191 219 l 191 0 l 116 0 l 116 987 l 191 987 m 191 711 l 191 290 l 371 290 q 459 308 422 290 q 520 356 496 326 q 554 424 543 386 q 565 499 565 461 q 554 577 565 538 q 520 645 543 615 q 459 693 496 675 q 371 711 422 711 l 191 711 z "},"ß":{"ha":713,"x_min":98,"x_max":642,"o":"m 174 0 l 98 0 l 98 764 q 113 886 98 833 q 155 975 127 939 q 220 1029 182 1010 q 307 1047 259 1047 q 385 1034 349 1047 q 448 994 421 1020 q 491 928 475 967 q 507 838 507 889 q 502 778 507 804 q 488 731 496 752 q 471 691 480 709 q 454 652 463 672 q 441 610 446 633 q 436 559 436 588 q 451 499 436 526 q 489 449 467 473 q 539 401 512 425 q 588 349 566 377 q 626 287 611 321 q 642 208 642 253 q 624 112 642 153 q 576 42 606 71 q 508 0 547 14 q 427 -14 469 -14 q 376 -9 402 -14 q 327 3 351 -5 q 283 20 303 10 q 253 41 264 30 l 273 111 q 299 92 283 101 q 335 74 315 82 q 375 61 354 66 q 418 56 397 56 q 481 68 454 56 q 528 101 509 80 q 556 149 547 121 q 566 208 566 176 q 551 271 566 243 q 513 323 536 298 q 464 371 490 348 q 414 422 437 395 q 376 483 391 450 q 361 560 361 516 q 372 639 361 606 q 397 701 384 672 q 422 761 411 730 q 434 833 434 791 q 424 893 434 866 q 398 938 414 920 q 360 967 382 957 q 313 977 338 977 q 255 965 281 977 q 211 927 229 953 q 183 861 193 901 q 174 764 174 821 l 174 0 z "},"æ":{"ha":1013,"x_min":61,"x_max":958,"o":"m 734 -14 q 598 23 655 -14 q 507 123 541 59 q 472 74 494 99 q 420 30 451 50 q 351 -1 390 11 q 263 -14 312 -14 q 177 1 214 -14 q 113 44 139 16 q 74 111 87 72 q 61 199 61 151 q 77 295 61 252 q 124 367 93 337 q 203 413 156 397 q 312 429 250 429 l 455 429 l 455 488 q 420 627 455 577 q 315 677 385 677 q 247 665 277 677 q 195 631 216 652 q 163 581 174 610 q 152 519 152 552 l 77 528 q 94 615 77 575 q 142 685 111 656 q 217 731 174 714 q 315 747 261 747 q 436 713 385 747 q 510 609 486 678 q 597 711 545 674 q 715 747 650 747 q 819 725 774 747 q 895 663 864 703 q 942 564 926 622 q 958 432 958 505 l 958 363 l 530 363 l 530 346 q 542 233 530 286 q 579 141 554 180 q 642 79 604 102 q 734 56 680 56 q 793 63 766 56 q 843 81 820 70 q 884 106 865 92 q 918 136 902 121 l 946 75 q 916 46 935 62 q 872 17 898 31 q 811 -5 846 4 q 734 -14 777 -14 m 275 56 q 331 65 303 56 q 382 89 358 74 q 425 121 406 103 q 455 157 444 139 l 455 362 l 313 362 q 236 349 269 362 q 181 312 203 335 q 148 260 159 290 q 137 197 137 230 q 172 95 137 134 q 275 56 206 56 m 715 677 q 644 658 676 677 q 589 606 612 640 q 551 528 566 573 q 532 431 537 484 l 884 431 l 884 452 q 874 540 884 499 q 843 611 864 581 q 791 659 823 642 q 715 677 759 677 z "},"ð":{"ha":707,"x_min":96,"x_max":616,"o":"m 474 884 q 579 685 543 799 q 616 423 616 570 l 616 363 q 597 210 616 279 q 544 91 578 140 q 464 14 511 41 q 362 -14 417 -14 q 254 12 303 -14 q 170 82 205 37 q 115 187 135 127 q 96 316 96 247 q 114 457 96 395 q 165 564 132 520 q 244 631 198 608 q 347 654 290 654 q 449 629 401 654 q 530 562 497 604 q 487 719 517 651 q 413 839 456 787 l 286 745 l 254 795 l 372 882 q 280 949 329 921 q 178 998 231 978 l 202 1070 q 435 928 339 1022 l 545 1010 l 576 959 l 474 884 m 541 425 q 540 445 541 435 q 539 465 540 455 q 514 509 530 488 q 477 546 499 530 q 426 572 454 562 q 361 583 397 583 q 278 563 314 583 q 219 508 243 543 q 183 424 195 473 q 172 316 172 374 q 184 221 172 268 q 221 139 197 175 q 282 80 246 102 q 365 58 318 58 q 438 81 406 58 q 493 144 471 104 q 528 241 516 185 q 541 363 541 297 l 541 425 z "},"÷":{"ha":691,"x_min":54,"x_max":623,"o":"m 623 435 l 54 435 l 54 516 l 623 516 l 623 435 m 292 738 q 305 779 292 762 q 343 795 319 795 q 381 779 368 795 q 395 738 395 762 q 381 698 395 714 q 343 682 368 682 q 305 698 319 682 q 292 738 292 714 m 292 197 q 305 238 292 221 q 343 254 319 254 q 381 238 368 254 q 395 197 395 221 q 381 157 395 174 q 343 141 368 141 q 305 157 319 141 q 292 197 292 174 z "},"ø":{"ha":680,"x_min":71,"x_max":607,"o":"m 71 404 q 90 551 71 488 q 145 659 110 615 q 230 725 180 703 q 338 747 279 747 q 462 718 408 747 l 505 823 l 562 823 l 505 687 q 580 574 553 644 q 607 404 607 503 l 607 328 q 588 181 607 245 q 533 74 568 117 q 449 9 498 31 q 340 -14 399 -14 q 227 10 278 -14 l 184 -95 l 127 -95 l 182 37 q 100 152 129 79 q 71 328 71 224 l 71 404 m 146 328 q 163 201 146 256 q 212 111 180 146 l 433 649 q 390 670 414 663 q 338 677 366 677 q 257 657 293 677 q 197 603 222 638 q 159 516 172 567 q 146 404 146 466 l 146 328 m 532 404 q 517 523 532 470 q 474 611 503 575 l 254 77 q 340 56 292 56 q 425 75 389 56 q 484 130 460 94 q 520 215 508 165 q 532 328 532 265 l 532 404 z "},"þ":{"ha":686,"x_min":102,"x_max":604,"o":"m 604 332 q 588 178 604 243 q 542 71 572 113 q 468 7 512 28 q 368 -14 424 -14 q 255 13 302 -14 q 178 87 208 40 l 178 0 l 178 0 l 178 -282 l 103 -282 l 103 0 l 102 0 l 102 1042 l 178 1042 l 178 637 q 254 719 208 690 q 366 747 300 747 q 467 728 423 747 q 542 666 511 708 q 588 558 572 624 q 604 401 604 493 l 604 332 m 528 401 q 485 608 528 542 q 348 675 441 675 q 286 665 313 675 q 239 639 259 655 q 203 601 218 623 q 178 555 189 579 l 178 165 q 205 122 189 142 q 242 87 221 102 q 290 64 263 73 q 349 56 316 56 q 485 124 441 56 q 528 332 528 191 l 528 401 z "},"Ħ":{"ha":834,"x_min":28,"x_max":806,"o":"m 725 763 l 806 763 l 806 696 l 725 696 l 725 0 l 647 0 l 647 473 l 183 473 l 183 0 l 106 0 l 106 696 l 28 696 l 28 763 l 106 763 l 106 987 l 183 987 l 183 763 l 647 763 l 647 987 l 725 987 l 725 763 m 183 545 l 647 545 l 647 696 l 183 696 l 183 545 z "},"ı":{"ha":292,"x_min":108,"x_max":183,"o":"m 183 0 l 108 0 l 108 734 l 183 734 l 183 0 z "},"ĸ":{"ha":663,"x_min":105,"x_max":618,"o":"m 256 335 l 181 335 l 181 0 l 105 0 l 105 734 l 181 734 l 181 409 l 252 409 l 500 734 l 591 734 l 319 377 l 618 0 l 523 0 l 256 335 z "},"Ł":{"ha":646,"x_min":27,"x_max":600,"o":"m 193 556 l 363 621 l 363 546 l 193 481 l 193 72 l 600 72 l 600 0 l 115 0 l 115 452 l 27 419 l 27 494 l 115 526 l 115 987 l 193 987 l 193 556 z "},"ł":{"ha":331,"x_min":29,"x_max":303,"o":"m 203 584 l 303 631 l 303 555 l 203 508 l 203 0 l 127 0 l 127 473 l 29 428 l 29 504 l 127 549 l 127 1042 l 203 1042 l 203 584 z "},"Ŋ":{"ha":842,"x_min":115,"x_max":730,"o":"m 730 987 l 730 -58 q 684 -235 730 -174 q 554 -296 637 -296 q 521 -293 536 -296 q 490 -283 506 -290 l 496 -213 q 509 -217 501 -215 q 524 -220 516 -218 q 539 -222 532 -222 q 553 -223 547 -223 q 627 -180 601 -223 q 652 -58 652 -137 l 652 0 l 192 838 l 192 0 l 115 0 l 115 987 l 192 987 l 652 151 l 652 987 l 730 987 z "},"ŋ":{"ha":679,"x_min":102,"x_max":575,"o":"m 169 734 l 175 613 q 253 712 205 676 q 370 747 302 747 q 456 730 418 747 q 521 677 494 713 q 561 584 547 640 q 575 448 575 527 l 575 -60 q 529 -236 575 -176 q 400 -296 482 -296 q 365 -293 381 -296 q 330 -283 349 -290 l 338 -212 q 351 -216 343 -214 q 368 -219 359 -218 q 385 -221 376 -220 q 400 -222 394 -222 q 474 -181 448 -222 q 500 -60 500 -139 l 500 447 q 489 557 500 513 q 459 627 479 601 q 412 664 439 653 q 351 675 385 675 q 288 664 316 675 q 238 634 260 653 q 202 589 217 615 q 177 532 187 563 l 177 0 l 102 0 l 102 734 l 169 734 z "},"Œ":{"ha":1121,"x_min":75,"x_max":1040,"o":"m 1040 0 l 558 0 q 474 -10 517 -5 q 383 -14 430 -14 q 258 15 315 -14 q 161 98 201 45 q 97 227 120 152 q 75 391 75 301 l 75 597 q 97 761 75 686 q 160 889 119 836 q 257 971 200 942 q 382 1001 313 1001 q 473 997 429 1001 q 558 987 517 993 l 1036 987 l 1036 914 l 599 914 l 599 545 l 982 545 l 982 473 l 599 473 l 599 72 l 1040 72 l 1040 0 m 383 56 q 454 59 418 56 q 522 66 489 61 l 522 921 q 382 931 456 931 q 286 908 329 931 q 213 843 243 886 q 166 738 182 800 q 150 598 150 676 l 150 391 q 166 252 150 313 q 214 146 183 190 q 287 80 244 103 q 383 56 330 56 z "},"œ":{"ha":1101,"x_min":67,"x_max":1048,"o":"m 67 377 q 86 525 67 457 q 141 642 105 593 q 227 720 176 692 q 340 747 277 747 q 418 735 382 747 q 485 700 454 722 q 538 644 515 677 q 578 571 562 612 q 620 644 595 612 q 673 700 644 677 q 735 735 702 723 q 804 747 768 747 q 908 725 862 747 q 985 661 954 703 q 1032 562 1016 620 q 1048 433 1048 505 l 1048 363 l 618 363 l 618 346 q 632 233 618 286 q 671 141 646 180 q 732 79 696 102 q 814 56 768 56 q 924 78 880 56 q 997 137 968 100 l 1029 79 q 993 43 1014 60 q 946 13 972 26 q 886 -6 919 1 q 814 -14 853 -14 q 739 -1 774 -14 q 673 33 703 11 q 619 88 644 56 q 578 160 595 120 q 484 33 545 80 q 341 -14 424 -14 q 227 14 278 -14 q 141 91 176 41 q 86 208 105 140 q 67 355 67 275 l 67 377 m 143 355 q 156 241 143 295 q 193 146 168 187 q 255 80 218 104 q 341 56 292 56 q 427 80 390 56 q 488 146 463 104 q 525 241 513 187 q 538 355 538 295 l 538 377 q 525 490 538 436 q 488 586 513 545 q 426 652 463 627 q 340 677 389 677 q 255 652 292 677 q 193 586 218 627 q 156 490 168 545 q 143 377 143 436 l 143 355 m 804 677 q 736 658 767 677 q 681 607 705 640 q 642 530 657 574 q 621 434 627 486 l 973 434 l 973 454 q 962 540 973 499 q 929 611 951 581 q 877 659 908 642 q 804 677 845 677 z "},"ſ":{"ha":296,"x_min":108,"x_max":366,"o":"m 108 0 l 108 824 q 155 996 108 937 q 288 1056 203 1056 q 327 1053 307 1056 q 366 1043 347 1049 l 356 977 q 330 983 344 981 q 298 985 317 985 q 213 943 243 985 q 183 824 183 901 l 183 0 l 108 0 z "},"ƒ":{"ha":412,"x_min":-17,"x_max":404,"o":"m 356 666 l 222 666 l 222 -60 q 175 -236 222 -176 q 46 -296 129 -296 q 14 -293 28 -296 q -17 -283 -1 -290 l -9 -215 q 2 -219 -5 -217 q 17 -222 9 -221 q 33 -225 25 -224 q 46 -226 41 -226 q 120 -182 94 -226 q 146 -60 146 -139 l 146 666 l 45 666 l 45 734 l 146 734 l 146 824 q 194 996 146 937 q 326 1056 241 1056 q 365 1053 345 1056 q 404 1043 385 1049 l 395 975 q 367 981 381 979 q 334 983 353 983 q 250 942 279 983 q 222 824 222 901 l 222 734 l 356 734 l 356 666 z "},"Ơ":{"ha":839,"x_min":91,"x_max":838,"o":"m 730 387 q 708 214 730 289 q 645 89 686 139 q 545 12 604 38 q 412 -14 486 -14 q 279 12 338 -14 q 178 89 220 38 q 114 214 136 139 q 91 387 91 289 l 91 600 q 113 772 91 697 q 177 898 136 847 q 278 975 219 949 q 410 1001 337 1001 q 558 968 494 1001 q 665 870 623 935 q 714 890 694 875 q 746 929 734 905 q 763 987 758 954 q 768 1063 768 1021 l 838 1063 q 803 891 838 956 q 695 810 769 827 q 730 600 730 722 l 730 387 m 652 601 q 590 844 652 763 q 410 926 528 926 q 232 844 296 926 q 168 601 168 763 l 168 387 q 233 142 168 224 q 412 60 297 60 q 591 142 530 60 q 652 387 652 223 l 652 601 z "},"ơ":{"ha":682,"x_min":71,"x_max":691,"o":"m 71 404 q 90 551 71 488 q 145 659 110 615 q 230 725 180 703 q 338 747 279 747 q 453 723 402 747 q 539 650 503 699 q 585 666 568 654 q 612 700 602 679 q 625 749 621 720 q 628 812 628 777 l 691 812 q 664 667 691 723 q 570 597 637 612 q 597 510 588 557 q 607 404 607 462 l 607 328 q 588 181 607 245 q 533 74 568 117 q 449 9 498 31 q 340 -14 399 -14 q 230 9 279 -14 q 145 74 180 31 q 90 181 110 117 q 71 328 71 245 l 71 404 m 146 328 q 159 215 146 265 q 197 130 172 165 q 258 75 222 94 q 340 56 294 56 q 425 75 389 56 q 484 130 460 94 q 520 215 508 165 q 532 328 532 265 l 532 404 q 519 516 532 466 q 481 603 506 567 q 420 657 456 638 q 338 677 385 677 q 257 657 293 677 q 197 603 222 638 q 159 516 172 567 q 146 404 146 466 l 146 328 z "},"Ư":{"ha":825,"x_min":103,"x_max":883,"o":"m 690 987 l 690 845 q 752 863 728 848 q 791 903 777 878 q 811 965 805 928 q 817 1047 817 1001 l 883 1047 q 872 936 883 985 q 839 854 862 888 q 779 802 816 821 q 690 780 743 783 l 690 291 q 667 150 690 208 q 604 55 644 92 q 510 3 564 19 q 397 -14 457 -14 q 281 3 334 -14 q 188 55 227 19 q 125 150 148 92 q 103 291 103 208 l 103 987 l 180 987 l 180 291 q 196 182 180 227 q 241 110 212 138 q 310 71 270 83 q 397 58 349 58 q 484 71 444 58 q 552 110 524 83 q 596 182 581 138 q 612 291 612 227 l 612 987 l 690 987 z "},"ư":{"ha":718,"x_min":98,"x_max":726,"o":"m 726 800 q 719 710 726 749 q 693 645 711 671 q 644 603 675 618 q 568 586 614 588 l 568 0 l 495 0 l 494 87 q 417 13 465 40 q 300 -14 370 -14 q 218 2 255 -14 q 154 50 180 17 q 113 136 127 83 q 98 264 98 189 l 98 734 l 173 734 l 173 262 q 184 165 173 204 q 214 102 195 126 q 257 68 233 79 q 310 58 282 58 q 379 68 349 58 q 432 97 410 79 q 469 141 454 115 q 492 197 484 166 l 492 734 l 568 734 l 568 644 q 621 656 602 646 q 650 687 640 667 q 663 734 661 706 q 666 800 666 763 l 726 800 z "},"ȷ":{"ha":298,"x_min":-48,"x_max":190,"o":"m 190 734 l 190 -60 q 144 -236 190 -176 q 15 -296 98 -296 q -17 -293 -2 -296 q -48 -283 -31 -290 l -41 -215 q -14 -222 -31 -219 q 15 -226 3 -226 q 89 -182 63 -226 q 115 -60 115 -139 l 115 734 l 190 734 z "},"ə":{"ha":631,"x_min":66,"x_max":572,"o":"m 301 747 q 410 721 360 747 q 496 646 460 694 q 552 532 532 598 q 572 387 572 466 l 572 351 q 551 203 572 270 q 495 88 530 136 q 412 13 459 39 q 312 -14 365 -14 q 208 9 253 -14 q 131 72 162 31 q 83 171 99 113 q 66 300 66 229 l 66 370 l 497 370 l 497 387 q 484 500 497 448 q 445 593 470 553 q 383 655 419 632 q 301 677 347 677 q 191 655 235 677 q 118 596 148 633 l 87 654 q 123 690 102 673 q 170 720 144 707 q 229 740 197 733 q 301 747 262 747 m 312 56 q 380 75 349 56 q 435 125 411 93 q 474 202 458 158 q 494 299 489 247 l 142 299 l 142 279 q 153 193 142 233 q 186 122 164 152 q 239 74 208 92 q 312 56 271 56 z "},"ˆ":{"ha":538,"x_min":106,"x_max":427,"o":"m 427 860 l 427 853 l 359 853 l 266 977 l 172 853 l 106 853 l 106 861 l 242 1035 l 289 1035 l 427 860 z "},"ˇ":{"ha":511,"x_min":92,"x_max":416,"o":"m 254 901 l 350 1031 l 416 1031 l 416 1023 l 280 846 l 228 846 l 92 1024 l 92 1031 l 159 1031 l 254 901 z "},"˘":{"ha":587,"x_min":94,"x_max":486,"o":"m 486 1010 q 472 940 486 972 q 433 885 458 908 q 372 848 408 861 q 290 836 335 836 q 208 848 244 836 q 146 885 172 861 q 107 940 121 908 q 94 1010 94 972 l 163 1010 q 170 966 163 987 q 191 929 176 945 q 231 904 206 913 q 290 895 255 895 q 348 905 323 895 q 387 930 372 914 q 409 966 402 945 q 416 1010 416 987 l 486 1010 z "},"˙":{"ha":311,"x_min":100,"x_max":212,"o":"m 100 937 q 115 976 100 960 q 156 992 130 992 q 197 976 182 992 q 212 937 212 960 q 197 898 212 913 q 156 882 182 882 q 115 898 130 882 q 100 937 100 913 z "},"˚":{"ha":431,"x_min":79,"x_max":341,"o":"m 79 946 q 90 997 79 973 q 117 1038 100 1021 q 159 1066 135 1056 q 210 1076 182 1076 q 261 1066 237 1076 q 303 1038 286 1056 q 331 997 321 1021 q 341 946 341 973 q 331 896 341 919 q 303 855 321 872 q 261 829 286 838 q 210 819 237 819 q 159 829 182 819 q 117 855 135 838 q 90 896 100 872 q 79 946 79 919 m 132 946 q 137 916 132 930 q 154 891 143 901 q 178 874 164 880 q 210 868 193 868 q 242 874 227 868 q 267 891 256 880 q 284 916 278 901 q 290 946 290 930 q 284 978 290 963 q 267 1004 278 993 q 242 1021 256 1015 q 210 1027 227 1027 q 178 1021 193 1027 q 154 1004 164 1015 q 137 978 143 993 q 132 946 132 963 z "},"˛":{"ha":323,"x_min":47,"x_max":229,"o":"m 215 0 q 178 -36 196 -18 q 145 -74 159 -54 q 122 -114 131 -93 q 114 -158 114 -135 q 124 -198 114 -182 q 161 -215 134 -215 q 197 -208 182 -215 q 221 -193 212 -200 l 229 -251 q 196 -271 216 -261 q 146 -281 176 -281 q 75 -252 102 -281 q 47 -165 47 -223 q 81 -64 47 -115 q 180 26 116 -14 l 215 0 z "},"˜":{"ha":543,"x_min":76,"x_max":463,"o":"m 463 1008 q 454 948 463 975 q 430 902 445 921 q 394 872 414 883 q 350 862 374 862 q 301 873 320 862 q 266 899 281 885 q 233 925 250 913 q 192 937 216 937 q 149 915 166 937 q 131 857 131 894 l 76 859 q 84 918 76 891 q 108 964 93 945 q 144 993 123 983 q 189 1004 165 1004 q 234 992 215 1004 q 271 967 254 981 q 306 941 288 953 q 347 930 323 930 q 390 952 372 930 q 408 1012 408 975 l 463 1008 z "},"˝":{"ha":467,"x_min":79,"x_max":460,"o":"m 371 1041 l 460 1041 l 302 836 l 228 836 l 371 1041 m 191 1041 l 276 1041 l 146 836 l 79 836 l 191 1041 z "},"˳":{"ha":379,"x_min":99,"x_max":277,"o":"m 99 -157 q 106 -118 99 -136 q 126 -87 113 -100 q 155 -66 138 -74 q 189 -59 171 -59 q 223 -66 208 -59 q 252 -87 239 -74 q 271 -118 264 -100 q 277 -157 277 -136 q 271 -195 277 -177 q 252 -225 264 -212 q 223 -244 239 -237 q 189 -252 208 -252 q 155 -244 171 -252 q 126 -225 138 -237 q 106 -195 113 -212 q 99 -157 99 -177 m 142 -157 q 156 -191 142 -177 q 189 -205 170 -205 q 222 -191 209 -205 q 235 -157 235 -178 q 222 -120 235 -135 q 189 -106 209 -106 q 156 -120 170 -106 q 142 -157 142 -135 z "},"̀":{"ha":27,"x_min":-395,"x_max":-256,"o":"m -256 842 l -313 842 l -395 1041 l -317 1041 l -256 842 z "},"́":{"ha":27,"x_min":-332,"x_max":-185,"o":"m -260 1042 l -185 1042 l -279 844 l -332 844 l -260 1042 z "},"̃":{"ha":27,"x_min":-476,"x_max":-90,"o":"m -90 1008 q -98 948 -90 975 q -122 902 -107 921 q -158 872 -138 883 q -202 862 -178 862 q -251 873 -232 862 q -287 899 -271 885 q -319 925 -302 913 q -360 937 -336 937 q -404 915 -386 937 q -421 857 -421 894 l -476 859 q -468 918 -476 891 q -444 964 -459 945 q -408 993 -429 983 q -363 1004 -387 1004 q -318 992 -337 1004 q -281 967 -298 981 q -247 941 -264 953 q -205 930 -229 930 q -162 952 -180 930 q -144 1012 -144 975 l -90 1008 z "},"̉":{"ha":27,"x_min":-363,"x_max":-191,"o":"m -345 837 l -345 922 q -275 940 -297 927 q -253 986 -253 954 q -262 1016 -253 1004 q -288 1036 -272 1028 q -323 1046 -303 1043 q -363 1050 -342 1050 l -359 1103 q -236 1071 -280 1103 q -191 985 -191 1040 q -199 939 -191 958 q -221 908 -208 920 q -252 888 -234 895 q -289 879 -270 882 l -290 837 l -345 837 z "},"̏":{"ha":27,"x_min":-544,"x_max":-157,"o":"m -297 849 l -372 849 l -544 1029 l -449 1029 l -297 849 m -157 849 l -223 849 l -366 1029 l -278 1029 l -157 849 z "},"̣":{"ha":168,"x_min":-456,"x_max":-344,"o":"m -456 -157 q -441 -118 -456 -134 q -400 -102 -426 -102 q -359 -118 -374 -102 q -344 -157 -344 -134 q -359 -196 -344 -180 q -400 -212 -374 -212 q -441 -196 -426 -212 q -456 -157 -456 -180 z "},"΄":{"ha":352,"x_min":135,"x_max":265,"o":"m 185 1077 l 265 1077 l 191 870 l 135 870 l 185 1077 z "},"΅":{"ha":592,"x_min":96,"x_max":491,"o":"m 283 1128 l 366 1128 l 322 958 l 262 958 l 283 1128 m 96 946 q 109 986 96 970 q 146 1002 122 1002 q 183 986 170 1002 q 196 946 196 970 q 183 907 196 923 q 146 892 170 892 q 109 907 122 892 q 96 946 96 923 m 391 945 q 404 985 391 969 q 441 1001 417 1001 q 478 985 465 1001 q 491 945 491 969 q 478 907 491 922 q 441 891 465 891 q 404 907 417 891 q 391 945 391 922 z "},"·":{"ha":317,"x_min":104,"x_max":208,"o":"m 104 486 q 118 527 104 511 q 156 544 132 544 q 194 527 180 544 q 208 486 208 511 q 194 447 208 463 q 156 431 180 431 q 118 447 132 431 q 104 486 104 463 z "},"Γ":{"ha":671,"x_min":118,"x_max":620,"o":"m 620 914 l 195 914 l 195 0 l 118 0 l 118 987 l 620 987 l 620 914 z "},"Δ":{"ha":842,"x_min":37,"x_max":799,"o":"m 460 987 l 799 0 l 37 0 l 388 987 l 460 987 m 143 72 l 694 72 l 423 878 l 143 72 z "},"Θ":{"ha":814,"x_min":84,"x_max":724,"o":"m 564 458 l 252 458 l 252 528 l 564 528 l 564 458 m 724 387 q 702 214 724 289 q 638 89 680 139 q 538 12 597 38 q 405 -14 479 -14 q 273 12 332 -14 q 172 89 214 38 q 107 214 130 139 q 84 387 84 289 l 84 600 q 106 772 84 697 q 171 898 129 847 q 271 975 212 949 q 404 1001 330 1001 q 537 975 477 1001 q 637 898 596 949 q 701 772 679 847 q 724 600 724 697 l 724 387 m 646 601 q 583 844 646 763 q 404 926 521 926 q 225 844 289 926 q 161 601 161 763 l 161 387 q 226 142 161 224 q 405 60 290 60 q 584 142 523 60 q 646 387 646 223 l 646 601 z "},"Λ":{"ha":785,"x_min":50,"x_max":730,"o":"m 390 856 l 134 0 l 50 0 l 353 987 l 427 987 l 730 0 l 646 0 l 390 856 z "},"Ξ":{"ha":682,"x_min":80,"x_max":606,"o":"m 80 72 l 606 72 l 606 0 l 80 0 l 80 72 m 134 534 l 547 534 l 547 461 l 134 461 l 134 534 m 86 987 l 592 987 l 592 915 l 86 915 l 86 987 z "},"Π":{"ha":854,"x_min":120,"x_max":733,"o":"m 733 0 l 656 0 l 656 914 l 197 914 l 197 0 l 120 0 l 120 987 l 733 987 l 733 0 z "},"Σ":{"ha":682,"x_min":50,"x_max":625,"o":"m 420 503 l 144 73 l 625 73 l 625 0 l 50 0 l 50 64 l 339 513 l 50 923 l 50 987 l 595 987 l 595 915 l 149 915 l 420 527 l 420 503 z "},"Φ":{"ha":861,"x_min":62,"x_max":801,"o":"m 471 860 q 605 832 544 860 q 709 756 665 805 q 777 641 753 707 q 801 496 801 574 q 777 350 801 417 q 709 235 753 283 q 605 158 665 186 q 471 130 544 130 l 471 0 l 393 0 l 393 130 l 392 130 q 258 158 319 130 q 154 234 197 185 q 86 349 111 283 q 62 494 62 416 q 86 640 62 572 q 154 755 111 707 q 258 832 197 804 q 392 860 319 860 l 393 860 l 393 987 l 471 987 l 471 860 m 392 787 q 286 766 332 787 q 206 705 239 744 q 157 612 174 666 q 140 494 140 558 q 157 376 140 430 q 206 284 174 323 q 286 224 239 245 q 392 203 332 203 l 393 203 l 393 787 l 392 787 m 471 787 l 471 203 l 472 203 q 578 224 531 203 q 657 285 625 246 q 707 377 690 323 q 724 496 724 431 q 707 613 724 559 q 657 705 690 667 q 578 766 625 744 q 472 787 531 787 l 471 787 z "},"Ψ":{"ha":837,"x_min":80,"x_max":752,"o":"m 452 336 q 542 365 501 342 q 613 426 583 387 q 659 517 642 464 q 675 636 675 570 l 675 987 l 752 987 l 752 636 q 730 484 752 551 q 668 370 707 417 q 573 295 628 322 q 452 263 517 268 l 452 0 l 374 0 l 374 263 q 255 296 309 269 q 162 371 201 323 q 102 485 123 418 q 80 636 80 551 l 80 987 l 157 987 l 157 636 q 173 518 157 571 q 218 427 189 465 q 286 366 246 389 q 374 337 326 343 l 374 987 l 452 987 l 452 336 z "},"Ω":{"ha":793,"x_min":81,"x_max":703,"o":"m 439 82 q 509 128 475 97 q 567 209 542 159 q 607 330 592 259 q 622 494 622 400 l 622 574 q 606 719 622 654 q 560 831 590 785 q 487 903 530 878 q 391 928 444 928 q 296 903 338 928 q 224 831 254 878 q 178 719 194 785 q 162 574 162 654 l 162 494 q 177 329 162 399 q 218 209 193 258 q 278 128 244 159 q 349 82 311 97 l 349 0 l 81 0 l 81 72 l 244 72 q 180 145 210 102 q 129 241 151 188 q 96 358 108 295 q 83 494 83 422 l 83 572 q 106 748 83 669 q 169 883 128 827 q 266 970 209 939 q 391 1001 322 1001 q 517 970 460 1001 q 614 883 574 939 q 677 748 655 827 q 700 572 700 669 l 700 494 q 688 358 700 422 q 654 241 675 294 q 604 145 633 187 q 540 72 574 102 l 703 72 l 703 0 l 439 0 l 439 82 z "},"α":{"ha":684,"x_min":75,"x_max":666,"o":"m 574 734 l 574 186 q 578 125 574 149 q 590 86 583 100 q 607 66 597 72 q 629 60 617 60 q 643 62 636 60 q 656 66 650 64 l 666 2 q 637 -11 651 -8 q 608 -14 623 -14 q 538 15 564 -14 q 503 113 511 44 q 426 19 473 53 q 312 -14 379 -14 q 212 12 256 -14 q 137 85 168 38 q 91 199 107 132 q 75 346 75 265 l 75 360 q 91 518 75 447 q 137 640 107 589 q 212 719 168 691 q 313 747 256 747 q 425 712 379 747 q 501 616 471 677 l 509 734 l 574 734 m 151 346 q 161 230 151 283 q 193 138 172 177 q 248 78 214 100 q 327 56 281 56 q 388 67 361 56 q 435 100 414 79 q 472 149 456 121 q 498 212 487 178 l 498 507 q 472 571 488 541 q 436 626 457 602 q 389 663 416 649 q 328 677 361 677 q 248 652 281 677 q 193 584 214 627 q 161 484 172 541 q 151 360 151 426 l 151 346 z "},"β":{"ha":718,"x_min":113,"x_max":635,"o":"m 353 1001 q 450 982 407 1001 q 524 928 494 962 q 571 845 555 893 q 588 741 588 798 q 558 617 588 673 q 474 530 529 562 q 544 492 513 517 q 594 435 574 468 q 625 361 614 401 q 635 275 635 320 q 616 152 635 205 q 564 62 597 98 q 483 6 530 25 q 379 -14 435 -14 q 328 -9 354 -14 q 277 6 302 -4 q 229 32 252 16 q 188 68 206 47 l 188 -270 l 113 -270 l 113 721 q 132 832 113 781 q 183 921 151 883 q 260 980 216 958 q 353 1001 304 1001 m 351 559 q 425 573 394 559 q 475 610 456 586 q 504 668 495 634 q 513 744 513 702 q 504 812 513 779 q 474 872 494 846 q 424 915 454 899 q 353 930 394 930 q 289 915 319 930 q 236 871 258 899 q 201 805 214 843 q 188 721 188 766 l 188 158 q 262 84 214 112 q 373 56 311 56 q 453 72 418 56 q 512 115 488 87 q 548 183 536 144 q 560 272 560 223 q 549 357 560 317 q 514 426 537 397 q 457 472 491 455 q 380 488 424 488 l 298 488 l 298 559 l 351 559 z "},"γ":{"ha":601,"x_min":39,"x_max":565,"o":"m 488 734 l 565 734 l 340 23 l 340 -281 l 264 -281 l 264 25 l 39 734 l 117 734 l 294 162 l 303 115 l 313 163 l 488 734 z "},"δ":{"ha":679,"x_min":66,"x_max":612,"o":"m 138 873 q 153 949 138 915 q 195 1008 168 983 q 261 1046 222 1033 q 347 1060 300 1060 q 431 1050 392 1060 q 511 1015 471 1040 l 506 944 q 436 975 475 962 q 347 988 397 988 q 294 981 318 988 q 252 959 269 973 q 224 924 234 945 q 214 876 214 903 q 221 833 214 854 q 245 794 228 813 q 292 759 262 776 q 366 728 321 743 q 474 671 428 707 q 551 587 520 635 q 597 483 582 540 q 612 363 612 426 l 612 342 q 593 199 612 264 q 539 87 574 134 q 453 13 503 40 q 340 -14 403 -14 q 226 13 277 -14 q 139 87 175 40 q 85 199 104 134 q 66 342 66 264 l 66 363 q 83 486 66 431 q 127 583 100 542 q 191 651 155 625 q 264 686 227 677 l 264 691 q 168 770 198 722 q 138 873 138 819 m 142 342 q 154 232 142 284 q 192 141 167 180 q 254 79 217 102 q 340 56 291 56 q 425 79 389 56 q 487 141 462 102 q 524 232 511 180 q 536 342 536 284 l 536 363 q 521 465 536 417 q 480 550 506 512 q 420 612 454 587 q 346 646 385 637 q 258 622 296 646 q 194 560 220 599 q 155 470 168 521 q 142 363 142 418 l 142 342 z "},"ε":{"ha":660,"x_min":73,"x_max":583,"o":"m 73 201 q 105 312 73 268 q 201 376 138 356 q 115 443 145 400 q 84 538 84 486 q 101 628 84 589 q 150 693 119 667 q 227 733 182 720 q 327 747 272 747 q 422 732 377 747 q 500 689 467 717 q 553 623 534 662 q 573 535 573 584 l 498 535 q 485 592 498 566 q 449 637 472 618 q 394 666 425 656 q 327 677 363 677 q 252 666 283 677 q 200 636 220 654 q 170 592 180 617 q 160 539 160 567 q 169 486 160 510 q 198 445 178 462 q 249 418 218 428 q 324 409 280 409 l 431 409 l 431 340 l 324 340 q 194 307 239 340 q 150 200 150 273 q 162 142 150 168 q 196 97 174 116 q 251 67 218 77 q 327 56 284 56 q 401 68 368 56 q 458 101 435 81 q 495 150 482 122 q 508 210 508 178 l 583 210 q 561 110 583 153 q 502 40 538 68 q 420 0 466 13 q 327 -14 374 -14 q 225 1 272 -14 q 145 43 178 16 q 92 111 111 71 q 73 201 73 151 z "},"ζ":{"ha":606,"x_min":59,"x_max":545,"o":"m 545 987 l 545 933 l 324 593 q 264 496 289 541 q 223 410 239 452 q 199 328 207 368 q 192 247 192 288 q 200 187 192 213 q 224 142 208 161 q 266 109 240 123 q 326 83 291 94 l 390 62 q 447 41 421 52 q 490 16 472 31 q 517 -20 508 1 q 527 -75 527 -42 q 517 -134 527 -105 q 493 -188 507 -163 q 462 -232 479 -213 q 431 -262 445 -252 l 389 -223 q 413 -196 401 -211 q 434 -163 425 -180 q 449 -126 444 -146 q 454 -85 454 -106 q 432 -37 454 -54 q 364 -5 410 -19 l 313 11 q 223 48 260 27 q 162 96 185 68 q 127 160 138 124 q 117 245 117 197 q 124 323 117 281 q 149 414 132 366 q 195 518 167 463 q 266 633 224 572 l 458 917 l 59 917 l 59 987 l 545 987 z "},"η":{"ha":679,"x_min":102,"x_max":575,"o":"m 172 734 l 176 623 q 255 714 206 682 q 370 747 303 747 q 456 732 418 747 q 521 684 494 718 q 561 596 547 650 q 575 465 575 543 l 575 -281 l 500 -281 l 500 465 q 489 567 500 526 q 459 633 479 608 q 412 667 439 657 q 351 677 385 677 q 286 664 315 677 q 236 630 258 652 q 201 579 215 608 q 178 515 186 549 l 178 0 l 102 0 l 102 734 l 172 734 z "},"θ":{"ha":694,"x_min":90,"x_max":604,"o":"m 604 418 q 586 232 604 313 q 536 97 569 151 q 455 14 503 42 q 347 -14 408 -14 q 240 14 288 -14 q 159 97 193 42 q 108 232 126 151 q 90 418 90 313 l 90 572 q 108 758 90 677 q 159 892 125 838 q 239 974 192 946 q 347 1001 287 1001 q 455 974 407 1001 q 535 892 503 946 q 586 758 568 838 q 604 572 604 677 l 604 418 m 166 526 l 528 526 l 528 583 q 516 728 528 663 q 482 837 505 792 q 425 906 459 882 q 347 930 391 930 q 268 906 302 930 q 212 837 234 882 q 178 728 189 792 q 166 583 166 663 l 166 526 m 528 455 l 166 455 l 166 409 q 178 264 166 329 q 212 153 189 199 q 269 81 235 106 q 347 56 302 56 q 427 81 393 56 q 483 153 460 106 q 516 264 505 199 q 528 409 528 329 l 528 455 z "},"ι":{"ha":382,"x_min":119,"x_max":328,"o":"m 194 734 l 194 185 q 200 124 194 147 q 218 87 207 100 q 242 70 229 75 q 272 66 256 66 q 301 68 287 66 q 326 73 315 71 l 328 3 q 296 -4 316 -1 q 254 -7 275 -7 q 200 2 224 -7 q 157 34 175 12 q 129 93 139 56 q 119 185 119 130 l 119 734 l 194 734 z "},"λ":{"ha":670,"x_min":40,"x_max":631,"o":"m 158 1029 q 216 1016 192 1029 q 256 981 239 1002 q 282 934 272 960 q 300 883 293 908 l 532 159 q 561 89 546 113 q 603 66 576 66 q 615 66 608 66 q 627 68 623 67 l 631 0 q 614 -5 625 -3 q 591 -7 603 -7 q 544 2 564 -7 q 508 30 524 12 q 481 74 493 48 q 458 134 469 100 l 313 593 l 124 0 l 40 0 l 275 710 l 228 853 q 213 898 220 878 q 195 931 205 918 q 172 952 185 945 q 142 959 159 959 q 129 958 138 959 q 115 956 121 958 l 113 1022 q 134 1027 120 1025 q 158 1029 149 1029 z "},"ξ":{"ha":600,"x_min":79,"x_max":541,"o":"m 525 903 q 457 923 492 916 q 385 930 422 930 q 300 918 336 930 q 241 885 264 906 q 207 835 218 863 q 196 774 196 807 q 208 708 196 738 q 243 657 219 678 q 307 625 268 636 q 399 613 345 613 l 475 613 l 475 542 l 399 542 q 300 528 345 542 q 223 485 255 514 q 173 410 191 456 q 155 301 155 364 q 170 209 155 248 q 211 142 184 170 q 273 95 237 114 q 350 63 309 76 l 406 47 q 465 26 439 37 q 507 1 490 16 q 532 -35 524 -14 q 541 -85 541 -55 q 531 -140 541 -113 q 506 -190 521 -167 q 475 -231 492 -213 q 446 -259 459 -249 l 402 -218 q 425 -194 413 -207 q 446 -166 437 -181 q 462 -132 456 -151 q 469 -92 469 -114 q 448 -48 469 -64 q 380 -18 428 -33 l 342 -6 q 237 34 285 11 q 154 92 189 56 q 99 178 119 127 q 79 304 79 230 q 93 401 79 357 q 130 480 106 446 q 189 538 155 514 q 267 577 224 563 q 204 610 232 590 q 158 655 177 630 q 130 710 140 680 q 120 772 120 739 q 139 870 120 827 q 193 942 158 913 q 276 986 227 971 q 385 1001 325 1001 q 466 993 426 1001 q 536 971 505 985 l 525 903 z "},"π":{"ha":722,"x_min":42,"x_max":691,"o":"m 660 663 l 557 663 l 557 185 q 563 124 557 147 q 581 87 570 100 q 605 70 591 75 q 635 66 619 66 q 664 68 650 66 q 689 73 678 71 l 691 3 q 659 -4 679 -1 q 616 -7 638 -7 q 563 2 587 -7 q 520 34 538 12 q 492 93 502 56 q 481 185 481 130 l 481 663 l 219 663 l 219 0 l 144 0 l 144 663 l 42 663 l 42 734 l 660 734 l 660 663 z "},"ρ":{"ha":679,"x_min":102,"x_max":602,"o":"m 602 346 q 586 199 602 265 q 541 85 570 133 q 467 12 511 38 q 367 -14 423 -14 q 256 12 303 -14 q 178 85 210 38 l 178 -282 l 102 -282 l 102 406 l 102 406 l 102 411 q 121 556 102 494 q 175 662 141 619 q 254 726 209 704 q 351 747 299 747 q 459 719 412 747 q 537 640 506 691 q 585 518 569 589 q 602 360 602 447 l 602 346 m 526 360 q 516 484 526 426 q 485 584 506 541 q 430 652 463 627 q 351 677 397 677 q 271 652 304 677 q 217 587 238 627 q 187 499 197 547 q 178 404 178 450 l 178 178 q 204 130 189 152 q 241 91 220 107 q 289 65 262 75 q 349 56 315 56 q 428 78 394 56 q 483 138 461 100 q 516 230 505 177 q 526 346 526 283 l 526 360 z "},"ς":{"ha":652,"x_min":75,"x_max":572,"o":"m 340 747 q 431 730 389 747 q 505 680 473 713 q 554 598 536 647 q 572 484 572 549 l 501 484 q 490 566 501 530 q 457 626 478 602 q 406 664 435 651 q 340 677 376 677 q 256 652 292 677 q 197 587 220 628 q 163 492 174 546 q 152 381 152 439 l 152 353 q 210 166 152 237 q 373 64 267 95 q 434 43 408 54 q 479 16 461 32 q 507 -24 498 -1 q 517 -82 517 -47 q 507 -133 517 -106 q 484 -183 498 -159 q 455 -226 471 -207 q 425 -255 439 -245 l 385 -215 q 407 -190 396 -203 q 426 -162 418 -177 q 439 -129 434 -146 q 444 -90 444 -111 q 439 -58 444 -71 q 424 -36 435 -45 q 395 -19 413 -26 q 351 -5 377 -12 q 236 40 287 11 q 149 114 184 70 q 94 217 113 158 q 75 353 75 277 l 75 381 q 93 525 75 458 q 145 641 111 592 q 228 719 179 690 q 340 747 277 747 z "},"σ":{"ha":677,"x_min":66,"x_max":660,"o":"m 660 663 l 484 663 q 579 541 545 617 q 612 365 612 464 l 612 342 q 593 204 612 269 q 539 91 574 139 q 453 14 503 42 q 340 -14 403 -14 q 226 14 277 -14 q 139 91 175 41 q 85 208 104 140 q 66 355 66 275 l 66 377 q 85 519 66 454 q 139 632 104 585 q 225 707 175 680 q 338 734 276 734 l 660 734 l 660 663 m 141 355 q 154 241 141 295 q 191 146 166 187 q 254 80 216 104 q 340 56 291 56 q 425 80 389 56 q 487 146 462 104 q 525 241 512 187 q 537 355 537 295 l 537 377 q 525 485 537 433 q 487 576 512 537 q 425 639 462 616 q 338 663 387 663 q 253 639 290 663 q 191 576 216 616 q 154 485 166 537 q 141 377 141 433 l 141 355 z "},"τ":{"ha":626,"x_min":58,"x_max":567,"o":"m 567 663 l 341 663 l 341 186 q 347 123 341 148 q 364 84 353 98 q 389 64 374 70 q 420 58 403 58 q 449 62 435 58 q 475 70 463 65 l 492 8 q 448 -9 470 -5 q 404 -14 426 -14 q 344 -3 370 -14 q 301 33 318 8 q 274 96 283 57 q 265 189 265 134 l 265 663 l 58 663 l 58 734 l 567 734 l 567 663 z "},"υ":{"ha":653,"x_min":100,"x_max":571,"o":"m 176 734 l 176 275 q 186 174 176 216 q 214 106 196 132 q 256 68 231 80 q 309 56 281 56 q 392 83 357 56 q 450 154 427 111 q 485 254 473 198 q 496 367 496 309 q 476 560 495 469 q 429 734 458 652 l 510 734 q 533 663 522 701 q 552 581 544 625 q 566 484 561 536 q 571 368 571 431 q 555 219 571 289 q 507 98 539 150 q 426 16 475 46 q 312 -14 377 -14 q 224 3 264 -14 q 158 55 185 20 q 115 145 130 90 q 100 277 100 200 l 100 734 l 176 734 z "},"φ":{"ha":831,"x_min":75,"x_max":758,"o":"m 374 -12 q 237 27 294 -6 q 144 112 180 60 q 92 232 108 163 q 75 376 75 300 q 86 491 75 437 q 116 590 96 545 q 162 671 135 635 q 223 734 189 707 l 263 673 q 215 616 235 649 q 180 544 194 583 q 158 462 165 505 q 151 376 151 419 q 162 267 151 321 q 199 169 173 213 q 268 95 224 125 q 374 58 311 65 l 374 592 q 384 653 374 627 q 411 697 394 680 q 451 725 428 715 q 500 734 474 734 q 601 707 553 734 q 683 631 648 680 q 738 516 718 583 q 758 370 758 449 q 740 231 758 298 q 684 113 722 165 q 588 27 646 61 q 450 -13 530 -6 l 450 -324 l 374 -324 l 374 -12 m 450 58 q 555 94 511 64 q 628 166 600 123 q 669 262 656 209 q 682 369 682 315 q 669 479 682 426 q 633 573 656 532 q 576 638 610 614 q 500 663 543 663 q 464 644 477 663 q 450 595 450 625 l 450 58 z "},"ψ":{"ha":828,"x_min":79,"x_max":755,"o":"m 446 734 l 446 58 q 557 96 513 65 q 629 174 602 127 q 668 276 656 220 q 680 391 680 333 q 656 572 678 486 q 602 734 634 657 l 683 734 q 709 667 696 703 q 732 590 722 632 q 748 499 742 549 q 755 392 755 450 q 738 240 755 311 q 685 115 722 169 q 589 27 648 60 q 446 -12 530 -7 l 446 -301 l 372 -301 l 372 -12 q 251 22 304 -5 q 159 99 197 49 q 100 225 121 150 q 79 402 79 300 l 79 734 l 155 734 l 155 401 q 171 254 155 316 q 216 151 187 192 q 284 87 245 109 q 372 58 324 64 l 372 734 l 446 734 z "},"ω":{"ha":989,"x_min":90,"x_max":898,"o":"m 249 734 q 190 557 213 650 q 165 360 166 464 q 173 245 165 300 q 199 149 181 191 q 245 81 217 106 q 312 56 273 56 q 369 71 342 56 q 415 118 395 85 q 445 200 434 150 q 456 323 456 251 l 456 522 l 532 522 l 532 323 q 543 200 532 251 q 573 118 553 150 q 618 71 592 85 q 676 56 645 56 q 743 81 715 56 q 789 148 771 106 q 815 245 807 190 q 823 360 823 300 q 798 557 822 464 q 739 734 774 650 l 821 734 q 849 661 835 700 q 873 577 863 623 q 891 478 884 532 q 898 361 898 425 q 885 215 898 283 q 846 96 873 147 q 778 16 819 45 q 680 -14 736 -14 q 564 28 612 -14 q 494 155 517 69 q 423 28 471 69 q 308 -14 376 -14 q 210 16 251 -14 q 142 96 168 45 q 103 215 115 147 q 90 361 90 283 q 97 478 90 425 q 114 577 103 532 q 139 661 125 623 q 168 734 153 700 l 249 734 z "},"ϑ":{"ha":698,"x_min":88,"x_max":664,"o":"m 664 456 q 622 442 646 448 q 572 433 597 435 l 572 290 q 555 155 572 212 q 507 60 538 98 q 432 5 476 23 q 333 -14 387 -14 q 234 6 279 -14 q 156 65 189 26 q 106 160 124 104 q 88 290 88 217 l 88 513 l 163 515 l 163 290 q 209 116 163 174 q 333 58 255 58 q 403 71 372 58 q 454 112 433 84 q 486 184 475 140 q 497 290 497 228 l 497 435 q 375 472 428 443 q 285 545 321 500 q 230 647 249 589 q 212 770 212 704 l 212 783 q 225 878 212 836 q 262 949 239 920 q 318 993 286 978 q 387 1008 350 1008 q 465 990 431 1008 q 524 938 500 972 q 560 853 547 903 q 572 741 572 804 l 572 505 q 618 513 596 508 q 659 525 641 519 l 664 456 m 288 768 q 300 677 288 721 q 337 598 312 633 q 402 540 363 564 q 497 508 442 516 l 497 741 q 387 936 497 936 q 348 927 366 936 q 317 900 330 918 q 295 852 303 881 q 288 783 288 823 l 288 768 z "},"ϒ":{"ha":652,"x_min":-12,"x_max":669,"o":"m 463 854 q 492 921 477 895 q 524 964 507 948 q 560 988 541 981 q 604 995 580 995 q 669 977 640 995 l 652 911 q 637 917 648 914 q 615 920 627 920 q 593 917 604 920 q 572 904 583 914 q 550 875 561 894 q 530 825 540 857 l 368 404 l 368 0 l 290 0 l 290 407 l 127 825 q 106 875 117 857 q 85 904 96 894 q 63 917 74 914 q 42 920 53 920 q 19 917 29 920 q 4 911 8 914 l -12 976 q 18 990 1 985 q 53 995 34 995 q 96 988 76 995 q 133 965 115 981 q 165 923 150 949 q 195 855 181 896 l 319 525 l 328 486 l 339 528 l 463 854 z "},"ϖ":{"ha":944,"x_min":47,"x_max":909,"o":"m 909 663 l 815 663 q 850 531 836 604 q 865 361 865 458 q 852 215 865 283 q 815 96 840 147 q 751 16 790 45 q 659 -14 712 -14 q 544 28 591 -14 q 473 155 496 69 q 403 28 450 69 q 288 -14 356 -14 q 195 16 234 -14 q 131 96 157 45 q 94 215 106 147 q 82 361 82 283 q 96 531 82 458 q 132 663 111 604 l 47 663 l 47 734 l 909 734 l 909 663 m 789 360 q 772 517 788 442 q 732 663 757 593 l 214 663 q 174 517 189 593 q 157 360 158 442 q 165 245 157 300 q 189 149 172 191 q 230 81 205 106 q 292 56 256 56 q 349 71 323 56 q 395 118 376 85 q 425 200 414 150 q 435 323 435 251 l 435 506 l 511 506 l 511 323 q 522 200 511 251 q 552 118 533 150 q 597 71 571 85 q 656 56 624 56 q 716 81 691 56 q 758 148 742 106 q 782 245 774 190 q 789 360 789 300 z "},"Ђ":{"ha":897,"x_min":43,"x_max":836,"o":"m 683 914 l 366 914 l 366 556 q 411 574 387 566 q 459 588 435 583 q 506 597 483 594 q 549 601 529 601 q 666 582 613 601 q 756 525 719 564 q 815 427 794 486 q 836 288 836 368 q 819 176 836 229 q 768 82 802 123 q 683 17 734 41 q 560 -7 631 -7 l 559 61 q 649 79 612 61 q 711 129 687 98 q 746 200 735 159 q 758 287 758 241 q 743 393 758 348 q 701 467 728 438 q 635 511 673 496 q 548 525 596 525 q 455 513 500 525 q 366 481 410 502 l 366 0 l 287 0 l 287 914 l 43 914 l 43 987 l 683 987 l 683 914 z "},"Є":{"ha":800,"x_min":88,"x_max":710,"o":"m 710 308 q 681 173 703 233 q 619 72 658 114 q 527 8 581 31 q 403 -14 473 -14 q 274 18 332 -14 q 174 109 216 50 q 111 250 133 168 q 88 432 88 332 l 88 554 q 111 737 88 654 q 175 878 133 819 q 276 969 216 937 q 409 1001 335 1001 q 529 979 476 1001 q 620 916 582 957 q 681 814 658 874 q 710 678 703 754 l 632 678 q 610 784 626 738 q 566 863 593 831 q 500 911 539 895 q 409 928 461 928 q 306 901 351 928 q 230 825 261 874 q 182 708 199 777 q 166 555 166 640 l 166 536 l 508 536 l 508 463 l 166 463 l 166 432 q 181 282 166 351 q 227 164 197 214 q 301 86 257 114 q 403 58 345 58 q 497 74 457 58 q 565 121 537 90 q 609 199 593 152 q 631 308 625 245 l 710 308 z "},"Љ":{"ha":1283,"x_min":42,"x_max":1208,"o":"m 728 987 l 728 576 l 932 576 q 1052 555 1000 576 q 1138 495 1103 533 q 1191 404 1173 456 q 1208 288 1208 351 q 1191 173 1208 226 q 1138 82 1173 120 q 1052 22 1103 43 q 932 0 1000 0 l 650 0 l 650 914 l 338 914 l 330 541 q 311 295 326 397 q 267 127 297 193 q 189 31 237 62 q 66 0 140 0 l 42 0 l 42 72 l 64 72 q 146 94 113 72 q 202 171 180 117 q 236 315 224 224 q 252 541 248 405 l 263 987 l 728 987 m 728 504 l 728 72 l 932 72 q 1023 90 985 72 q 1085 139 1061 109 q 1120 208 1109 169 q 1131 290 1131 248 q 1120 369 1131 330 q 1085 437 1109 408 q 1023 486 1061 467 q 932 504 985 504 l 728 504 z "},"Њ":{"ha":1286,"x_min":119,"x_max":1212,"o":"m 196 534 l 654 534 l 654 987 l 732 987 l 732 562 l 936 562 q 1055 541 1004 562 q 1142 483 1107 520 q 1194 394 1177 446 q 1212 282 1212 343 q 1194 170 1212 221 q 1142 80 1177 118 q 1055 21 1107 43 q 936 0 1004 0 l 654 0 l 654 461 l 196 461 l 196 0 l 119 0 l 119 987 l 196 987 l 196 534 m 732 490 l 732 75 l 936 75 q 1026 92 989 75 q 1088 138 1064 109 q 1123 205 1112 167 q 1135 283 1135 243 q 1123 361 1135 323 q 1088 427 1112 398 q 1026 472 1064 455 q 936 490 989 490 l 732 490 z "},"Ћ":{"ha":967,"x_min":45,"x_max":856,"o":"m 684 914 l 370 914 l 370 551 q 466 576 416 566 q 577 585 516 585 q 695 569 643 585 q 782 516 747 553 q 837 422 818 480 q 856 281 856 364 l 856 0 l 777 0 l 777 281 q 764 389 777 345 q 726 461 751 433 q 664 500 701 488 q 577 513 627 513 q 471 504 522 513 q 370 479 420 494 l 370 0 l 292 0 l 292 914 l 45 914 l 45 987 l 684 987 l 684 914 z "},"Џ":{"ha":852,"x_min":118,"x_max":732,"o":"m 118 987 l 196 987 l 196 72 l 654 72 l 654 987 l 732 987 l 732 0 l 467 0 l 467 -240 l 389 -240 l 389 0 l 118 0 l 118 987 z "},"Б":{"ha":760,"x_min":113,"x_max":671,"o":"m 614 914 l 191 914 l 191 560 l 395 560 q 514 540 463 560 q 601 483 566 519 q 654 395 636 446 q 671 281 671 344 q 653 167 671 219 q 601 78 635 115 q 514 21 566 41 q 395 0 463 0 l 113 0 l 113 987 l 614 987 l 614 914 m 191 487 l 191 72 l 395 72 q 485 89 448 72 q 547 135 523 106 q 582 202 571 164 q 593 283 593 241 q 582 360 593 323 q 547 426 571 397 q 485 470 523 454 q 395 487 448 487 l 191 487 z "},"Д":{"ha":878,"x_min":52,"x_max":827,"o":"m 735 72 l 827 72 l 827 -239 l 749 -239 l 749 0 l 130 0 l 130 -239 l 52 -239 l 52 72 l 109 72 q 132 104 119 83 q 161 157 146 125 q 191 233 176 189 q 219 335 206 277 q 241 466 232 393 q 254 630 250 540 l 269 987 l 735 987 l 735 72 m 332 630 q 315 442 328 528 q 284 285 302 355 q 243 162 266 215 q 195 72 220 109 l 658 72 l 658 914 l 344 914 l 332 630 z "},"Ж":{"ha":1060,"x_min":27,"x_max":1034,"o":"m 664 469 l 571 469 l 571 0 l 493 0 l 493 469 l 398 469 l 125 0 l 27 0 l 330 511 l 47 987 l 141 987 l 394 542 l 493 542 l 493 987 l 571 987 l 571 542 l 667 542 l 920 987 l 1013 987 l 731 512 l 1034 0 l 937 0 l 664 469 z "},"З":{"ha":721,"x_min":64,"x_max":654,"o":"m 357 540 q 452 553 412 540 q 516 592 491 567 q 553 652 541 617 q 564 730 564 687 q 552 808 564 772 q 514 871 540 844 q 449 913 488 898 q 354 928 409 928 q 276 914 312 928 q 212 874 239 900 q 169 811 184 848 q 153 728 153 774 l 76 728 q 98 842 76 791 q 159 928 121 892 q 247 982 197 963 q 354 1001 298 1001 q 473 983 420 1001 q 564 931 526 966 q 622 845 602 897 q 642 727 642 794 q 604 595 642 654 q 494 506 565 536 q 614 420 574 480 q 654 269 654 359 q 632 149 654 201 q 570 60 610 96 q 475 5 530 24 q 354 -14 420 -14 q 249 3 301 -14 q 156 55 197 20 q 89 144 115 90 q 64 274 64 199 l 141 274 q 157 188 141 228 q 200 120 172 149 q 268 74 229 91 q 354 58 307 58 q 449 73 407 58 q 519 115 490 87 q 562 180 547 142 q 577 266 577 219 q 520 419 577 372 q 357 467 464 467 l 258 467 l 258 540 l 357 540 z "},"И":{"ha":856,"x_min":119,"x_max":735,"o":"m 658 987 l 735 987 l 735 0 l 658 0 l 658 841 l 197 0 l 119 0 l 119 987 l 197 987 l 197 147 l 658 987 z "},"Л":{"ha":848,"x_min":37,"x_max":728,"o":"m 728 987 l 728 0 l 650 0 l 650 914 l 311 914 l 296 541 q 279 295 292 397 q 240 127 267 193 q 171 31 214 62 q 62 0 127 0 l 37 0 l 37 72 l 59 72 q 129 94 100 72 q 176 171 158 117 q 205 315 195 224 q 220 541 215 405 l 237 987 l 728 987 z "},"У":{"ha":760,"x_min":47,"x_max":713,"o":"m 394 363 l 623 987 l 713 987 l 401 169 q 373 107 389 140 q 335 48 358 75 q 279 3 313 21 q 199 -14 246 -14 q 169 -12 186 -14 q 144 -7 151 -10 l 151 62 q 160 60 154 61 q 173 59 166 60 q 187 58 180 58 q 199 58 194 58 q 245 69 226 58 q 280 98 265 80 q 306 140 294 117 q 327 189 317 163 l 355 261 l 47 987 l 136 987 l 394 363 z "},"Ф":{"ha":900,"x_min":58,"x_max":846,"o":"m 490 887 l 505 887 q 643 858 580 887 q 750 776 705 828 q 821 652 795 724 q 846 496 846 581 q 821 340 846 412 q 750 216 795 269 q 643 134 705 163 q 505 104 580 104 l 490 104 l 490 -41 l 414 -41 l 414 104 l 399 104 q 261 133 323 104 q 153 215 198 163 q 83 339 108 268 q 58 495 58 411 q 83 651 58 579 q 153 775 108 722 q 261 857 198 827 q 399 887 323 887 l 414 887 l 414 1029 l 490 1029 l 490 887 m 490 817 l 490 174 l 506 174 q 617 198 568 174 q 701 264 667 222 q 752 367 734 307 q 770 496 770 426 q 752 625 770 566 q 701 727 734 684 q 617 793 667 770 q 506 817 568 817 l 490 817 m 399 817 q 286 793 336 817 q 203 726 237 769 q 151 624 169 683 q 133 495 133 565 q 151 366 133 425 q 203 264 169 307 q 286 197 237 221 q 399 174 336 174 l 414 174 l 414 817 l 399 817 z "},"Ц":{"ha":863,"x_min":115,"x_max":811,"o":"m 115 987 l 193 987 l 193 72 l 651 72 l 651 987 l 728 987 l 728 73 l 811 73 l 805 -238 l 734 -238 l 734 0 l 115 0 l 115 987 z "},"Ч":{"ha":808,"x_min":109,"x_max":689,"o":"m 689 987 l 689 0 l 611 0 l 611 447 q 506 419 560 430 q 387 409 452 409 q 269 425 321 409 q 182 478 218 441 q 128 572 146 514 q 109 713 109 629 l 109 987 l 187 987 l 187 713 q 200 604 187 648 q 238 533 213 560 q 300 494 263 506 q 387 481 338 481 q 502 491 446 481 q 611 519 557 501 l 611 987 l 689 987 z "},"Ш":{"ha":1110,"x_min":117,"x_max":994,"o":"m 195 987 l 195 72 l 517 72 l 517 987 l 595 987 l 595 72 l 916 72 l 916 987 l 994 987 l 994 0 l 117 0 l 117 987 l 195 987 z "},"Щ":{"ha":1133,"x_min":117,"x_max":1074,"o":"m 195 987 l 195 72 l 517 72 l 517 987 l 595 987 l 595 72 l 916 72 l 916 987 l 994 987 l 994 71 l 1074 71 l 1068 -238 l 1000 -238 l 1000 0 l 117 0 l 117 987 l 195 987 z "},"Ъ":{"ha":927,"x_min":11,"x_max":838,"o":"m 11 987 l 357 987 l 357 560 l 562 560 q 681 540 629 560 q 768 483 733 519 q 821 395 803 446 q 838 281 838 344 q 820 167 838 219 q 767 78 802 115 q 681 21 732 41 q 562 0 629 0 l 280 0 l 280 917 l 11 917 l 11 987 m 357 487 l 357 72 l 562 72 q 652 89 614 72 q 714 135 690 106 q 749 202 738 164 q 760 283 760 241 q 749 360 760 323 q 714 426 738 397 q 652 470 690 454 q 562 487 614 487 l 357 487 z "},"Ы":{"ha":1008,"x_min":119,"x_max":884,"o":"m 196 560 l 400 560 q 520 540 468 560 q 607 483 572 519 q 659 395 642 446 q 677 281 677 344 q 659 167 677 219 q 606 78 641 115 q 519 21 571 41 q 400 0 468 0 l 119 0 l 119 987 l 196 987 l 196 560 m 196 487 l 196 72 l 400 72 q 491 89 453 72 q 552 135 528 106 q 588 202 576 164 q 599 283 599 241 q 588 360 599 323 q 552 426 576 397 q 491 470 528 454 q 400 487 453 487 l 196 487 m 884 0 l 807 0 l 807 987 l 884 987 l 884 0 z "},"Ь":{"ha":745,"x_min":113,"x_max":671,"o":"m 191 560 l 395 560 q 514 540 463 560 q 601 483 566 519 q 654 395 636 446 q 671 281 671 344 q 653 167 671 219 q 601 78 635 115 q 514 21 566 41 q 395 0 463 0 l 113 0 l 113 987 l 191 987 l 191 560 m 191 487 l 191 72 l 395 72 q 485 89 448 72 q 547 135 523 106 q 582 202 571 164 q 593 283 593 241 q 582 360 593 323 q 547 426 571 397 q 485 470 523 454 q 395 487 448 487 l 191 487 z "},"Э":{"ha":800,"x_min":94,"x_max":715,"o":"m 172 308 q 195 199 179 245 q 239 121 212 152 q 307 74 267 90 q 401 58 347 58 q 503 86 458 58 q 577 164 547 114 q 623 282 607 214 q 638 432 638 351 l 638 460 l 295 460 l 295 532 l 638 532 l 638 555 q 622 708 638 640 q 574 825 605 777 q 497 901 543 874 q 395 928 452 928 q 304 911 343 928 q 238 863 265 895 q 195 784 211 831 q 172 678 178 738 l 94 678 q 124 814 101 754 q 184 916 146 874 q 275 979 222 957 q 395 1001 328 1001 q 528 969 469 1001 q 629 878 587 937 q 693 737 671 819 q 715 554 715 654 l 715 432 q 693 250 715 332 q 630 109 671 168 q 530 18 589 50 q 401 -14 472 -14 q 277 8 332 -14 q 185 72 223 31 q 124 173 146 114 q 94 308 101 233 l 172 308 z "},"Ю":{"ha":1086,"x_min":130,"x_max":999,"o":"m 999 387 q 977 214 999 289 q 913 89 955 139 q 813 12 872 38 q 680 -14 754 -14 q 548 12 607 -14 q 447 89 489 38 q 382 214 405 139 q 359 387 359 289 l 359 464 l 208 464 l 208 0 l 130 0 l 130 987 l 208 987 l 208 534 l 359 534 l 359 600 q 382 772 359 697 q 446 898 404 847 q 547 975 488 949 q 679 1001 606 1001 q 812 975 753 1001 q 913 898 871 949 q 977 772 954 847 q 999 600 999 697 l 999 387 m 921 601 q 859 844 921 763 q 679 926 796 926 q 500 844 564 926 q 437 601 437 763 l 437 387 q 501 142 437 224 q 680 60 566 60 q 860 142 798 60 q 921 387 921 223 l 921 601 z "},"Я":{"ha":746,"x_min":66,"x_max":636,"o":"m 558 0 l 558 401 l 330 401 l 149 0 l 66 0 l 261 426 q 139 526 181 458 q 96 690 96 593 q 116 817 96 762 q 172 910 136 872 q 261 968 209 948 q 380 987 314 987 l 636 987 l 636 0 l 558 0 m 174 690 q 187 603 174 643 q 223 535 199 564 q 282 490 247 506 q 363 474 317 474 l 558 474 l 558 914 l 380 914 q 290 899 329 914 q 226 854 252 884 q 187 784 200 825 q 174 690 174 743 z "},"б":{"ha":669,"x_min":68,"x_max":615,"o":"m 353 686 q 462 661 414 686 q 545 592 511 636 q 597 488 578 549 q 615 357 615 428 l 615 335 q 596 195 615 259 q 542 85 577 132 q 456 13 507 39 q 342 -14 405 -14 q 228 13 279 -14 q 142 85 178 39 q 87 195 106 132 q 68 335 68 259 l 68 357 l 68 362 l 68 406 q 89 617 68 525 q 145 776 109 710 q 232 881 181 842 q 346 932 283 920 q 416 951 387 941 q 464 976 446 962 q 492 1010 483 991 q 500 1053 500 1029 l 564 1053 q 549 968 564 1002 q 506 912 533 934 q 441 879 479 891 q 361 859 404 867 q 283 830 319 851 q 218 772 247 808 q 169 683 189 735 q 140 563 149 631 q 230 652 176 618 q 353 686 284 686 m 341 615 q 256 594 292 615 q 194 537 219 572 q 157 454 170 501 q 144 357 144 408 l 144 335 q 157 228 144 279 q 194 140 170 178 q 256 79 219 102 q 342 56 293 56 q 428 79 391 56 q 490 140 465 102 q 527 228 515 178 q 540 335 540 279 l 540 357 q 527 455 540 408 q 490 537 515 502 q 427 594 465 573 q 341 615 390 615 z "},"в":{"ha":682,"x_min":109,"x_max":606,"o":"m 109 0 l 109 734 l 338 734 q 439 722 394 734 q 517 686 485 710 q 566 625 549 662 q 583 538 583 588 q 554 440 583 483 q 471 377 526 397 q 528 354 503 370 q 570 315 553 338 q 597 263 587 292 q 606 203 606 235 q 590 115 606 153 q 544 51 574 77 q 471 13 513 26 q 376 0 429 0 l 109 0 m 183 337 l 183 69 l 376 69 q 492 104 452 69 q 532 205 532 139 q 492 301 532 266 q 376 337 452 337 l 183 337 m 183 406 l 342 406 q 466 439 425 406 q 507 535 507 471 q 465 632 507 602 q 338 663 422 663 l 183 663 l 183 406 z "},"г":{"ha":518,"x_min":105,"x_max":487,"o":"m 487 663 l 181 663 l 181 0 l 105 0 l 105 734 l 487 734 l 487 663 z "},"д":{"ha":703,"x_min":43,"x_max":648,"o":"m 88 70 q 123 124 104 94 q 157 198 141 153 q 185 308 173 243 q 200 468 197 373 l 210 734 l 581 734 l 581 70 l 648 70 l 648 -216 l 572 -216 l 572 0 l 116 0 l 116 -216 l 43 -216 l 43 70 l 88 70 m 275 468 q 263 331 273 392 q 240 221 254 270 q 209 135 227 172 q 172 70 191 98 l 505 70 l 505 656 l 283 656 l 275 468 z "},"ж":{"ha":922,"x_min":27,"x_max":889,"o":"m 575 338 l 495 338 l 495 0 l 420 0 l 420 338 l 340 338 l 122 0 l 27 0 l 277 378 l 54 734 l 145 734 l 339 412 l 420 412 l 420 734 l 495 734 l 495 412 l 576 412 l 770 734 l 863 734 l 639 377 l 889 0 l 793 0 l 575 338 z "},"з":{"ha":618,"x_min":68,"x_max":545,"o":"m 311 410 q 380 419 352 410 q 425 446 408 429 q 450 486 442 463 q 458 539 458 510 q 450 592 458 567 q 424 636 441 617 q 377 666 406 654 q 308 677 349 677 q 249 666 277 677 q 199 637 220 656 q 166 592 178 618 q 153 535 153 566 l 79 535 q 97 623 79 584 q 148 689 116 662 q 220 732 179 717 q 308 747 262 747 q 402 733 360 747 q 473 693 444 720 q 517 628 502 667 q 533 538 533 589 q 506 443 533 486 q 427 376 479 400 q 515 312 486 356 q 545 201 545 267 q 527 111 545 151 q 479 44 510 71 q 404 2 448 16 q 308 -13 361 -13 q 222 0 265 -13 q 145 41 179 14 q 90 111 111 68 q 68 210 68 153 l 144 210 q 156 150 144 178 q 190 101 168 122 q 242 68 212 81 q 308 56 272 56 q 378 67 348 56 q 428 97 408 77 q 458 142 448 116 q 469 200 469 168 q 430 306 469 273 q 311 338 391 338 l 215 338 l 215 410 l 311 410 z "},"и":{"ha":686,"x_min":106,"x_max":580,"o":"m 505 734 l 580 734 l 580 0 l 505 0 l 505 600 l 181 0 l 106 0 l 106 734 l 181 734 l 181 133 l 505 734 z "},"к":{"ha":636,"x_min":106,"x_max":613,"o":"m 272 335 l 182 335 l 182 0 l 106 0 l 106 734 l 182 734 l 182 409 l 271 409 l 493 734 l 587 734 l 334 379 l 613 0 l 515 0 l 272 335 z "},"л":{"ha":687,"x_min":37,"x_max":581,"o":"m 581 734 l 581 0 l 505 0 l 505 663 l 261 663 l 253 410 q 238 227 249 304 q 207 99 228 150 q 151 24 185 49 q 63 0 116 0 l 37 0 l 39 75 l 60 75 q 111 92 90 75 q 146 148 132 109 q 166 251 159 186 q 177 410 174 315 l 189 734 l 581 734 z "},"м":{"ha":882,"x_min":109,"x_max":776,"o":"m 444 112 l 683 734 l 776 734 l 776 0 l 701 0 l 701 589 l 471 0 l 418 0 l 183 604 l 183 0 l 109 0 l 109 734 l 207 734 l 444 112 z "},"н":{"ha":686,"x_min":106,"x_max":580,"o":"m 580 0 l 505 0 l 505 336 l 182 336 l 182 0 l 106 0 l 106 734 l 182 734 l 182 406 l 505 406 l 505 734 l 580 734 l 580 0 z "},"п":{"ha":686,"x_min":106,"x_max":580,"o":"m 580 0 l 505 0 l 505 663 l 182 663 l 182 0 l 106 0 l 106 734 l 580 734 l 580 0 z "},"т":{"ha":583,"x_min":37,"x_max":546,"o":"m 546 663 l 325 663 l 325 0 l 250 0 l 250 663 l 37 663 l 37 734 l 546 734 l 546 663 z "},"ф":{"ha":873,"x_min":75,"x_max":797,"o":"m 75 360 q 90 518 75 447 q 133 640 104 589 q 202 719 161 691 q 298 747 243 747 q 352 740 328 747 q 396 720 376 733 l 396 1042 l 471 1042 l 471 717 q 516 739 491 731 q 574 747 541 747 q 670 719 628 747 q 740 640 711 691 q 782 518 768 589 q 797 360 797 447 l 797 346 q 782 199 797 265 q 740 85 768 132 q 670 12 711 38 q 575 -14 629 -14 q 517 -7 543 -14 q 471 14 491 1 l 471 -282 l 396 -282 l 396 13 q 352 -7 376 1 q 297 -14 328 -14 q 203 12 244 -14 q 133 85 161 38 q 90 199 104 132 q 75 346 75 265 l 75 360 m 722 360 q 712 484 722 426 q 682 584 703 541 q 631 652 662 627 q 556 677 600 677 q 505 669 526 677 q 471 650 485 662 l 471 79 q 507 63 486 70 q 557 56 528 56 q 631 78 600 56 q 683 138 663 100 q 712 230 703 177 q 722 346 722 283 l 722 360 m 151 346 q 160 230 151 283 q 189 138 170 177 q 239 78 208 100 q 313 56 270 56 q 361 63 341 56 q 396 80 382 70 l 396 652 q 362 670 382 663 q 314 677 342 677 q 240 652 271 677 q 189 584 209 627 q 160 484 170 541 q 151 360 151 426 l 151 346 z "},"ц":{"ha":696,"x_min":106,"x_max":644,"o":"m 106 734 l 182 734 l 182 70 l 505 70 l 505 734 l 580 734 l 580 70 l 644 70 l 638 -218 l 570 -218 l 570 0 l 106 0 l 106 734 z "},"ч":{"ha":650,"x_min":75,"x_max":545,"o":"m 545 0 l 469 0 l 469 305 q 393 281 433 290 q 311 271 353 271 q 211 286 254 271 q 137 332 167 300 q 91 418 106 365 q 75 547 75 471 l 75 734 l 151 734 l 151 547 q 160 449 151 489 q 190 386 170 410 q 240 352 210 362 q 311 342 271 342 q 394 353 354 343 q 469 376 434 362 l 469 734 l 545 734 l 545 0 z "},"ш":{"ha":956,"x_min":106,"x_max":860,"o":"m 182 734 l 182 70 l 446 70 l 446 734 l 522 734 l 522 70 l 785 70 l 785 734 l 860 734 l 860 0 l 106 0 l 106 734 l 182 734 z "},"щ":{"ha":968,"x_min":102,"x_max":933,"o":"m 178 734 l 178 70 l 443 70 l 443 734 l 518 734 l 518 70 l 781 70 l 781 734 l 857 734 l 857 71 l 933 71 l 927 -218 l 859 -218 l 859 0 l 102 0 l 102 734 l 178 734 z "},"ъ":{"ha":760,"x_min":33,"x_max":701,"o":"m 33 734 l 302 734 l 302 468 l 475 468 q 572 450 530 468 q 643 402 614 433 q 687 328 672 371 q 701 235 701 286 q 687 142 701 185 q 643 67 672 99 q 572 18 614 36 q 475 0 530 0 l 227 0 l 227 663 l 33 663 l 33 734 m 302 397 l 302 70 l 475 70 q 544 83 515 70 q 591 120 573 97 q 618 172 610 143 q 626 233 626 201 q 618 293 626 264 q 591 346 610 322 q 544 383 573 369 q 475 397 515 397 l 302 397 z "},"ы":{"ha":909,"x_min":109,"x_max":793,"o":"m 183 468 l 356 468 q 453 450 411 468 q 525 402 496 433 q 568 328 553 371 q 583 235 583 286 q 568 142 583 185 q 525 67 553 99 q 453 18 496 36 q 356 0 411 0 l 109 0 l 109 734 l 183 734 l 183 468 m 183 397 l 183 70 l 356 70 q 426 83 397 70 q 473 120 454 97 q 499 172 491 143 q 507 233 507 201 q 499 293 507 264 q 473 346 491 322 q 426 383 454 369 q 356 397 397 397 l 183 397 m 793 0 l 718 0 l 718 734 l 793 734 l 793 0 z "},"ь":{"ha":653,"x_min":109,"x_max":583,"o":"m 183 468 l 356 468 q 453 450 411 468 q 525 402 496 433 q 568 328 553 371 q 583 235 583 286 q 568 142 583 185 q 525 67 553 99 q 453 18 496 36 q 356 0 411 0 l 109 0 l 109 734 l 183 734 l 183 468 m 183 397 l 183 70 l 356 70 q 426 83 397 70 q 473 120 454 97 q 499 172 491 143 q 507 233 507 201 q 499 293 507 264 q 473 346 491 322 q 426 383 454 369 q 356 397 397 397 l 183 397 z "},"э":{"ha":652,"x_min":75,"x_max":572,"o":"m 309 677 q 250 666 279 677 q 199 633 222 655 q 162 579 176 612 q 149 504 149 547 l 75 504 q 95 603 75 557 q 147 680 115 648 q 222 729 180 711 q 309 747 264 747 q 420 719 371 747 q 503 641 469 690 q 555 525 537 592 q 572 381 572 458 l 572 353 q 555 209 572 275 q 503 92 537 142 q 420 15 469 43 q 309 -14 371 -14 q 217 4 260 -14 q 143 56 175 22 q 94 139 112 90 q 75 248 75 187 l 149 248 q 161 167 149 203 q 196 107 174 132 q 247 69 218 82 q 309 56 276 56 q 390 79 355 56 q 448 140 425 102 q 484 230 471 179 q 497 336 496 280 l 227 336 l 227 406 l 496 406 q 482 510 494 460 q 446 596 469 559 q 389 655 423 633 q 309 677 355 677 z "},"ю":{"ha":977,"x_min":109,"x_max":897,"o":"m 360 330 l 184 330 l 184 0 l 109 0 l 109 734 l 184 734 l 184 401 l 360 401 l 360 404 q 380 551 360 488 q 435 659 399 615 q 519 725 470 703 q 628 747 568 747 q 738 725 688 747 q 823 659 787 703 q 877 551 858 615 q 897 404 897 488 l 897 328 q 877 181 897 245 q 823 74 858 117 q 738 9 787 31 q 629 -14 689 -14 q 519 9 569 -14 q 435 74 470 31 q 380 181 399 117 q 360 328 360 245 l 360 330 m 436 328 q 449 215 436 265 q 487 130 462 165 q 547 75 511 94 q 629 56 583 56 q 714 75 678 56 q 774 130 750 94 q 809 215 798 165 q 821 328 821 265 l 821 404 q 808 516 821 466 q 771 603 795 567 q 710 657 746 638 q 628 677 674 677 q 547 657 583 677 q 487 603 511 638 q 449 516 462 567 q 436 404 436 466 l 436 328 z "},"я":{"ha":662,"x_min":62,"x_max":554,"o":"m 554 734 l 554 0 l 479 0 l 479 295 l 296 295 l 144 0 l 62 0 l 218 306 q 119 383 153 328 q 85 514 85 438 q 100 602 85 562 q 143 671 115 642 q 213 717 172 701 q 309 734 255 734 l 554 734 m 161 513 q 168 458 161 485 q 191 411 176 432 q 232 378 207 391 q 292 366 257 366 l 479 366 l 479 663 l 309 663 q 241 651 269 663 q 196 617 214 638 q 169 569 178 596 q 161 513 161 542 z "},"ђ":{"ha":669,"x_min":-1,"x_max":570,"o":"m 350 837 l 176 837 l 176 618 q 258 712 208 677 q 372 747 308 747 q 455 732 418 747 q 516 685 491 718 q 555 601 542 652 q 569 477 569 550 l 569 295 l 570 295 l 570 -60 q 523 -236 570 -176 q 395 -296 477 -296 q 359 -293 376 -296 q 325 -283 343 -290 l 333 -216 q 346 -219 338 -218 q 362 -223 353 -221 q 380 -225 371 -224 q 395 -226 389 -226 q 468 -183 442 -226 q 494 -60 494 -140 l 494 478 q 485 572 494 534 q 456 633 475 610 q 412 666 438 656 q 353 675 386 675 q 291 662 319 675 q 241 625 263 648 q 202 572 218 602 q 176 509 186 542 l 176 0 l 100 0 l 100 837 l -1 837 l -1 907 l 100 907 l 100 1042 l 176 1042 l 176 907 l 350 907 l 350 837 z "},"є":{"ha":652,"x_min":74,"x_max":578,"o":"m 340 56 q 400 64 371 56 q 452 92 429 73 q 489 145 475 112 q 506 227 504 178 l 578 227 q 556 123 576 168 q 504 48 536 78 q 429 2 471 18 q 340 -14 387 -14 q 141 72 208 -14 q 74 326 74 157 l 74 408 q 141 662 74 576 q 339 747 208 747 q 432 731 389 747 q 507 683 475 715 q 557 602 538 651 q 578 486 576 553 l 506 486 q 490 573 504 537 q 455 633 477 610 q 403 666 433 656 q 339 677 374 677 q 251 659 287 677 q 193 606 215 641 q 160 522 170 572 q 150 408 150 472 l 150 402 l 421 402 l 421 332 l 150 332 l 150 326 q 160 211 150 261 q 192 126 170 161 q 251 74 214 92 q 340 56 287 56 z "},"љ":{"ha":1023,"x_min":35,"x_max":968,"o":"m 568 734 l 568 441 l 741 441 q 839 424 796 441 q 909 378 881 408 q 953 309 938 349 q 968 222 968 269 q 953 134 968 174 q 909 64 938 94 q 839 17 881 34 q 741 0 796 0 l 493 0 l 493 663 l 253 663 l 253 410 q 243 227 253 304 q 210 99 233 150 q 150 24 186 49 q 60 0 113 0 l 35 0 l 36 71 l 58 72 q 111 89 88 72 q 148 146 134 106 q 170 251 163 186 q 178 410 178 315 l 178 734 l 568 734 m 568 370 l 568 69 l 741 69 q 811 82 782 69 q 858 117 840 96 q 884 166 876 139 q 892 223 892 194 q 884 277 892 251 q 858 325 876 304 q 811 358 840 345 q 741 370 782 370 l 568 370 z "},"њ":{"ha":1032,"x_min":106,"x_max":979,"o":"m 182 443 l 505 443 l 505 734 l 580 734 l 580 441 l 753 441 q 850 424 808 441 q 921 378 892 408 q 964 309 949 349 q 979 222 979 269 q 964 134 979 174 q 921 64 949 94 q 850 17 892 34 q 753 0 808 0 l 505 0 l 505 372 l 182 372 l 182 0 l 106 0 l 106 734 l 182 734 l 182 443 m 580 370 l 580 69 l 753 69 q 822 82 793 69 q 869 117 850 96 q 895 166 887 139 q 903 223 903 194 q 895 277 903 251 q 869 325 887 304 q 822 358 850 345 q 753 370 793 370 l 580 370 z "},"ћ":{"ha":680,"x_min":6,"x_max":569,"o":"m 357 845 l 176 845 l 176 618 q 258 712 208 677 q 372 747 308 747 q 455 732 418 747 q 516 685 491 718 q 555 601 542 652 q 569 477 569 550 l 569 0 l 494 0 l 494 478 q 485 572 494 534 q 456 633 475 610 q 412 666 438 656 q 353 675 386 675 q 291 662 319 675 q 241 625 263 648 q 202 572 218 602 q 176 509 186 542 l 176 0 l 100 0 l 100 845 l 6 845 l 6 916 l 100 916 l 100 1042 l 176 1042 l 176 916 l 357 916 l 357 845 z "},"џ":{"ha":686,"x_min":106,"x_max":580,"o":"m 182 734 l 182 70 l 505 70 l 505 734 l 580 734 l 580 0 l 382 0 l 382 -239 l 307 -239 l 307 0 l 106 0 l 106 734 l 182 734 z "},"Ѡ":{"ha":1061,"x_min":109,"x_max":952,"o":"m 952 987 l 952 280 q 935 151 952 206 q 887 59 918 96 q 814 4 857 22 q 723 -14 772 -14 q 607 21 657 -14 q 530 125 557 55 q 451 21 503 55 q 334 -14 399 -14 q 244 4 286 -14 q 173 59 203 22 q 125 151 142 96 q 109 280 109 206 l 109 987 l 187 987 l 187 280 q 198 184 187 225 q 229 115 210 142 q 275 73 248 87 q 334 58 302 58 q 396 73 368 58 q 446 115 425 87 q 478 184 467 142 q 490 280 490 225 l 490 987 l 571 987 l 571 280 q 583 184 571 225 q 614 115 594 142 q 663 73 635 87 q 723 58 690 58 q 783 73 755 58 q 831 115 811 87 q 863 184 852 142 q 875 280 875 225 l 875 987 l 952 987 z "},"ѡ":{"ha":976,"x_min":100,"x_max":866,"o":"m 866 734 l 866 258 q 850 138 866 189 q 806 54 834 87 q 740 3 778 20 q 656 -14 701 -14 q 552 16 597 -14 q 482 109 507 47 q 410 16 456 47 q 304 -14 364 -14 q 223 3 260 -14 q 158 54 185 20 q 115 138 130 87 q 100 258 100 189 l 100 734 l 175 734 l 175 258 q 184 170 175 208 q 211 107 194 132 q 252 68 229 81 q 304 56 276 56 q 361 68 335 56 q 405 107 387 81 q 435 170 424 132 q 446 258 446 208 l 446 734 l 521 734 l 521 258 q 531 170 521 208 q 559 107 541 132 q 602 68 577 81 q 656 56 627 56 q 710 68 685 56 q 752 107 734 81 q 781 170 770 132 q 791 258 791 208 l 791 734 l 866 734 z "},"ѣ":{"ha":652,"x_min":-3,"x_max":582,"o":"m 368 734 l 183 734 l 183 481 l 355 481 q 453 463 410 481 q 524 413 495 445 q 567 337 553 380 q 582 241 582 293 q 567 146 582 190 q 524 69 553 102 q 453 18 495 37 q 355 0 410 0 l 108 0 l 108 734 l -3 734 l -3 804 l 108 804 l 108 1050 l 183 1050 l 183 804 l 368 804 l 368 734 m 183 410 l 183 70 l 355 70 q 425 84 396 70 q 472 122 454 98 q 498 176 490 146 q 507 239 507 207 q 498 301 507 271 q 472 356 490 332 q 425 395 454 380 q 355 410 396 410 l 183 410 z "},"Ѥ":{"ha":1070,"x_min":130,"x_max":971,"o":"m 208 552 l 355 552 l 355 604 q 376 770 355 696 q 439 896 398 844 q 538 974 479 947 q 670 1002 596 1002 q 790 983 737 1002 q 882 924 844 964 q 943 824 921 885 q 971 679 966 763 l 892 679 q 871 794 887 747 q 828 871 856 842 q 762 915 801 901 q 670 928 722 928 q 568 906 612 928 q 494 843 524 884 q 449 741 464 802 q 433 605 433 681 l 433 552 l 731 552 l 731 481 l 433 481 l 433 391 q 448 255 433 316 q 491 150 463 193 q 563 83 520 106 q 664 59 606 59 q 759 72 718 59 q 827 113 800 84 q 871 190 855 142 q 892 309 887 238 l 971 309 q 882 65 960 142 q 664 -13 803 -13 q 535 15 593 -13 q 438 95 478 43 q 376 222 398 147 q 355 391 355 297 l 355 481 l 208 481 l 208 0 l 130 0 l 130 987 l 208 987 l 208 552 z "},"ѥ":{"ha":895,"x_min":106,"x_max":821,"o":"m 182 408 l 316 408 q 383 662 316 576 q 581 747 450 747 q 674 731 631 747 q 749 683 718 715 q 800 602 781 651 q 821 486 819 553 l 748 486 q 732 573 746 537 q 697 633 719 610 q 645 666 675 656 q 581 677 616 677 q 493 659 529 677 q 435 606 457 641 q 402 522 412 572 q 392 408 392 472 l 659 408 l 659 338 l 392 338 l 392 326 q 402 211 392 261 q 434 126 412 161 q 493 74 456 92 q 582 56 529 56 q 642 64 613 56 q 694 92 671 73 q 731 145 717 112 q 748 227 746 178 l 821 227 q 798 123 818 168 q 746 48 779 78 q 671 2 713 18 q 582 -14 629 -14 q 383 72 450 -14 q 316 326 316 157 l 316 338 l 182 338 l 182 0 l 106 0 l 106 734 l 182 734 l 182 408 z "},"Ѧ":{"ha":728,"x_min":35,"x_max":712,"o":"m 536 320 l 408 320 l 408 0 l 332 0 l 332 320 l 212 320 l 115 0 l 35 0 l 338 987 l 412 987 l 712 0 l 631 0 l 536 320 m 234 395 l 513 395 l 374 861 l 234 395 z "},"ѧ":{"ha":644,"x_min":26,"x_max":606,"o":"m 446 234 l 355 234 l 355 0 l 280 0 l 280 234 l 185 234 l 104 0 l 26 0 l 283 734 l 349 734 l 606 0 l 528 0 l 446 234 m 210 304 l 421 304 l 336 547 l 315 629 l 294 547 l 210 304 z "},"Ѩ":{"ha":1052,"x_min":141,"x_max":1013,"o":"m 218 395 l 457 395 l 640 987 l 713 987 l 1013 0 l 932 0 l 837 320 l 709 320 l 709 0 l 633 0 l 633 320 l 513 320 l 416 0 l 336 0 l 435 321 l 218 321 l 218 0 l 141 0 l 141 987 l 218 987 l 218 395 m 535 395 l 814 395 l 675 861 l 535 395 z "},"ѩ":{"ha":906,"x_min":127,"x_max":860,"o":"m 202 304 l 387 304 l 537 734 l 603 734 l 860 0 l 783 0 l 701 234 l 610 234 l 610 0 l 534 0 l 534 234 l 439 234 l 359 0 l 281 0 l 362 234 l 202 234 l 202 0 l 127 0 l 127 734 l 202 734 l 202 304 m 464 304 l 675 304 l 591 547 l 570 629 l 549 547 l 464 304 z "},"Ѫ":{"ha":986,"x_min":102,"x_max":884,"o":"m 576 529 l 626 529 q 735 514 687 529 q 816 467 783 500 q 867 383 849 435 q 884 257 884 331 l 884 0 l 806 0 l 806 257 q 795 352 806 314 q 762 413 785 390 q 706 447 740 437 q 626 456 672 456 l 538 456 l 532 446 l 532 0 l 455 0 l 455 450 l 452 456 l 359 456 q 280 447 314 456 q 224 413 246 437 q 190 352 201 390 q 179 257 179 314 l 179 0 l 102 0 l 102 257 q 119 383 102 331 q 170 467 137 435 q 251 514 203 500 q 359 529 299 529 l 413 529 l 168 987 l 822 987 l 576 529 m 494 529 l 496 529 l 694 914 l 295 914 l 494 529 z "},"ѫ":{"ha":858,"x_min":102,"x_max":754,"o":"m 512 403 q 614 388 569 403 q 690 340 659 373 q 738 256 721 308 q 754 131 754 205 l 754 0 l 679 0 l 679 131 q 669 227 679 188 q 637 289 659 265 q 585 322 616 312 q 510 332 553 332 l 473 332 l 467 322 l 467 0 l 393 0 l 393 327 l 390 332 l 348 332 q 273 322 304 332 q 220 289 241 312 q 189 227 199 265 q 178 131 178 188 l 178 0 l 102 0 l 102 131 q 119 257 102 205 q 168 341 136 309 q 245 388 199 374 q 348 403 291 403 l 351 403 l 166 734 l 696 734 l 512 403 m 429 403 l 433 403 l 572 663 l 290 663 l 429 403 z "},"Ѭ":{"ha":1299,"x_min":130,"x_max":1196,"o":"m 208 530 l 703 530 l 703 529 l 725 529 l 480 987 l 1134 987 l 888 529 l 938 529 q 1047 514 999 529 q 1128 467 1095 500 q 1179 383 1161 435 q 1196 257 1196 331 l 1196 0 l 1118 0 l 1118 257 q 1107 352 1118 314 q 1074 413 1097 390 q 1018 447 1052 437 q 938 456 984 456 l 850 456 l 844 446 l 844 0 l 767 0 l 767 450 l 764 456 l 671 456 q 592 447 626 456 q 536 413 558 437 q 502 352 513 390 q 491 257 491 314 l 491 0 l 414 0 l 414 257 q 429 377 414 328 q 475 460 445 427 l 208 460 l 208 0 l 130 0 l 130 987 l 208 987 l 208 530 m 806 529 l 808 529 l 1006 914 l 607 914 l 806 529 z "},"ѭ":{"ha":1120,"x_min":108,"x_max":1016,"o":"m 364 0 l 364 131 q 379 251 364 201 q 422 333 393 300 l 183 333 l 183 0 l 108 0 l 108 734 l 183 734 l 183 404 l 612 404 l 428 734 l 958 734 l 774 403 q 876 388 831 403 q 951 340 920 373 q 999 256 983 308 q 1016 131 1016 205 l 1016 0 l 941 0 l 941 131 q 930 227 941 188 q 899 289 920 265 q 846 322 878 312 q 772 332 814 332 l 734 332 l 729 322 l 729 0 l 654 0 l 654 327 l 652 332 l 610 332 q 534 322 566 332 q 481 289 503 312 q 450 227 460 265 q 440 131 440 188 l 440 0 l 364 0 m 690 403 l 695 403 l 834 663 l 551 663 l 690 403 z "},"Ѯ":{"ha":628,"x_min":77,"x_max":564,"o":"m 281 987 q 391 970 341 987 q 476 920 441 953 q 532 839 512 887 q 551 728 551 790 q 541 657 551 691 q 512 595 531 624 q 464 544 492 567 q 400 507 436 522 q 523 421 481 481 q 564 269 564 361 q 542 152 564 203 q 482 65 520 100 q 392 12 444 31 q 280 -6 340 -6 l 243 -6 q 170 -30 191 -6 q 148 -92 148 -53 q 158 -138 148 -117 q 182 -174 168 -158 q 214 -201 197 -190 q 244 -218 231 -212 l 216 -279 q 168 -252 193 -269 q 123 -210 144 -234 q 90 -156 103 -186 q 77 -90 77 -125 q 119 24 77 -16 q 245 64 162 64 l 280 64 q 367 78 328 64 q 433 119 406 93 q 474 183 460 146 q 489 266 489 220 q 432 421 489 372 q 269 470 375 470 l 192 470 l 192 541 l 269 541 q 363 555 323 541 q 427 593 402 568 q 464 653 452 618 q 476 730 476 688 q 465 804 476 770 q 429 863 453 838 q 368 903 405 888 q 281 917 332 917 l 100 917 l 100 987 l 281 987 m 335 1166 l 431 1297 l 497 1297 l 497 1289 l 361 1111 l 309 1111 l 173 1289 l 173 1297 l 239 1297 l 335 1166 z "},"ѯ":{"ha":592,"x_min":65,"x_max":513,"o":"m 246 408 q 328 417 294 408 q 384 444 362 427 q 416 486 406 461 q 426 541 426 510 q 416 589 426 566 q 386 627 406 611 q 333 653 365 644 q 259 663 302 663 l 92 663 l 92 734 l 259 734 q 357 721 313 734 q 434 683 401 708 q 484 621 466 658 q 501 538 501 585 q 470 442 501 485 q 381 374 439 399 q 480 312 447 354 q 513 206 513 269 q 494 116 513 156 q 439 50 474 77 q 358 8 405 22 q 258 -6 312 -6 l 233 -6 q 159 -30 180 -6 q 138 -92 138 -53 q 148 -138 138 -117 q 172 -174 157 -158 q 203 -201 186 -190 q 234 -218 220 -212 l 204 -279 q 157 -252 182 -269 q 112 -210 132 -234 q 78 -156 92 -186 q 65 -90 65 -125 q 108 24 65 -16 q 235 64 151 64 l 258 64 q 333 74 300 64 q 390 102 366 83 q 426 146 413 120 q 438 203 438 172 q 389 306 438 274 q 246 337 340 337 l 170 337 l 170 408 l 246 408 m 270 942 l 366 1073 l 432 1073 l 432 1065 l 296 887 l 243 887 l 108 1065 l 108 1073 l 174 1073 l 270 942 z "},"Ѳ":{"ha":814,"x_min":84,"x_max":724,"o":"m 724 387 q 702 214 724 289 q 638 89 680 139 q 538 12 597 38 q 405 -14 479 -14 q 273 12 332 -14 q 172 89 214 38 q 107 214 130 139 q 84 387 84 289 l 84 600 q 106 772 84 697 q 171 898 129 847 q 271 975 212 949 q 404 1001 330 1001 q 537 975 477 1001 q 637 898 596 949 q 701 772 679 847 q 724 600 724 697 l 724 387 m 161 526 l 646 526 l 646 601 q 583 844 646 763 q 404 926 521 926 q 225 844 289 926 q 161 601 161 763 l 161 526 m 646 455 l 161 455 l 161 387 q 226 142 161 224 q 405 60 290 60 q 584 142 523 60 q 646 387 646 223 l 646 455 z "},"ѳ":{"ha":688,"x_min":71,"x_max":607,"o":"m 71 404 q 90 551 71 488 q 145 659 110 615 q 230 725 180 703 q 338 747 279 747 q 448 725 399 747 q 533 659 498 703 q 588 551 568 615 q 607 404 607 488 l 607 328 q 588 181 607 245 q 533 74 568 117 q 449 9 498 31 q 340 -14 399 -14 q 230 9 279 -14 q 145 74 180 31 q 90 181 110 117 q 71 328 71 245 l 71 404 m 340 56 q 425 75 389 56 q 484 130 460 94 q 520 215 508 165 q 532 328 532 265 l 532 333 l 146 333 l 146 328 q 159 215 146 265 q 197 130 172 165 q 258 75 222 94 q 340 56 294 56 m 146 404 l 532 404 l 532 404 q 519 516 532 466 q 481 603 506 567 q 420 657 456 638 q 338 677 385 677 q 257 657 293 677 q 197 603 222 638 q 159 516 172 567 q 146 404 146 466 l 146 404 z "},"Ѵ":{"ha":749,"x_min":28,"x_max":717,"o":"m 328 176 l 345 104 l 363 176 l 532 817 q 562 902 545 867 q 598 959 578 937 q 644 990 618 981 q 699 1000 669 1000 l 717 1000 l 716 926 l 710 926 q 680 922 694 926 q 652 904 666 918 q 627 866 639 891 q 604 801 614 842 l 381 0 l 309 0 l 28 987 l 113 987 l 328 176 z "},"ѵ":{"ha":604,"x_min":39,"x_max":599,"o":"m 265 185 l 286 98 l 307 185 l 415 607 q 469 715 437 683 q 543 747 501 747 q 573 743 559 747 q 599 732 588 739 l 589 666 q 577 671 585 668 q 557 674 568 674 q 538 671 548 674 q 520 659 529 667 q 503 634 511 650 q 488 594 494 618 l 315 0 l 255 0 l 39 734 l 117 734 l 265 185 z "},"Ѻ":{"ha":814,"x_min":84,"x_max":724,"o":"m 445 845 l 370 845 l 370 1080 l 445 1080 l 445 845 m 445 -97 l 370 -97 l 370 142 l 445 142 l 445 -97 m 724 387 q 702 214 724 289 q 638 89 680 139 q 538 12 597 38 q 405 -14 479 -14 q 273 12 332 -14 q 172 89 214 38 q 107 214 130 139 q 84 387 84 289 l 84 600 q 106 772 84 697 q 171 898 129 847 q 271 975 212 949 q 404 1001 330 1001 q 537 975 477 1001 q 637 898 596 949 q 701 772 679 847 q 724 600 724 697 l 724 387 m 646 601 q 583 844 646 763 q 404 926 521 926 q 225 844 289 926 q 161 601 161 763 l 161 387 q 226 142 161 224 q 405 60 290 60 q 584 142 523 60 q 646 387 646 223 l 646 601 z "},"ѻ":{"ha":680,"x_min":71,"x_max":607,"o":"m 378 592 l 302 592 l 302 821 l 378 821 l 378 592 m 378 -90 l 302 -90 l 302 140 l 378 140 l 378 -90 m 71 404 q 90 551 71 488 q 145 659 110 615 q 230 725 180 703 q 338 747 279 747 q 448 725 399 747 q 533 659 498 703 q 588 551 568 615 q 607 404 607 488 l 607 328 q 588 181 607 245 q 533 74 568 117 q 449 9 498 31 q 340 -14 399 -14 q 230 9 279 -14 q 145 74 180 31 q 90 181 110 117 q 71 328 71 245 l 71 404 m 146 328 q 159 215 146 265 q 197 130 172 165 q 258 75 222 94 q 340 56 294 56 q 425 75 389 56 q 484 130 460 94 q 520 215 508 165 q 532 328 532 265 l 532 404 q 519 516 532 466 q 481 603 506 567 q 420 657 456 638 q 338 677 385 677 q 257 657 293 677 q 197 603 222 638 q 159 516 172 567 q 146 404 146 466 l 146 328 z "},"Ѽ":{"ha":1055,"x_min":109,"x_max":950,"o":"m 726 986 q 815 967 774 986 q 886 910 857 948 q 933 814 916 871 q 950 680 950 757 l 950 292 q 933 157 950 215 q 886 62 916 100 q 815 5 857 24 q 726 -14 774 -14 q 609 20 660 -14 q 530 123 557 54 q 451 20 502 54 q 334 -14 399 -14 q 244 5 286 -14 q 173 62 203 24 q 125 157 142 100 q 109 292 109 215 l 109 680 q 125 814 109 757 q 173 910 142 871 q 244 967 203 948 q 334 986 286 986 l 334 913 q 275 899 302 913 q 229 854 248 884 q 198 781 210 825 q 187 680 187 738 l 187 292 q 198 190 187 234 q 229 117 210 146 q 275 73 248 87 q 334 58 302 58 q 396 72 368 58 q 446 114 425 86 q 478 184 467 142 q 490 280 490 225 l 490 597 l 569 597 l 569 280 q 581 184 569 225 q 614 114 593 142 q 664 72 635 86 q 726 58 692 58 q 784 73 758 58 q 831 117 811 87 q 861 190 850 146 q 872 292 872 234 l 872 680 q 861 781 872 738 q 831 854 850 825 q 784 899 811 884 q 726 913 758 913 l 726 986 m 789 1141 l 789 1083 l 770 1083 q 711 1091 737 1083 q 662 1110 684 1099 q 620 1136 639 1122 q 583 1161 601 1149 q 547 1180 565 1173 q 510 1188 529 1188 q 449 1160 470 1188 q 429 1090 429 1133 l 429 1078 l 372 1078 l 372 1099 q 381 1162 372 1134 q 408 1209 391 1190 q 451 1240 426 1229 q 507 1251 475 1251 q 552 1242 532 1251 q 592 1222 572 1234 q 631 1196 612 1210 q 672 1170 650 1182 q 718 1149 693 1158 q 772 1141 743 1141 l 789 1141 m 479 935 q 510 979 499 957 q 520 1032 520 1001 l 520 1098 l 585 1098 l 585 1029 q 578 989 585 1008 q 560 953 571 970 q 536 924 549 937 q 511 903 523 911 l 479 935 z "},"ѽ":{"ha":951,"x_min":92,"x_max":859,"o":"m 654 742 q 735 724 698 742 q 801 671 773 707 q 843 582 828 635 q 859 457 859 528 l 859 271 q 843 145 859 199 q 801 57 828 92 q 735 3 773 21 q 654 -14 698 -14 q 547 16 594 -14 q 475 109 500 47 q 403 16 449 47 q 297 -14 357 -14 q 215 3 253 -14 q 150 57 178 21 q 107 145 123 92 q 92 271 92 199 l 92 457 q 107 582 92 528 q 150 671 123 635 q 215 724 178 707 q 297 742 253 742 l 297 671 q 245 658 269 671 q 204 617 221 644 q 177 550 186 590 q 167 457 167 510 l 167 271 q 177 177 167 218 q 204 110 186 137 q 245 70 221 83 q 297 56 269 56 q 353 68 328 56 q 397 107 378 81 q 427 170 416 132 q 437 258 437 208 l 437 423 l 513 423 l 513 258 q 524 170 513 208 q 553 107 534 132 q 597 68 572 81 q 654 56 623 56 q 705 70 682 56 q 746 110 729 83 q 773 177 764 137 q 783 271 783 218 l 783 457 q 773 550 783 510 q 746 617 764 590 q 705 658 729 644 q 654 671 682 671 l 654 742 m 741 920 l 741 861 l 723 861 q 663 869 690 861 q 613 889 636 877 q 572 914 591 901 q 535 940 553 928 q 499 959 517 951 q 462 967 481 967 q 427 960 442 967 q 401 939 412 952 q 386 908 391 926 q 380 869 380 890 l 380 857 l 325 857 l 325 878 q 334 940 325 912 q 361 988 343 968 q 403 1018 378 1008 q 460 1029 428 1029 q 504 1021 484 1029 q 544 1000 525 1013 q 583 974 564 988 q 624 948 602 960 q 670 928 645 936 q 724 920 694 920 l 741 920 m 427 706 q 457 750 447 728 q 467 803 467 772 l 467 869 l 533 869 l 533 800 q 526 760 533 779 q 508 724 519 741 q 484 694 497 707 q 458 674 471 682 l 427 706 z "},"Ѿ":{"ha":1061,"x_min":109,"x_max":952,"o":"m 315 1151 l 315 1206 l 751 1206 l 751 1151 l 564 1151 l 564 1073 l 494 1073 l 494 1151 l 315 1151 m 952 987 l 952 280 q 935 151 952 206 q 887 59 918 96 q 814 4 857 22 q 723 -14 772 -14 q 607 21 657 -14 q 530 125 557 55 q 451 21 503 55 q 334 -14 399 -14 q 244 4 286 -14 q 173 59 203 22 q 125 151 142 96 q 109 280 109 206 l 109 987 l 187 987 l 187 280 q 198 184 187 225 q 229 115 210 142 q 275 73 248 87 q 334 58 302 58 q 396 73 368 58 q 446 115 425 87 q 478 184 467 142 q 490 280 490 225 l 490 987 l 571 987 l 571 280 q 583 184 571 225 q 614 115 594 142 q 663 73 635 87 q 723 58 690 58 q 783 73 755 58 q 831 115 811 87 q 863 184 852 142 q 875 280 875 225 l 875 987 l 952 987 z "},"ѿ":{"ha":977,"x_min":100,"x_max":866,"o":"m 267 932 l 267 987 l 704 987 l 705 932 l 515 932 l 515 844 l 446 844 l 446 932 l 267 932 m 866 734 l 866 258 q 850 138 866 189 q 806 54 834 87 q 740 3 778 20 q 656 -14 701 -14 q 552 16 597 -14 q 482 109 507 47 q 410 16 456 47 q 304 -14 364 -14 q 223 3 260 -14 q 158 54 185 20 q 115 138 130 87 q 100 258 100 189 l 100 734 l 175 734 l 175 258 q 184 170 175 208 q 211 107 194 132 q 252 68 229 81 q 304 56 276 56 q 361 68 335 56 q 405 107 387 81 q 435 170 424 132 q 446 258 446 208 l 446 734 l 521 734 l 521 258 q 531 170 521 208 q 559 107 541 132 q 602 68 577 81 q 656 56 627 56 q 710 68 685 56 q 752 107 734 81 q 781 170 770 132 q 791 258 791 208 l 791 734 l 866 734 z "},"Ҁ":{"ha":769,"x_min":86,"x_max":696,"o":"m 446 -248 l 368 -248 l 368 -13 q 252 30 304 -6 q 163 126 200 66 q 106 266 126 185 q 86 441 86 346 l 86 553 q 109 734 86 652 q 173 876 132 816 q 273 968 214 935 q 401 1002 331 1002 q 521 980 467 1002 q 613 918 574 959 q 673 816 651 876 q 696 678 694 756 l 618 678 q 558 863 613 798 q 401 928 504 928 q 303 901 347 928 q 229 823 260 873 q 181 705 197 773 q 164 555 164 636 l 164 441 q 180 287 164 357 q 227 165 197 216 q 300 86 257 115 q 397 58 343 58 l 446 58 l 446 -248 z "},"ҁ":{"ha":640,"x_min":75,"x_max":572,"o":"m 385 -248 l 310 -248 l 310 -12 q 210 25 254 -5 q 137 105 167 56 q 91 217 106 153 q 75 353 75 280 l 75 381 q 93 525 75 458 q 145 641 111 592 q 228 719 179 690 q 340 747 277 747 q 431 729 389 747 q 505 677 473 711 q 554 594 536 643 q 572 484 572 545 l 500 484 q 488 566 500 530 q 453 626 475 602 q 402 664 431 651 q 340 677 373 677 q 256 652 292 677 q 197 587 220 628 q 162 492 174 546 q 151 381 151 439 l 151 353 q 162 240 151 294 q 197 145 174 186 q 256 80 220 104 q 340 56 292 56 l 385 56 l 385 -248 z "},"҂":{"ha":742,"x_min":89,"x_max":668,"o":"m 345 294 l 509 177 l 477 111 l 311 227 l 205 0 l 125 0 l 254 270 l 89 386 l 121 451 l 288 335 l 411 601 l 246 717 l 279 783 l 445 667 l 559 910 l 637 910 l 501 625 l 668 509 l 633 444 l 469 559 l 345 294 z "},"҃":{"ha":27,"x_min":-484,"x_max":-121,"o":"m -414 907 l -414 824 l -484 824 l -484 962 l -190 962 l -190 1036 l -121 1035 l -121 907 l -414 907 z "},"҄":{"ha":27,"x_min":-499,"x_max":-81,"o":"m -481 947 q -427 955 -452 947 q -381 975 -402 963 q -340 1001 -359 987 q -301 1027 -321 1015 q -262 1048 -282 1040 q -217 1056 -241 1056 q -160 1045 -185 1056 q -117 1015 -135 1034 q -91 967 -100 995 q -81 905 -81 939 l -81 884 l -138 884 l -138 896 q -159 966 -138 938 q -219 994 -180 994 q -256 986 -238 994 q -292 966 -274 978 q -329 941 -310 955 q -371 916 -348 927 q -420 896 -393 904 q -479 888 -447 888 l -499 888 l -499 947 l -481 947 z "},"҅":{"ha":27,"x_min":-359,"x_max":-241,"o":"m -359 1017 l -359 1107 l -276 1107 l -276 1013 l -241 930 l -276 899 l -359 1017 z "},"҆":{"ha":27,"x_min":-329,"x_max":-211,"o":"m -294 899 l -329 930 l -294 1013 l -295 1107 l -211 1107 l -211 1017 l -294 899 z "},"҈":{"ha":0,"x_min":-594,"x_max":726,"o":"m -86 859 q -76 910 -86 887 q -48 951 -66 934 q -3 977 -30 968 q 56 987 23 987 q 115 977 89 987 q 160 951 142 968 q 189 910 179 934 q 199 859 199 887 l 123 859 q 119 885 123 873 q 107 907 115 897 q 87 922 100 916 q 56 928 74 928 q 25 922 37 928 q 5 907 13 916 q -6 885 -3 897 q -9 859 -9 873 l -86 859 m 314 671 q 324 723 314 699 q 352 763 334 746 q 397 789 371 780 q 456 799 424 799 q 516 789 490 799 q 562 763 543 780 q 590 723 581 746 q 600 671 600 699 l 524 671 q 520 697 524 685 q 509 719 517 709 q 488 734 500 728 q 456 740 475 740 q 426 734 439 740 q 406 719 414 728 q 395 697 398 709 q 391 671 391 685 l 314 671 m 441 330 q 451 381 441 358 q 479 422 460 405 q 524 448 498 439 q 583 458 551 458 q 643 448 616 458 q 688 422 669 439 q 716 381 707 405 q 726 330 726 358 l 650 330 q 647 356 650 344 q 635 378 644 368 q 614 393 627 387 q 583 399 602 399 q 553 393 566 399 q 533 378 541 387 q 521 356 525 368 q 517 330 517 344 l 441 330 m 307 -22 q 317 30 307 6 q 346 70 327 53 q 391 96 364 87 q 450 106 417 106 q 509 96 483 106 q 554 70 536 87 q 583 30 573 53 q 593 -22 593 6 l 517 -22 q 513 4 517 -8 q 502 26 510 16 q 481 41 494 35 q 450 47 468 47 q 419 41 432 47 q 399 26 407 35 q 388 4 391 16 q 384 -22 384 -8 l 307 -22 m -83 -214 q -73 -163 -83 -186 q -45 -123 -63 -140 q 0 -96 -26 -106 q 59 -87 26 -87 q 119 -96 92 -87 q 164 -123 145 -106 q 192 -163 182 -140 q 202 -214 202 -186 l 126 -214 q 122 -189 126 -201 q 111 -167 119 -176 q 90 -152 103 -157 q 59 -146 77 -146 q 29 -152 41 -146 q 8 -167 16 -157 q -3 -189 1 -176 q -6 -214 -6 -201 l -83 -214 m -475 671 q -465 723 -475 699 q -436 763 -455 746 q -391 789 -418 780 q -332 799 -365 799 q -272 789 -298 799 q -227 763 -245 780 q -198 723 -208 746 q -189 671 -189 699 l -264 671 q -268 697 -264 685 q -280 719 -272 709 q -300 734 -288 728 q -332 740 -313 740 q -362 734 -350 740 q -383 719 -375 728 q -394 697 -391 709 q -397 671 -397 685 l -475 671 m -594 330 q -584 381 -594 358 q -556 422 -574 405 q -511 448 -537 439 q -452 458 -484 458 q -392 448 -418 458 q -347 422 -366 439 q -318 381 -328 405 q -309 330 -309 358 l -385 330 q -388 356 -385 344 q -399 378 -391 368 q -420 393 -408 387 q -452 399 -433 399 q -482 393 -469 399 q -502 378 -494 387 q -514 356 -510 368 q -517 330 -517 344 l -594 330 m -481 -22 q -472 30 -481 6 q -443 70 -462 53 q -398 96 -425 87 q -339 106 -372 106 q -279 96 -306 106 q -234 70 -252 87 q -205 30 -215 53 q -195 -22 -195 6 l -272 -22 q -275 4 -272 -8 q -287 26 -279 16 q -308 41 -295 35 q -339 47 -321 47 q -369 41 -357 47 q -390 26 -382 35 q -401 4 -397 16 q -404 -22 -404 -8 l -481 -22 z "},"҉":{"ha":0,"x_min":-566,"x_max":692,"o":"m 130 -41 l 137 -50 l 54 -280 l -10 -280 l 37 -41 l 130 -41 m -2 764 l -10 773 l 72 1002 l 137 1002 l 90 764 l -2 764 m 457 428 l 466 436 l 692 352 l 692 286 l 457 334 l 457 428 m -332 294 l -340 286 l -566 370 l -566 436 l -332 388 l -332 294 m 294 680 l 296 690 l 513 794 l 559 748 l 360 612 l 294 680 m -169 14 l -170 3 l -387 -101 l -434 -54 l -235 81 l -169 14 m -264 583 l -275 585 l -376 806 l -332 852 l -197 650 l -264 583 m 388 109 l 399 108 l 500 -113 l 456 -161 l 322 42 l 388 109 z "},"ҍ":{"ha":652,"x_min":-3,"x_max":582,"o":"m 368 917 l 183 917 l 183 481 l 355 481 q 453 463 410 481 q 524 413 495 445 q 567 337 553 380 q 582 241 582 293 q 567 146 582 190 q 524 69 553 102 q 453 18 495 37 q 355 0 410 0 l 108 0 l 108 917 l -3 917 l -3 987 l 108 987 l 108 1109 l 183 1109 l 183 987 l 368 987 l 368 917 m 183 410 l 183 70 l 355 70 q 425 84 396 70 q 472 122 454 98 q 498 176 490 146 q 507 239 507 207 q 498 301 507 271 q 472 356 490 332 q 425 395 454 380 q 355 410 396 410 l 183 410 z "},"Ҏ":{"ha":766,"x_min":115,"x_max":684,"o":"m 684 378 l 637 332 l 444 589 l 490 636 l 684 378 m 192 401 l 192 0 l 115 0 l 115 987 l 401 987 q 523 966 471 987 q 611 905 576 944 q 665 812 647 866 q 683 692 683 758 q 665 570 683 624 q 611 478 647 515 q 523 421 576 441 q 401 401 471 401 l 192 401 m 192 474 l 401 474 q 494 491 456 474 q 558 536 533 507 q 594 605 583 566 q 606 691 606 645 q 594 777 606 736 q 558 848 583 817 q 494 896 533 878 q 401 914 456 914 l 192 914 l 192 474 z "},"ҏ":{"ha":686,"x_min":100,"x_max":601,"o":"m 595 -16 l 547 -62 l 378 182 l 425 229 l 595 -16 m 601 332 q 585 178 601 243 q 539 71 569 113 q 465 7 509 28 q 366 -14 421 -14 q 252 13 299 -14 q 175 88 205 40 l 175 -282 l 100 -282 l 100 734 l 170 734 l 173 633 q 250 717 203 687 q 363 747 297 747 q 465 728 420 747 q 539 666 509 708 q 585 558 570 624 q 601 401 601 493 l 601 332 m 526 401 q 482 608 526 542 q 345 675 438 675 q 283 665 311 675 q 235 638 256 655 q 200 600 214 621 q 175 553 185 578 l 175 167 q 202 123 186 143 q 239 87 218 102 q 287 64 260 73 q 347 56 313 56 q 482 124 438 56 q 526 332 526 191 l 526 401 z "},"Ґ":{"ha":667,"x_min":113,"x_max":616,"o":"m 616 917 l 614 917 l 614 914 l 190 914 l 190 0 l 113 0 l 113 987 l 541 987 l 541 1227 l 616 1227 l 616 917 z "},"ґ":{"ha":540,"x_min":102,"x_max":486,"o":"m 486 663 l 178 663 l 178 0 l 102 0 l 102 734 l 412 734 l 412 967 l 486 967 l 486 663 z "},"Ҕ":{"ha":707,"x_min":118,"x_max":644,"o":"m 620 914 l 195 914 l 195 562 l 312 562 q 448 538 387 562 q 553 467 509 515 q 620 346 596 419 q 644 174 644 273 q 628 36 644 102 q 579 -81 612 -30 q 497 -162 547 -132 q 382 -192 448 -192 l 381 -124 q 466 -100 431 -124 q 524 -35 501 -76 q 557 60 547 6 q 568 174 568 114 q 550 314 568 255 q 499 412 532 373 q 419 469 467 450 q 312 488 372 488 l 195 488 l 195 0 l 118 0 l 118 987 l 620 987 l 620 914 z "},"ҕ":{"ha":609,"x_min":102,"x_max":550,"o":"m 484 663 l 178 663 l 178 425 l 256 425 q 373 406 319 425 q 466 349 427 387 q 528 251 505 310 q 550 113 550 193 q 546 60 550 89 q 531 2 541 32 q 504 -57 521 -28 q 464 -111 488 -86 q 408 -155 440 -136 q 336 -183 376 -174 l 316 -118 q 393 -81 362 -106 q 441 -25 423 -57 q 467 42 460 6 q 475 113 475 77 q 459 219 476 174 q 413 293 443 264 q 343 337 384 323 q 256 351 303 351 l 178 351 l 178 0 l 102 0 l 102 734 l 484 734 l 484 663 z "},"Ҝ":{"ha":746,"x_min":114,"x_max":722,"o":"m 689 987 l 444 512 l 722 0 l 624 0 l 383 466 l 333 466 l 333 274 l 269 274 l 269 466 l 192 466 l 192 0 l 114 0 l 114 987 l 192 987 l 192 539 l 269 539 l 269 730 l 333 730 l 333 539 l 386 539 l 597 987 l 689 987 z "},"ҝ":{"ha":662,"x_min":105,"x_max":640,"o":"m 612 734 l 415 381 l 640 0 l 541 0 l 357 335 l 318 335 l 318 175 l 254 175 l 254 335 l 181 335 l 181 0 l 105 0 l 105 734 l 181 734 l 181 409 l 254 409 l 254 572 l 318 572 l 318 409 l 357 409 l 519 734 l 612 734 z "},"Ҡ":{"ha":972,"x_min":58,"x_max":956,"o":"m 523 463 l 412 463 l 412 0 l 335 0 l 335 917 l 58 917 l 58 987 l 412 987 l 412 535 l 518 535 l 833 987 l 930 987 l 592 503 l 956 0 l 859 0 l 523 463 z "},"ҡ":{"ha":803,"x_min":44,"x_max":781,"o":"m 439 335 l 349 335 l 349 0 l 273 0 l 273 663 l 44 663 l 44 734 l 349 734 l 349 409 l 438 409 l 661 734 l 754 734 l 501 379 l 781 0 l 682 0 l 439 335 z "},"Ҥ":{"ha":1196,"x_min":115,"x_max":1137,"o":"m 193 545 l 656 545 l 656 987 l 1137 987 l 1137 917 l 734 917 l 734 0 l 656 0 l 656 473 l 193 473 l 193 0 l 115 0 l 115 987 l 193 987 l 193 545 z "},"ҥ":{"ha":869,"x_min":102,"x_max":814,"o":"m 178 406 l 501 406 l 501 734 l 814 734 l 814 663 l 576 663 l 576 0 l 501 0 l 501 336 l 178 336 l 178 0 l 102 0 l 102 734 l 178 734 l 178 406 z "},"Ҧ":{"ha":1217,"x_min":114,"x_max":1149,"o":"m 727 566 l 818 566 q 954 543 893 566 q 1059 472 1015 519 q 1126 351 1102 424 q 1149 179 1149 278 q 1134 41 1149 107 q 1085 -76 1118 -25 q 1003 -157 1053 -127 q 888 -187 954 -187 l 887 -119 q 972 -95 937 -119 q 1030 -30 1007 -71 q 1063 65 1053 11 q 1074 179 1074 119 q 1056 319 1074 260 q 1005 416 1038 378 q 925 474 972 455 q 818 493 878 493 l 727 493 l 727 0 l 650 0 l 650 914 l 191 914 l 191 0 l 114 0 l 114 987 l 727 987 l 727 566 z "},"ҧ":{"ha":1025,"x_min":102,"x_max":971,"o":"m 576 425 l 671 425 q 791 406 736 425 q 886 349 846 387 q 948 251 926 310 q 971 113 971 193 q 967 60 971 89 q 952 2 962 32 q 925 -57 941 -28 q 885 -111 909 -86 q 829 -155 861 -136 q 756 -183 797 -174 l 736 -118 q 812 -81 782 -106 q 861 -25 843 -57 q 887 42 880 6 q 895 113 895 77 q 879 219 896 174 q 832 293 862 264 q 761 337 802 323 q 671 351 720 351 l 576 351 l 576 0 l 501 0 l 501 663 l 178 663 l 178 0 l 102 0 l 102 734 l 576 734 l 576 425 z "},"Ҩ":{"ha":894,"x_min":83,"x_max":831,"o":"m 831 -17 q 715 -5 770 -17 q 614 31 661 7 q 530 -3 575 9 q 434 -14 485 -14 q 288 22 353 -14 q 177 122 222 58 q 107 272 132 186 q 83 458 83 359 l 83 598 q 101 757 83 684 q 154 885 120 831 q 236 971 189 940 q 342 1002 284 1002 l 344 926 q 267 900 301 926 q 210 829 233 874 q 173 725 186 785 q 161 600 161 666 l 161 458 q 180 301 161 374 q 234 175 199 229 q 320 90 270 121 q 434 60 371 60 q 538 78 492 60 q 412 240 456 142 q 367 460 367 338 l 367 632 q 383 777 367 710 q 429 892 399 844 q 500 968 458 941 q 594 996 543 996 q 688 968 646 996 q 760 893 730 941 q 807 778 790 845 q 823 631 823 711 l 823 452 q 786 238 823 333 q 682 80 749 142 q 831 56 749 56 l 831 -17 m 445 458 q 486 258 445 347 q 608 116 528 169 q 667 177 642 142 q 711 256 693 212 q 737 349 728 299 q 746 452 746 398 l 746 633 q 736 748 746 695 q 706 839 726 801 q 658 899 686 878 q 594 921 630 921 q 531 899 559 921 q 484 838 503 876 q 455 746 465 799 q 445 633 445 694 l 445 458 z "},"ҩ":{"ha":722,"x_min":80,"x_max":673,"o":"m 673 -8 q 500 29 576 -8 q 432 -3 469 8 q 355 -14 396 -14 q 242 16 293 -14 q 156 97 192 45 q 100 220 119 149 q 80 374 80 291 l 80 425 q 94 553 80 494 q 134 655 108 612 q 196 723 159 699 q 276 747 232 747 l 276 675 q 228 656 250 675 q 190 604 206 637 q 164 526 174 571 q 155 427 155 480 l 155 374 q 169 250 155 307 q 208 150 182 192 q 271 83 234 107 q 355 58 308 58 q 431 74 396 58 q 335 204 369 126 q 301 380 301 283 l 301 451 q 313 571 301 516 q 348 664 326 625 q 403 725 371 703 q 475 747 435 747 q 547 724 515 747 q 602 658 579 700 q 637 559 625 616 q 650 437 650 503 l 650 367 q 626 207 650 280 q 558 83 602 134 q 673 64 608 64 l 673 -8 m 376 378 q 407 225 376 292 q 492 118 437 159 q 553 224 532 160 q 574 367 574 289 l 574 439 q 568 531 574 488 q 548 606 561 574 q 516 656 535 637 q 475 675 498 675 q 433 658 451 675 q 402 611 414 641 q 383 541 389 582 q 376 452 376 500 l 376 378 z "},"Ҵ":{"ha":1046,"x_min":35,"x_max":956,"o":"m 260 917 l 35 917 l 35 987 l 260 987 l 260 987 l 338 987 l 338 987 l 576 987 l 576 917 l 338 917 l 338 72 l 795 72 l 795 987 l 873 987 l 873 73 l 956 73 l 949 -238 l 878 -238 l 878 0 l 260 0 l 260 917 z "},"ҵ":{"ha":793,"x_min":31,"x_max":736,"o":"m 198 664 l 31 664 l 31 734 l 434 734 l 434 664 l 274 664 l 274 70 l 597 70 l 597 734 l 672 734 l 672 70 l 736 70 l 730 -218 l 662 -218 l 662 0 l 198 0 l 198 664 z "},"Ҹ":{"ha":804,"x_min":109,"x_max":689,"o":"m 445 243 l 382 243 l 382 712 l 445 712 l 445 243 m 689 987 l 689 0 l 611 0 l 611 447 q 506 419 560 430 q 387 409 452 409 q 269 425 321 409 q 182 478 218 441 q 128 572 146 514 q 109 713 109 629 l 109 987 l 187 987 l 187 713 q 200 604 187 648 q 238 533 213 560 q 300 494 263 506 q 387 481 338 481 q 502 491 446 481 q 611 519 557 501 l 611 987 l 689 987 z "},"ҹ":{"ha":669,"x_min":98,"x_max":567,"o":"m 380 160 l 317 160 l 317 541 l 380 541 l 380 160 m 567 0 l 491 0 l 491 305 q 416 281 456 290 q 334 271 376 271 q 233 286 277 271 q 159 332 189 300 q 113 418 129 365 q 98 547 98 471 l 98 734 l 173 734 l 173 547 q 183 449 173 489 q 213 386 193 410 q 263 352 233 362 q 334 342 293 342 q 416 353 376 343 q 491 376 456 362 l 491 734 l 567 734 l 567 0 z "},"Һ":{"ha":804,"x_min":78,"x_max":658,"o":"m 78 0 l 78 987 l 156 987 l 156 540 q 260 568 207 557 q 380 578 314 578 q 497 562 446 578 q 585 510 549 546 q 639 416 621 473 q 658 275 658 358 l 658 0 l 580 0 l 580 275 q 567 383 580 338 q 529 454 554 427 q 467 494 504 481 q 380 506 429 506 q 265 496 320 506 q 156 468 210 486 l 156 0 l 78 0 z "},"Ҽ":{"ha":912,"x_min":37,"x_max":829,"o":"m 557 -14 q 410 16 474 -14 q 302 100 346 46 q 237 229 259 154 q 214 394 214 304 l 214 496 q 82 569 127 508 q 37 730 37 629 l 102 730 q 129 618 102 662 q 214 564 157 575 l 214 584 q 238 752 214 675 q 303 884 262 829 q 400 969 344 939 q 522 1000 456 1000 q 652 970 595 1000 q 749 883 709 939 q 809 747 788 827 q 829 568 829 667 l 829 494 l 292 494 l 292 394 q 308 263 292 324 q 355 156 323 201 q 437 84 387 111 q 557 58 487 58 q 626 65 594 58 q 684 82 657 71 q 734 106 711 92 q 774 137 756 121 l 798 73 q 763 43 784 59 q 713 15 743 28 q 645 -6 684 3 q 557 -14 606 -14 m 292 561 l 752 561 l 752 589 q 739 721 752 660 q 696 828 725 783 q 625 900 668 874 q 522 926 581 926 q 425 900 467 926 q 352 826 382 873 q 308 718 323 780 q 292 584 292 655 l 292 561 z "},"ҽ":{"ha":716,"x_min":5,"x_max":646,"o":"m 413 -14 q 301 6 352 -14 q 213 67 250 26 q 156 171 176 109 q 136 319 136 233 l 136 374 q 38 443 71 390 q 5 579 5 495 l 68 579 q 85 492 68 528 q 137 442 102 457 q 165 581 142 524 q 224 676 188 639 q 305 730 260 713 q 400 747 351 747 q 584 668 521 747 q 646 424 646 588 l 646 360 l 210 360 l 210 319 q 225 202 210 252 q 267 120 240 153 q 332 72 294 87 q 416 56 370 56 q 515 75 473 56 q 592 135 557 94 l 631 85 q 596 47 616 64 q 550 16 576 29 q 489 -6 523 2 q 413 -14 455 -14 m 400 677 q 327 663 360 677 q 268 620 293 650 q 229 544 243 591 q 211 431 214 497 l 571 431 l 571 450 q 559 546 570 504 q 527 617 548 588 q 475 662 507 646 q 400 677 443 677 z "},"Ӄ":{"ha":746,"x_min":114,"x_max":698,"o":"m 192 0 l 114 0 l 114 987 l 192 987 l 192 545 l 287 545 l 595 987 l 687 987 l 374 543 q 507 517 448 541 q 609 446 567 494 q 675 326 652 398 q 698 156 698 254 q 682 19 698 85 q 633 -99 666 -47 q 551 -181 601 -150 q 433 -212 501 -212 l 433 -142 q 518 -117 482 -142 q 576 -52 553 -93 q 609 43 598 -11 q 619 155 619 96 q 602 294 619 235 q 551 392 584 353 q 471 449 518 431 q 366 468 425 468 l 192 468 l 192 0 z "},"ӄ":{"ha":646,"x_min":105,"x_max":587,"o":"m 338 406 q 438 378 393 399 q 517 321 484 357 q 568 231 550 284 q 587 106 587 177 q 582 55 587 83 q 567 -2 578 27 q 541 -60 557 -31 q 500 -113 524 -88 q 445 -155 476 -137 q 372 -182 413 -174 l 352 -118 q 429 -82 398 -106 q 477 -28 459 -58 q 504 37 496 3 q 512 106 511 72 q 496 211 513 168 q 448 282 479 254 q 376 323 418 310 q 287 336 335 336 l 286 336 l 285 335 l 181 335 l 181 0 l 105 0 l 105 734 l 181 734 l 181 409 l 252 409 l 492 734 l 586 734 l 338 406 z "},"Ӈ":{"ha":851,"x_min":119,"x_max":731,"o":"m 196 987 l 196 525 l 653 525 l 653 987 l 731 987 l 731 -58 q 685 -235 731 -174 q 555 -296 638 -296 q 522 -293 537 -296 q 490 -283 507 -290 l 498 -213 q 510 -217 503 -215 q 525 -220 517 -218 q 540 -222 532 -222 q 554 -223 548 -223 q 627 -180 602 -223 q 653 -58 653 -137 l 653 452 l 196 452 l 196 0 l 119 0 l 119 987 l 196 987 z "},"ӈ":{"ha":679,"x_min":102,"x_max":576,"o":"m 178 734 l 178 406 l 500 406 l 500 734 l 576 734 l 576 -60 q 529 -236 576 -176 q 401 -296 483 -296 q 368 -293 383 -296 q 337 -283 353 -290 l 345 -215 q 356 -219 349 -217 q 372 -222 363 -221 q 388 -225 380 -224 q 401 -226 395 -226 q 474 -182 448 -226 q 500 -60 500 -139 l 500 336 l 178 336 l 178 0 l 102 0 l 102 734 l 178 734 z "},"Ә":{"ha":842,"x_min":81,"x_max":760,"o":"m 399 1001 q 553 967 486 1001 q 666 873 621 934 q 736 729 712 812 q 760 545 760 645 l 760 455 q 734 265 760 351 q 663 117 708 179 q 556 21 617 55 q 423 -14 494 -14 q 278 17 342 -14 q 171 103 214 47 q 104 238 127 159 q 81 418 81 318 l 81 501 l 682 501 l 682 545 q 665 693 682 624 q 615 815 649 763 q 527 897 581 867 q 399 927 473 927 q 326 921 359 927 q 264 903 293 914 q 212 878 236 892 q 170 847 189 863 l 146 911 q 183 941 161 925 q 235 970 205 957 q 306 992 266 983 q 399 1001 347 1001 m 423 59 q 529 88 482 59 q 609 167 576 117 q 660 286 642 218 q 681 431 678 353 l 159 431 l 159 396 q 174 264 159 326 q 222 157 190 203 q 305 85 255 111 q 423 59 355 59 z "},"Ӡ":{"ha":700,"x_min":77,"x_max":608,"o":"m 503 914 l 96 914 l 96 987 l 593 987 l 595 922 l 342 568 q 540 489 473 566 q 608 269 608 412 q 588 149 608 201 q 532 60 568 96 q 447 5 496 24 q 340 -14 398 -14 q 245 3 292 -14 q 160 55 197 20 q 100 144 123 90 q 77 274 77 199 l 155 274 q 169 188 155 228 q 206 120 182 149 q 264 74 230 91 q 340 58 298 58 q 421 73 386 58 q 481 115 456 87 q 518 180 505 142 q 530 266 530 219 q 517 373 530 328 q 479 446 505 417 q 417 488 454 474 q 332 501 380 501 l 260 501 l 260 572 l 503 914 z "},"ӡ":{"ha":700,"x_min":77,"x_max":606,"o":"m 498 663 l 96 663 l 96 734 l 591 734 l 593 670 l 344 313 q 454 289 406 310 q 537 231 503 269 q 589 138 571 193 q 606 14 606 84 q 586 -105 606 -53 q 531 -194 566 -157 q 446 -249 495 -230 q 340 -268 397 -268 q 245 -251 292 -268 q 160 -199 198 -234 q 100 -109 123 -163 q 77 20 77 -55 l 153 20 q 167 -66 153 -26 q 205 -135 180 -106 q 263 -181 229 -164 q 340 -197 298 -197 q 421 -182 385 -197 q 481 -140 457 -168 q 519 -74 506 -113 q 532 12 532 -35 q 517 119 532 74 q 476 192 503 163 q 411 234 450 220 q 324 247 372 247 l 260 247 l 260 317 l 498 663 z "},"Ӻ":{"ha":695,"x_min":32,"x_max":643,"o":"m 643 914 l 218 914 l 218 0 l 141 0 l 141 987 l 643 987 l 643 914 m 383 511 l 32 511 l 32 581 l 383 581 l 383 511 m 283 92 l 283 -60 q 237 -236 283 -176 q 108 -296 191 -296 q 76 -293 91 -296 q 45 -283 61 -290 l 52 -212 q 79 -219 62 -216 q 108 -222 96 -222 q 182 -181 156 -222 q 208 -60 208 -139 l 208 92 l 283 92 z "},"ӻ":{"ha":507,"x_min":34,"x_max":514,"o":"m 514 663 l 208 663 l 208 0 l 132 0 l 132 734 l 514 734 l 514 663 m 385 381 l 34 381 l 34 452 l 385 452 l 385 381 m 276 92 l 276 -60 q 230 -236 276 -176 q 101 -296 184 -296 q 69 -293 84 -296 q 38 -283 54 -290 l 45 -212 q 72 -219 55 -216 q 101 -222 90 -222 q 175 -181 149 -222 q 201 -60 201 -139 l 201 92 l 276 92 z "},"Ԁ":{"ha":706,"x_min":58,"x_max":616,"o":"m 537 574 l 537 987 l 616 987 l 616 0 l 334 0 q 214 22 266 0 q 128 82 163 43 q 75 173 93 120 q 58 288 58 226 q 75 403 58 351 q 128 493 93 455 q 214 552 163 531 q 334 574 266 574 l 537 574 m 537 72 l 537 501 l 334 501 q 243 483 281 501 q 181 436 205 465 q 146 368 157 406 q 135 290 135 330 q 146 208 135 248 q 181 139 157 169 q 243 90 205 109 q 334 72 281 72 l 537 72 z "},"Ԃ":{"ha":947,"x_min":58,"x_max":905,"o":"m 334 0 q 215 22 267 0 q 129 82 163 43 q 76 173 94 120 q 58 288 58 226 q 76 403 58 351 q 129 493 94 455 q 215 552 163 531 q 334 574 267 574 l 538 574 l 538 987 l 617 987 l 617 71 l 683 71 q 789 127 753 73 q 827 275 825 182 q 819 391 827 330 q 792 509 810 452 l 867 509 q 894 393 882 452 q 904 275 905 333 q 885 154 903 205 q 837 68 867 102 q 767 17 806 34 q 683 0 727 0 l 334 0 m 538 72 l 538 501 l 334 501 q 244 483 281 501 q 183 436 207 465 q 148 368 159 406 q 136 290 136 330 q 148 208 136 248 q 183 139 159 169 q 244 90 207 109 q 334 72 281 72 l 538 72 z "},"ԃ":{"ha":1029,"x_min":75,"x_max":936,"o":"m 75 360 q 91 518 75 447 q 137 640 107 589 q 212 719 168 691 q 313 747 256 747 q 419 719 374 747 q 494 639 464 690 l 494 1058 l 570 1058 l 570 234 q 599 101 569 146 q 680 56 629 56 q 756 78 723 56 q 812 139 789 100 q 847 234 835 178 q 859 359 859 290 q 850 495 861 427 q 823 631 840 564 l 897 632 q 924 497 912 566 q 935 359 936 429 q 913 194 933 264 q 859 78 893 124 q 779 9 825 32 q 680 -14 732 -14 q 574 16 617 -16 q 511 118 531 47 q 432 21 481 56 q 312 -14 383 -14 q 212 12 256 -14 q 137 85 168 38 q 91 199 107 132 q 75 346 75 265 l 75 360 m 494 549 q 469 597 484 574 q 434 637 454 620 q 387 665 414 654 q 328 675 361 675 q 248 650 281 675 q 193 583 214 626 q 161 483 172 541 q 151 360 151 426 l 151 346 q 161 231 151 283 q 193 139 172 178 q 248 79 214 101 q 327 58 281 58 q 387 67 360 58 q 435 94 414 77 q 471 134 456 111 q 498 185 487 157 q 496 209 496 197 q 494 234 495 220 l 494 549 z "},"Ԅ":{"ha":949,"x_min":43,"x_max":857,"o":"m 427 258 q 416 339 427 302 q 387 401 406 375 q 337 442 367 427 q 269 456 308 456 l 158 456 l 158 529 l 252 529 q 403 579 355 529 q 451 729 451 629 q 439 805 451 771 q 404 864 428 840 q 340 901 379 888 q 248 914 302 914 l 43 914 l 43 987 l 248 987 q 457 922 385 987 q 529 728 529 856 q 490 581 529 643 q 378 490 452 518 q 437 455 413 477 q 476 403 461 433 q 497 337 491 373 q 504 260 504 300 l 504 206 q 511 146 504 174 q 532 99 518 119 q 564 68 545 79 q 607 58 583 58 q 680 83 648 58 q 733 148 711 107 q 766 243 754 189 q 778 359 777 298 q 769 495 779 427 q 741 632 758 564 l 818 632 q 845 497 833 566 q 857 359 857 429 q 836 203 855 272 q 782 85 816 134 q 704 12 749 37 q 606 -14 659 -14 q 533 -3 566 -16 q 478 36 501 9 q 441 105 454 62 q 427 206 429 147 l 427 258 z "},"ԅ":{"ha":779,"x_min":40,"x_max":724,"o":"m 422 144 q 437 78 422 103 q 497 54 453 54 q 561 71 533 54 q 607 116 588 87 q 636 188 626 146 q 647 284 646 231 q 638 392 648 337 q 608 500 628 448 l 684 500 q 711 393 699 448 q 722 284 724 339 q 703 151 721 208 q 653 58 684 95 q 582 3 623 21 q 497 -16 542 -16 q 434 -8 461 -17 q 388 19 406 0 q 359 70 369 39 q 347 145 349 101 l 347 199 q 312 291 347 259 q 210 323 277 323 l 90 323 l 88 392 l 203 392 q 269 402 241 392 q 315 429 296 412 q 342 470 333 446 q 351 521 351 493 q 341 578 351 551 q 312 624 332 604 q 262 654 292 643 q 193 665 232 665 l 43 665 l 40 734 l 193 734 q 293 719 249 734 q 367 677 336 705 q 412 611 397 650 q 428 524 428 572 q 400 426 428 468 q 319 361 372 385 q 368 336 348 351 q 399 299 387 320 q 417 254 412 279 q 422 200 422 229 l 422 144 l 422 144 z "},"Ԇ":{"ha":650,"x_min":68,"x_max":589,"o":"m 125 446 l 125 516 l 219 516 q 317 531 277 516 q 382 573 357 547 q 418 636 407 600 q 429 715 429 673 q 417 800 429 762 q 381 863 406 838 q 318 903 356 889 q 229 917 280 917 l 68 917 l 68 987 l 229 987 q 433 918 362 987 q 504 714 504 850 q 467 575 504 637 q 358 483 430 513 q 427 449 399 471 q 471 397 454 427 q 495 331 488 368 q 503 252 503 294 l 503 159 q 511 79 503 116 q 543 16 520 41 l 543 -1 l 465 -1 q 446 33 454 14 q 435 75 439 53 q 429 119 431 96 q 427 160 427 141 l 427 250 q 415 331 427 295 q 380 393 404 368 q 324 432 357 418 q 248 446 290 446 l 125 446 m 589 10 q 582 -51 589 -20 q 564 -110 576 -81 q 534 -163 551 -138 q 494 -208 516 -188 l 446 -172 q 493 -87 477 -130 q 509 9 509 -45 l 509 106 l 589 106 l 589 10 z "},"ԇ":{"ha":612,"x_min":79,"x_max":559,"o":"m 126 317 l 126 387 l 252 387 q 325 396 294 387 q 373 422 355 405 q 400 465 392 439 q 409 522 409 490 q 400 581 409 555 q 373 626 392 608 q 325 654 355 644 q 252 664 294 664 l 79 664 l 80 734 l 252 734 q 425 680 364 734 q 485 524 485 626 q 458 421 485 465 q 374 355 431 378 q 426 329 405 345 q 460 290 447 313 q 478 241 473 268 q 484 183 484 214 l 484 117 q 489 60 484 88 q 509 14 494 31 l 509 0 l 431 0 q 418 26 422 9 q 412 60 414 42 q 409 93 410 77 q 409 117 409 109 l 409 182 q 373 281 409 245 q 270 317 338 317 l 126 317 m 559 15 q 553 -46 559 -16 q 534 -105 547 -77 q 505 -158 522 -133 q 465 -203 487 -183 l 416 -168 q 464 -83 448 -125 q 480 14 480 -40 l 480 111 l 559 111 l 559 15 z "},"Ԉ":{"ha":1156,"x_min":52,"x_max":1083,"o":"m 640 914 l 327 914 l 327 521 q 314 291 327 389 q 271 129 300 193 q 195 32 242 64 q 81 0 149 0 l 52 0 l 52 72 l 75 72 q 154 97 121 72 q 208 177 187 123 q 239 316 229 231 q 249 521 249 401 l 249 987 l 718 987 l 718 234 q 747 102 718 147 q 827 58 777 58 q 902 80 869 58 q 958 140 935 101 q 992 234 980 179 q 1004 359 1004 290 q 995 495 1005 427 q 968 631 985 564 l 1044 632 q 1071 497 1059 566 q 1082 359 1083 429 q 1060 194 1080 264 q 1006 78 1040 124 q 925 9 971 32 q 827 -14 880 -14 q 751 -2 785 -16 q 693 42 718 12 q 656 120 669 73 q 640 234 642 168 l 640 914 z "},"ԉ":{"ha":966,"x_min":44,"x_max":902,"o":"m 565 734 l 565 234 q 593 101 564 146 q 670 56 621 56 q 736 75 707 56 q 784 126 764 93 q 814 208 804 160 q 825 315 825 256 q 817 444 827 379 q 789 573 806 509 l 862 574 q 877 510 869 542 q 890 446 884 478 q 899 380 895 413 q 901 315 902 347 q 881 170 900 231 q 831 67 863 108 q 759 6 800 26 q 670 -14 718 -14 q 597 -2 629 -16 q 542 42 565 12 q 505 120 518 73 q 490 234 492 168 l 490 663 l 265 663 l 265 422 q 255 238 265 317 q 222 106 245 159 q 163 27 199 54 q 77 0 127 0 l 44 0 l 45 75 l 70 75 q 162 158 134 75 q 191 422 191 241 l 191 734 l 565 734 z "},"Ԋ":{"ha":1168,"x_min":119,"x_max":1065,"o":"m 699 987 l 699 234 q 727 102 698 147 q 808 58 757 58 q 883 80 850 58 q 938 140 916 101 q 972 234 960 179 q 985 359 984 290 q 976 495 986 427 q 948 631 965 564 l 1024 632 q 1052 497 1040 566 q 1063 359 1065 429 q 1041 194 1062 264 q 986 78 1021 124 q 906 9 952 32 q 808 -14 860 -14 q 732 -2 766 -16 q 674 42 698 12 q 636 120 650 73 q 621 234 623 168 l 621 452 l 197 452 l 197 0 l 119 0 l 119 987 l 197 987 l 197 524 l 621 524 l 621 987 l 699 987 z "},"ԋ":{"ha":991,"x_min":98,"x_max":908,"o":"m 496 332 l 174 332 l 174 0 l 98 0 l 98 734 l 174 734 l 174 401 l 496 401 l 496 734 l 571 734 l 571 234 q 599 101 570 146 q 676 56 627 56 q 742 75 713 56 q 790 126 770 93 q 820 208 810 160 q 831 315 831 256 q 822 444 833 379 q 795 573 812 509 l 868 574 q 883 510 876 542 q 896 446 890 478 q 905 380 901 413 q 907 315 908 347 q 887 170 906 231 q 838 67 869 108 q 765 6 806 26 q 676 -14 724 -14 q 603 -2 635 -16 q 548 42 571 12 q 511 120 524 73 q 496 234 498 168 l 496 332 z "},"Ԍ":{"ha":748,"x_min":89,"x_max":682,"o":"m 409 -14 q 279 18 338 -14 q 177 105 220 50 q 112 238 135 161 q 89 405 89 315 l 89 583 q 112 749 89 673 q 177 882 135 826 q 279 970 220 938 q 409 1002 338 1002 q 519 988 472 1002 q 603 949 566 975 l 578 882 q 500 917 541 905 q 409 928 459 928 q 307 901 352 928 q 231 827 262 874 q 183 718 199 781 q 167 584 167 655 l 167 405 q 183 270 167 333 q 231 160 199 207 q 307 85 262 113 q 409 58 352 58 q 491 75 456 58 q 552 121 527 91 q 589 193 576 151 q 604 288 602 235 q 596 411 604 349 q 575 533 588 473 l 651 533 q 672 412 662 473 q 681 288 682 350 q 657 155 680 212 q 597 61 635 98 q 511 4 560 23 q 409 -14 463 -14 z "},"ԍ":{"ha":625,"x_min":79,"x_max":563,"o":"m 350 56 q 415 68 389 56 q 457 99 441 79 q 480 145 473 119 q 488 204 487 172 q 484 284 488 243 q 474 364 481 326 l 547 364 q 558 284 553 325 q 562 204 563 244 q 545 107 561 149 q 500 39 528 66 q 434 -1 472 12 q 350 -14 395 -14 q 234 16 285 -14 q 149 96 184 45 q 97 213 115 146 q 79 353 79 279 l 79 381 q 96 521 79 454 q 146 637 113 587 q 227 718 179 688 q 338 747 275 747 q 494 705 444 747 l 473 639 q 412 667 447 657 q 338 677 378 677 q 254 651 289 677 q 197 582 219 625 q 164 487 175 540 q 154 381 154 434 l 154 353 q 165 245 154 298 q 201 150 177 193 q 262 82 225 108 q 350 56 299 56 z "},"Ԏ":{"ha":852,"x_min":33,"x_max":764,"o":"m 321 914 l 33 914 l 33 987 l 689 987 l 689 914 l 399 914 l 399 234 q 428 102 398 147 q 509 58 458 58 q 583 80 551 58 q 638 140 616 101 q 672 234 661 179 q 686 359 684 290 q 676 495 686 427 q 648 631 666 564 l 724 632 q 752 497 740 566 q 762 359 764 429 q 741 194 761 264 q 686 78 721 124 q 606 9 652 32 q 509 -14 560 -14 q 433 -2 467 -16 q 375 42 399 12 q 337 120 351 73 q 321 234 323 168 l 321 914 z "},"ԏ":{"ha":772,"x_min":52,"x_max":688,"o":"m 269 664 l 52 664 l 52 734 l 568 734 l 568 664 l 345 664 l 345 234 q 374 101 345 146 q 456 56 404 56 q 522 73 493 56 q 570 121 550 90 q 600 197 589 153 q 611 296 610 241 q 602 416 612 355 q 574 536 591 476 l 648 536 q 663 477 655 507 q 675 417 670 447 q 684 356 681 387 q 687 296 688 326 q 667 159 686 217 q 617 62 648 101 q 544 5 586 24 q 456 -14 503 -14 q 380 -2 414 -16 q 323 42 347 12 q 286 120 299 73 q 269 234 272 168 l 269 664 z "},"Ԑ":{"ha":800,"x_min":96,"x_max":730,"o":"m 416 467 q 236 419 298 467 q 174 266 174 372 q 191 181 174 219 q 238 115 207 142 q 315 73 269 88 q 420 58 361 58 q 515 75 472 58 q 588 120 557 91 q 635 189 618 149 q 652 274 652 228 l 730 274 q 703 144 730 199 q 632 55 675 90 q 532 3 588 20 q 420 -14 477 -14 q 290 5 349 -14 q 188 60 231 24 q 120 149 144 96 q 96 269 96 201 q 139 420 96 359 q 269 506 182 480 q 150 595 191 536 q 109 727 109 654 q 131 846 109 794 q 193 932 153 897 q 292 984 234 966 q 420 1002 349 1002 q 535 983 481 1002 q 630 928 589 964 q 694 842 671 892 q 718 728 718 791 l 641 728 q 624 811 641 774 q 576 874 606 848 q 506 914 547 900 q 420 928 466 928 q 315 913 359 928 q 243 871 271 898 q 201 808 214 844 q 187 730 187 772 q 200 652 187 687 q 241 592 213 617 q 312 553 269 567 q 416 540 355 540 l 522 540 l 522 467 l 416 467 z "}," ":{"ha":622,"x_min":0,"x_max":0,"o":""}," ":{"ha":1217,"x_min":0,"x_max":0,"o":""}," ":{"ha":622,"x_min":0,"x_max":0,"o":""}," ":{"ha":1217,"x_min":0,"x_max":0,"o":""}," ":{"ha":424,"x_min":0,"x_max":0,"o":""}," ":{"ha":324,"x_min":0,"x_max":0,"o":""}," ":{"ha":225,"x_min":0,"x_max":0,"o":""}," ":{"ha":683,"x_min":0,"x_max":0,"o":""}," ":{"ha":346,"x_min":0,"x_max":0,"o":""}," ":{"ha":265,"x_min":0,"x_max":0,"o":""}," ":{"ha":146,"x_min":0,"x_max":0,"o":""},"​":{"ha":27,"x_min":0,"x_max":0,"o":""},"–":{"ha":788,"x_min":106,"x_max":677,"o":"m 677 465 l 107 465 l 107 535 l 677 535 l 677 465 z "},"—":{"ha":929,"x_min":95,"x_max":855,"o":"m 856 465 l 95 465 l 95 535 l 856 535 l 856 465 z "},"‗":{"ha":556,"x_min":35,"x_max":541,"o":"m 541 -235 l 35 -235 l 35 -165 l 541 -165 l 541 -235 m 541 -70 l 35 -70 l 35 0 l 541 0 l 541 -70 z "},"‘":{"ha":239,"x_min":69,"x_max":197,"o":"m 69 836 q 92 956 69 898 q 153 1054 114 1013 l 197 1019 q 157 933 171 976 q 144 837 144 891 l 144 759 l 69 759 l 69 836 z "},"’":{"ha":239,"x_min":47,"x_max":175,"o":"m 175 963 q 153 843 175 901 q 92 744 131 785 l 47 780 q 87 865 73 822 q 100 961 100 907 l 100 1042 l 175 1042 l 175 963 z "},"‚":{"ha":234,"x_min":36,"x_max":164,"o":"m 164 60 q 158 -1 164 30 q 142 -59 153 -31 q 115 -113 131 -87 q 81 -158 100 -138 l 36 -123 q 76 -37 62 -80 q 89 58 89 5 l 89 138 l 164 138 l 164 60 z "},"‛":{"ha":240,"x_min":37,"x_max":165,"o":"m 37 963 q 59 843 37 901 q 121 744 81 785 l 165 780 q 125 865 139 822 q 112 961 112 907 l 112 1042 l 37 1042 l 37 963 z "},"“":{"ha":388,"x_min":71,"x_max":349,"o":"m 71 836 q 93 956 71 898 q 154 1054 115 1013 l 199 1019 q 159 933 172 976 q 145 837 145 891 l 145 759 l 71 759 l 71 836 m 220 836 q 243 956 220 898 q 304 1054 265 1013 l 349 1019 q 309 933 322 976 q 295 837 295 891 l 295 759 l 220 759 l 220 836 z "},"”":{"ha":391,"x_min":52,"x_max":325,"o":"m 179 963 q 157 843 179 901 q 96 744 135 785 l 52 780 q 91 865 77 822 q 104 961 104 907 l 104 1042 l 179 1042 l 179 963 m 325 963 q 303 843 325 901 q 241 744 281 785 l 197 780 q 237 865 223 822 q 250 961 250 907 l 250 1042 l 325 1042 l 325 963 z "},"„":{"ha":377,"x_min":36,"x_max":304,"o":"m 164 60 q 142 -63 164 -3 q 81 -165 119 -123 l 36 -129 q 76 -41 62 -85 q 89 58 89 3 l 89 161 l 164 161 l 164 60 m 304 60 q 282 -63 304 -3 q 220 -165 260 -123 l 176 -129 q 216 -41 203 -85 q 229 58 229 3 l 229 161 l 304 161 l 304 60 z "},"†":{"ha":669,"x_min":52,"x_max":616,"o":"m 616 661 l 373 661 l 373 0 l 298 0 l 298 661 l 52 661 l 52 734 l 298 734 l 298 987 l 373 987 l 373 734 l 616 734 l 616 661 z "},"‡":{"ha":686,"x_min":62,"x_max":625,"o":"m 625 0 l 377 0 l 377 -282 l 300 -282 l 300 0 l 62 0 l 62 70 l 300 70 l 300 663 l 62 663 l 62 734 l 300 734 l 300 987 l 377 987 l 377 734 l 625 734 l 625 663 l 377 663 l 377 70 l 625 70 l 625 0 z "},"•":{"ha":449,"x_min":99,"x_max":351,"o":"m 99 531 q 108 580 99 557 q 133 618 117 602 q 173 644 149 635 q 224 653 196 653 q 277 644 254 653 q 317 618 300 635 q 342 580 333 602 q 351 531 351 557 l 351 487 q 342 438 351 460 q 317 400 334 416 q 278 375 301 384 q 225 366 254 366 q 173 375 196 366 q 133 400 149 384 q 108 438 117 416 q 99 487 99 460 l 99 531 z "},"‥":{"ha":560,"x_min":109,"x_max":460,"o":"m 109 50 q 124 91 109 74 q 166 107 139 107 q 209 91 193 107 q 224 50 224 74 q 209 10 224 26 q 166 -5 193 -5 q 124 10 139 -5 q 109 50 109 26 m 345 50 q 360 91 345 74 q 402 107 375 107 q 445 91 429 107 q 460 50 460 74 q 445 10 460 26 q 402 -5 429 -5 q 360 10 375 -5 q 345 50 345 26 z "},"…":{"ha":781,"x_min":109,"x_max":686,"o":"m 109 50 q 124 91 109 74 q 166 107 139 107 q 209 91 193 107 q 224 50 224 74 q 209 10 224 26 q 166 -5 193 -5 q 124 10 139 -5 q 109 50 109 26 m 345 50 q 360 91 345 74 q 402 107 375 107 q 445 91 429 107 q 460 50 460 74 q 445 10 460 26 q 402 -5 429 -5 q 360 10 375 -5 q 345 50 345 26 m 570 50 q 586 91 570 74 q 628 107 601 107 q 671 91 655 107 q 686 50 686 74 q 671 10 686 26 q 628 -5 655 -5 q 586 10 601 -5 q 570 50 570 26 z "},"‰":{"ha":1162,"x_min":64,"x_max":1091,"o":"m 494 242 q 505 321 494 283 q 538 386 517 358 q 589 429 559 413 q 657 446 619 446 q 738 420 704 446 q 791 351 772 394 q 846 420 811 394 q 927 446 880 446 q 995 429 965 446 q 1047 386 1025 413 q 1080 321 1068 358 q 1091 242 1091 283 l 1091 189 q 1080 110 1091 147 q 1047 46 1068 73 q 996 2 1026 18 q 928 -14 966 -14 q 846 12 882 -14 q 791 80 811 37 q 738 12 772 37 q 658 -14 705 -14 q 590 2 620 -14 q 538 46 559 18 q 505 110 517 73 q 494 189 494 147 l 494 242 m 64 798 q 75 877 64 840 q 108 941 87 913 q 159 985 129 969 q 227 1002 189 1002 q 295 985 264 1002 q 347 941 326 969 q 380 877 368 913 q 391 798 391 840 l 391 745 q 380 667 391 704 q 347 603 368 630 q 296 559 326 575 q 228 543 265 543 q 160 559 190 543 q 108 603 130 575 q 75 667 87 630 q 64 745 64 704 l 64 798 m 553 189 q 559 136 553 162 q 578 90 566 111 q 611 58 591 70 q 658 45 631 45 q 704 58 684 45 q 736 90 724 70 q 755 136 749 110 q 762 189 762 161 l 762 242 q 755 297 762 271 q 736 343 749 323 q 703 374 723 363 q 657 386 684 386 q 611 374 631 386 q 579 343 592 363 q 559 297 566 323 q 553 242 553 271 l 553 189 m 123 745 q 129 692 123 718 q 149 647 136 667 q 181 614 161 627 q 228 602 201 602 q 274 614 254 602 q 306 647 294 627 q 325 692 319 667 q 332 745 332 718 l 332 798 q 325 851 332 825 q 306 897 319 877 q 273 930 293 918 q 227 942 253 942 q 181 930 201 942 q 149 897 161 918 q 129 851 136 877 q 123 798 123 825 l 123 745 m 821 189 q 828 136 821 162 q 847 90 834 111 q 880 58 860 70 q 926 45 899 45 q 971 58 952 45 q 1003 90 991 70 q 1022 136 1016 110 q 1029 189 1029 161 l 1029 242 q 1022 297 1029 271 q 1003 343 1016 323 q 971 374 991 363 q 925 386 951 386 q 879 374 899 386 q 847 343 860 363 q 828 297 834 323 q 821 242 821 271 l 821 189 m 255 81 l 210 115 l 615 886 l 661 853 l 255 81 z "},"‹":{"ha":374,"x_min":75,"x_max":307,"o":"m 151 376 l 307 113 l 243 113 l 75 370 l 75 383 l 243 640 l 307 640 l 151 376 z "},"›":{"ha":374,"x_min":68,"x_max":300,"o":"m 132 640 l 300 380 l 300 367 l 132 109 l 68 109 l 223 373 l 68 640 l 132 640 z "},"⁄":{"ha":551,"x_min":49,"x_max":499,"o":"m 94 81 l 49 115 l 454 886 l 499 853 l 94 81 z "},"⁴":{"ha":450,"x_min":47,"x_max":410,"o":"m 339 640 l 410 640 l 410 579 l 339 579 l 339 453 l 274 453 l 274 579 l 49 579 l 47 625 l 271 988 l 339 988 l 339 640 m 116 640 l 274 640 l 274 895 l 258 865 l 116 640 z "},"ⁿ":{"ha":518,"x_min":83,"x_max":441,"o":"m 137 985 l 150 893 q 206 967 172 940 q 286 994 240 994 q 350 982 321 994 q 399 945 379 970 q 431 880 420 920 q 441 786 441 841 l 441 441 l 372 441 l 372 777 q 364 847 372 819 q 343 894 357 876 q 310 920 330 912 q 267 928 291 928 q 194 898 222 928 q 153 819 166 868 l 153 441 l 83 441 l 83 985 l 137 985 z "},"₤":{"ha":696,"x_min":68,"x_max":640,"o":"m 448 323 l 252 323 l 254 250 q 245 148 254 194 q 216 72 235 102 l 640 72 l 640 0 l 68 0 l 68 72 l 122 72 q 148 95 137 77 q 164 139 158 114 q 174 194 171 165 q 176 250 176 224 l 174 323 l 68 323 l 68 385 l 172 385 l 169 498 l 68 498 l 68 561 l 167 561 l 163 705 q 181 830 163 774 q 229 923 198 885 q 304 981 260 961 q 399 1001 347 1001 q 494 982 452 1001 q 566 928 536 962 q 610 845 595 893 q 625 738 625 796 l 547 738 q 535 825 547 789 q 501 884 522 861 q 451 918 479 907 q 393 928 423 928 q 332 914 359 928 q 284 871 304 899 q 253 801 264 842 q 241 705 241 759 l 245 561 l 448 561 l 448 498 l 247 498 l 250 385 l 448 385 l 448 323 z "},"₧":{"ha":982,"x_min":117,"x_max":882,"o":"m 193 397 l 193 0 l 117 0 l 117 987 l 317 987 q 436 965 386 987 q 519 903 486 943 q 567 810 551 864 q 583 692 583 756 q 567 574 583 629 q 519 481 551 520 q 436 419 486 441 q 317 397 386 397 l 193 397 m 193 467 l 317 467 q 409 486 372 467 q 467 536 446 505 q 498 608 489 568 q 507 691 507 648 q 498 775 507 734 q 467 848 489 817 q 409 898 446 879 q 317 917 372 917 l 193 917 l 193 467 m 748 921 l 748 734 l 873 734 l 873 666 l 748 666 l 748 178 q 754 117 748 140 q 772 81 761 94 q 797 63 783 68 q 826 59 810 59 q 855 61 841 59 q 880 66 869 64 l 882 -2 q 850 -11 870 -7 q 808 -14 830 -14 q 754 -4 779 -14 q 711 28 730 5 q 683 87 693 50 q 673 179 673 124 l 673 666 l 559 666 l 559 734 l 673 734 l 673 921 l 748 921 z "},"€":{"ha":675,"x_min":62,"x_max":608,"o":"m 482 381 l 248 381 l 248 371 q 264 234 248 293 q 310 136 280 176 q 382 77 340 97 q 477 58 425 58 q 542 63 510 58 q 602 81 573 69 l 608 7 q 544 -8 578 -3 q 476 -14 511 -14 q 352 11 408 -14 q 255 83 296 35 q 193 203 215 132 q 170 371 170 275 l 170 381 l 62 381 l 62 442 l 170 442 l 170 553 l 62 553 l 62 615 l 170 615 q 193 783 170 711 q 255 904 215 855 q 351 977 295 952 q 475 1001 408 1001 q 542 995 510 1001 q 608 980 574 989 l 602 905 q 541 922 573 916 q 475 928 509 928 q 381 909 423 928 q 309 851 338 890 q 263 754 279 812 q 248 616 248 695 l 248 615 l 482 615 l 482 553 l 248 553 l 248 442 l 482 442 l 482 381 z "},"℅":{"ha":886,"x_min":81,"x_max":818,"o":"m 391 702 q 380 641 391 669 q 350 590 370 612 q 303 555 331 568 q 241 543 275 543 q 176 559 205 543 q 125 603 146 575 q 93 667 104 630 q 81 745 81 704 l 81 798 q 93 877 81 840 q 125 941 104 913 q 175 985 146 969 q 239 1002 204 1002 q 302 989 274 1002 q 350 955 330 977 q 380 903 370 932 q 391 842 391 874 l 332 842 q 326 879 332 861 q 309 911 320 897 q 280 933 298 925 q 239 942 262 942 q 198 930 216 942 q 167 897 180 918 q 148 851 154 877 q 141 798 141 825 l 141 745 q 148 692 141 718 q 167 647 154 667 q 198 614 180 627 q 241 602 217 602 q 281 611 264 602 q 310 634 298 620 q 326 666 321 648 q 332 702 332 684 l 391 702 m 490 242 q 502 321 490 283 q 534 386 513 358 q 586 429 555 413 q 654 446 616 446 q 722 429 692 446 q 773 386 752 413 q 806 321 795 358 q 818 242 818 283 l 818 189 q 806 110 818 147 q 774 46 795 73 q 723 2 753 18 q 655 -14 692 -14 q 587 2 617 -14 q 535 46 556 18 q 502 110 513 73 q 490 189 490 147 l 490 242 m 550 189 q 556 136 550 162 q 576 90 563 111 q 608 58 589 70 q 655 45 628 45 q 701 58 682 45 q 733 90 720 70 q 752 136 745 110 q 758 189 758 161 l 758 242 q 752 297 758 271 q 732 343 745 323 q 700 374 720 363 q 654 386 680 386 q 608 374 628 386 q 576 343 589 363 q 556 297 563 323 q 550 242 550 271 l 550 189 m 260 81 l 216 115 l 621 886 l 666 853 l 260 81 z "},"ℓ":{"ha":572,"x_min":67,"x_max":488,"o":"m 416 -14 q 321 7 361 -14 q 255 70 281 29 q 215 166 229 110 q 202 292 202 223 l 202 318 q 137 299 171 306 q 67 292 104 292 l 67 371 q 139 379 106 371 q 202 402 172 387 l 202 791 q 212 900 202 852 q 242 980 222 947 q 289 1031 261 1013 q 351 1048 317 1048 q 406 1034 381 1048 q 450 991 431 1019 q 478 924 468 964 q 488 834 488 884 l 488 809 q 474 683 488 747 q 434 559 460 618 q 368 448 408 500 q 278 360 329 397 l 278 292 q 285 201 278 243 q 308 126 292 158 q 350 77 323 95 q 416 58 376 58 l 416 -14 m 278 457 q 338 534 313 491 q 380 624 363 577 q 405 718 397 670 q 413 808 413 765 l 413 834 q 396 942 413 907 q 351 976 378 976 q 296 929 315 976 q 278 791 278 883 l 278 457 z "},"№":{"ha":1219,"x_min":113,"x_max":1131,"o":"m 1120 293 l 777 293 l 777 360 l 1120 360 l 1120 293 m 759 768 q 772 861 759 819 q 809 934 785 903 q 867 981 833 964 q 945 998 902 998 q 1023 981 988 998 q 1081 934 1057 964 q 1118 861 1105 903 q 1131 768 1131 819 l 1131 694 q 1118 602 1131 644 q 1082 529 1105 559 q 1023 482 1058 498 q 946 465 989 465 q 868 482 903 465 q 809 529 833 498 q 772 602 785 559 q 759 694 759 644 l 759 768 m 826 694 q 833 629 826 659 q 855 577 840 600 q 892 543 869 555 q 946 531 915 531 q 998 543 976 531 q 1035 577 1020 555 q 1057 629 1050 600 q 1064 694 1064 659 l 1064 768 q 1057 832 1064 802 q 1035 884 1049 862 q 998 919 1020 906 q 945 931 975 931 q 892 919 915 931 q 856 884 870 906 q 833 832 841 862 q 826 768 826 802 l 826 694 m 652 0 l 571 0 l 188 842 l 188 0 l 113 0 l 113 987 l 194 987 l 578 145 l 578 987 l 652 987 l 652 0 z "},"™":{"ha":749,"x_min":74,"x_max":629,"o":"m 587 905 l 501 623 l 471 623 l 386 909 l 386 623 l 342 623 l 342 987 l 397 987 l 486 697 l 576 987 l 629 987 l 629 623 l 587 623 l 587 905 m 296 940 l 207 940 l 207 623 l 163 623 l 163 940 l 74 940 l 74 987 l 296 987 l 296 940 z "},"℮":{"ha":880,"x_min":101,"x_max":792,"o":"m 707 64 q 587 7 650 28 q 456 -14 524 -14 q 362 0 408 -14 q 277 39 316 14 q 205 98 237 64 q 149 175 172 133 q 114 266 126 218 q 101 367 101 315 q 115 468 101 419 q 154 558 129 516 q 212 635 178 601 q 285 695 245 670 q 368 734 325 720 q 456 747 412 747 q 587 720 526 747 q 694 643 648 692 q 766 527 739 594 q 792 380 792 460 l 792 349 l 271 349 l 271 126 q 356 72 309 92 q 456 52 404 52 q 583 72 520 52 q 706 134 646 92 l 707 64 m 456 684 q 358 662 406 684 q 271 601 310 640 l 271 413 l 637 413 l 637 607 q 555 663 602 642 q 456 684 509 684 z "},"⅛":{"ha":921,"x_min":68,"x_max":836,"o":"m 265 438 l 199 438 l 199 886 l 68 839 l 68 901 l 256 974 l 265 974 l 265 438 m 228 81 l 183 115 l 588 886 l 633 853 l 228 81 m 823 395 q 803 322 823 353 q 747 274 782 291 q 811 223 787 257 q 836 144 836 190 q 823 78 836 106 q 788 31 810 50 q 735 2 766 12 q 671 -7 705 -7 q 604 2 635 -7 q 551 31 574 12 q 516 78 529 50 q 504 144 504 106 q 528 224 504 191 q 592 275 551 258 q 536 322 557 292 q 516 395 516 353 q 528 458 516 431 q 559 505 539 486 q 608 533 580 524 q 669 543 636 543 q 731 533 703 543 q 780 505 759 524 q 812 458 800 486 q 823 395 823 431 m 770 147 q 741 217 770 192 q 669 243 713 243 q 598 217 625 243 q 570 147 570 192 q 598 77 570 102 q 671 52 626 52 q 742 77 714 52 q 770 147 770 102 m 758 392 q 751 428 758 412 q 733 457 745 445 q 705 475 722 469 q 669 481 688 481 q 607 458 631 481 q 583 392 583 434 q 607 328 583 351 q 671 304 631 304 q 734 328 709 304 q 758 392 758 351 z "},"⅜":{"ha":1027,"x_min":83,"x_max":930,"o":"m 196 747 l 241 747 q 285 754 266 747 q 316 774 304 762 q 335 803 329 786 q 342 838 342 819 q 336 874 342 857 q 320 903 331 890 q 291 922 309 915 q 250 929 274 929 q 213 923 231 929 q 183 905 196 917 q 164 878 171 894 q 157 841 157 861 l 91 841 q 103 902 91 875 q 137 949 116 930 q 188 980 159 969 q 250 990 216 990 q 314 980 285 990 q 364 951 343 970 q 396 904 385 932 q 408 840 408 876 q 386 769 408 801 q 325 721 365 737 q 394 674 371 707 q 416 593 416 642 q 404 528 416 557 q 369 480 391 500 q 316 450 347 460 q 250 440 286 440 q 189 449 219 440 q 136 478 159 458 q 98 526 113 497 q 83 596 83 555 l 150 596 q 157 557 150 575 q 178 527 165 540 q 211 507 192 514 q 252 500 230 500 q 326 526 300 500 q 351 596 351 551 q 321 670 351 648 q 241 692 291 692 l 196 692 l 196 747 m 334 81 l 289 115 l 694 886 l 739 853 l 334 81 m 918 395 q 898 322 918 353 q 842 274 877 291 q 906 223 882 257 q 930 144 930 190 q 918 78 930 106 q 883 31 905 50 q 830 2 861 12 q 766 -7 800 -7 q 699 2 730 -7 q 646 31 669 12 q 611 78 624 50 q 599 144 599 106 q 623 224 599 191 q 687 275 646 258 q 631 322 652 292 q 611 395 611 353 q 623 458 611 431 q 654 505 634 486 q 703 533 675 524 q 764 543 731 543 q 826 533 798 543 q 874 505 854 524 q 907 458 895 486 q 918 395 918 431 m 865 147 q 836 217 865 192 q 764 243 808 243 q 693 217 720 243 q 665 147 665 192 q 693 77 665 102 q 766 52 721 52 q 837 77 809 52 q 865 147 865 102 m 853 392 q 846 428 853 412 q 828 457 840 445 q 800 475 817 469 q 764 481 783 481 q 702 458 726 481 q 677 392 677 434 q 702 328 677 351 q 766 304 726 304 q 829 328 804 304 q 853 392 853 351 z "},"⅝":{"ha":1015,"x_min":79,"x_max":918,"o":"m 91 718 l 119 983 l 384 983 l 384 921 l 173 921 l 157 768 q 192 784 168 775 q 245 793 215 793 q 309 781 281 793 q 358 747 338 769 q 389 693 378 725 q 399 621 399 661 q 390 551 399 583 q 361 494 380 518 q 311 455 341 469 q 239 441 280 441 q 181 450 209 441 q 132 479 153 460 q 96 526 110 498 q 79 592 81 555 l 144 592 q 174 523 148 546 q 239 500 200 500 q 311 533 289 500 q 334 621 334 566 q 307 705 334 673 q 232 736 281 736 q 201 734 214 736 q 178 726 188 731 q 159 715 168 722 q 143 702 151 709 l 91 718 m 315 81 l 271 115 l 675 886 l 721 853 l 315 81 m 905 395 q 885 322 905 353 q 829 274 864 291 q 893 223 869 257 q 918 144 918 190 q 905 78 918 106 q 870 31 892 50 q 818 2 848 12 q 753 -7 787 -7 q 686 2 717 -7 q 633 31 656 12 q 598 78 611 50 q 586 144 586 106 q 610 224 586 191 q 674 275 633 258 q 618 322 639 292 q 598 395 598 353 q 610 458 598 431 q 642 505 621 486 q 690 533 662 524 q 751 543 718 543 q 813 533 785 543 q 862 505 841 524 q 894 458 882 486 q 905 395 905 431 m 852 147 q 823 217 852 192 q 751 243 795 243 q 680 217 707 243 q 652 147 652 192 q 680 77 652 102 q 753 52 708 52 q 824 77 796 52 q 852 147 852 102 m 840 392 q 833 428 840 412 q 815 457 827 445 q 787 475 804 469 q 751 481 770 481 q 689 458 713 481 q 665 392 665 434 q 689 328 665 351 q 753 304 713 304 q 816 328 791 304 q 840 392 840 351 z "},"⅞":{"ha":962,"x_min":73,"x_max":874,"o":"m 415 942 l 208 449 l 139 449 l 346 922 l 73 922 l 73 984 l 415 984 l 415 942 m 258 81 l 213 115 l 618 886 l 663 853 l 258 81 m 862 395 q 841 322 862 353 q 786 274 821 291 q 850 223 826 257 q 874 144 874 190 q 861 78 874 106 q 826 31 848 50 q 774 2 804 12 q 709 -7 744 -7 q 643 2 673 -7 q 590 31 612 12 q 555 78 568 50 q 543 144 543 106 q 566 224 543 191 q 631 275 590 258 q 575 322 595 292 q 555 395 555 353 q 566 458 555 431 q 598 505 578 486 q 647 533 618 524 q 708 543 675 543 q 769 533 741 543 q 818 505 798 524 q 850 458 839 486 q 862 395 862 431 m 808 147 q 780 217 808 192 q 708 243 751 243 q 636 217 664 243 q 609 147 609 192 q 637 77 609 102 q 709 52 665 52 q 781 77 753 52 q 808 147 808 102 m 797 392 q 790 428 797 412 q 772 457 783 445 q 744 475 760 469 q 708 481 727 481 q 645 458 669 481 q 621 392 621 434 q 645 328 621 351 q 709 304 669 304 q 772 328 748 304 q 797 392 797 351 z "},"∂":{"ha":692,"x_min":74,"x_max":625,"o":"m 341 693 q 405 684 374 693 q 461 657 435 674 q 510 616 488 640 q 549 564 532 593 q 525 733 544 659 q 475 857 505 806 q 403 933 444 907 q 315 959 362 959 q 227 943 264 959 q 151 898 189 928 l 138 964 q 168 986 151 974 q 207 1008 184 998 q 257 1025 229 1018 q 321 1032 286 1032 q 449 997 393 1032 q 545 890 506 961 q 605 715 584 820 q 625 471 625 610 l 625 427 q 606 252 625 332 q 550 112 586 171 q 461 19 513 53 q 346 -14 410 -14 q 233 12 283 -14 q 147 84 182 38 q 93 195 112 131 q 74 335 74 259 l 74 357 q 93 492 74 430 q 146 598 111 553 q 230 668 180 643 q 341 693 279 693 m 347 623 q 261 601 298 623 q 199 543 224 579 q 162 458 174 506 q 149 357 149 410 l 149 335 q 162 228 149 279 q 199 139 174 178 q 260 78 224 101 q 346 56 297 56 q 435 84 397 56 q 498 162 473 113 q 537 277 524 212 q 550 414 550 342 l 550 454 q 532 504 545 475 q 494 559 519 533 q 434 604 470 586 q 347 623 397 623 z "},"∏":{"ha":802,"x_min":112,"x_max":690,"o":"m 690 -163 l 614 -163 l 614 917 l 188 917 l 188 -163 l 112 -163 l 112 987 l 690 987 l 690 -163 z "},"∑":{"ha":702,"x_min":50,"x_max":687,"o":"m 475 392 l 138 -112 l 687 -112 l 687 -182 l 50 -182 l 50 -119 l 394 401 l 50 923 l 50 987 l 648 987 l 648 917 l 138 917 l 475 409 l 475 392 z "},"−":{"ha":692,"x_min":108,"x_max":583,"o":"m 583 465 l 108 465 l 108 535 l 583 535 l 583 465 z "},"√":{"ha":675,"x_min":50,"x_max":629,"o":"m 300 164 l 307 124 l 315 164 l 551 987 l 629 987 l 338 0 l 279 0 l 139 433 l 50 433 l 50 505 l 195 505 l 300 164 z "},"∞":{"ha":1253,"x_min":79,"x_max":1166,"o":"m 1166 354 q 1147 213 1166 280 q 1093 96 1128 146 q 1008 16 1058 45 q 897 -14 958 -14 q 826 -2 859 -14 q 767 32 794 11 q 718 81 740 53 q 677 139 695 109 q 646 202 660 170 q 623 262 633 233 q 599 202 612 233 q 568 139 585 170 q 528 81 550 109 q 479 32 506 53 q 419 -2 452 11 q 349 -14 387 -14 q 238 16 288 -14 q 153 96 188 45 q 98 213 117 146 q 79 354 79 280 l 79 379 q 98 520 79 453 q 152 637 117 587 q 237 718 187 688 q 348 747 287 747 q 418 735 386 747 q 478 701 451 722 q 528 652 505 680 q 568 594 550 625 q 599 532 585 564 q 623 472 612 500 q 646 532 633 500 q 678 594 660 564 q 718 652 696 625 q 768 701 741 680 q 827 735 795 722 q 899 747 860 747 q 1009 718 960 747 q 1093 637 1058 688 q 1147 520 1128 587 q 1166 379 1166 453 l 1166 354 m 154 354 q 166 243 154 297 q 203 148 179 189 q 264 81 228 106 q 349 56 301 56 q 421 76 389 56 q 479 126 454 96 q 523 193 504 157 q 554 263 541 230 q 573 320 566 296 q 581 353 579 345 l 581 381 q 573 412 580 388 q 554 470 566 437 q 523 539 541 503 q 478 606 504 576 q 420 657 453 637 q 348 677 388 677 q 264 651 300 677 q 203 584 228 626 q 166 489 179 543 q 154 379 154 435 l 154 354 m 1091 379 q 1079 489 1091 435 q 1042 584 1066 543 q 981 651 1017 626 q 899 677 945 677 q 826 657 859 677 q 767 606 793 637 q 723 539 742 576 q 692 470 705 503 q 673 412 680 437 q 665 381 666 388 l 665 353 q 673 320 666 345 q 692 263 680 296 q 723 193 705 230 q 767 126 742 157 q 825 76 793 96 q 897 56 857 56 q 981 81 945 56 q 1042 148 1017 106 q 1079 243 1066 189 q 1091 354 1091 297 l 1091 379 z "},"∫":{"ha":323,"x_min":-50,"x_max":372,"o":"m 189 -66 q 143 -239 189 -182 q 15 -296 97 -296 q -18 -293 -3 -296 q -50 -283 -34 -290 l -41 -215 q -18 -222 -33 -218 q 9 -226 -3 -226 q 87 -186 60 -226 q 115 -66 115 -146 l 115 825 q 162 997 115 937 q 294 1056 210 1056 q 333 1053 313 1056 q 372 1043 353 1049 l 362 977 q 337 983 350 981 q 304 985 323 985 q 219 943 249 985 q 189 825 189 901 l 189 -66 l 189 -66 z "},"≈":{"ha":684,"x_min":71,"x_max":604,"o":"m 73 589 q 137 653 100 630 q 211 676 174 676 q 251 673 234 677 q 282 663 268 669 q 312 647 297 656 q 345 627 326 637 q 375 608 361 616 q 402 592 389 599 q 432 582 416 585 q 470 578 448 578 q 542 603 507 578 q 603 672 576 629 l 604 585 q 542 521 577 544 q 470 498 507 498 q 433 502 449 498 q 404 512 417 505 q 376 527 390 518 q 346 545 363 535 q 313 566 328 556 q 283 582 298 575 q 251 593 269 589 q 212 596 234 597 q 138 571 174 596 q 75 502 102 546 l 73 589 m 71 315 q 135 379 98 356 q 208 402 171 402 q 248 399 231 403 q 279 389 264 395 q 309 373 294 382 q 342 353 323 363 q 372 334 359 342 q 400 318 386 325 q 430 308 414 311 q 467 304 446 304 q 538 329 504 304 q 600 398 573 355 l 602 311 q 539 248 574 271 q 467 225 505 225 q 430 229 446 225 q 401 238 414 232 q 374 253 387 245 q 343 272 360 262 q 310 292 325 283 q 281 309 296 302 q 249 320 266 316 q 209 323 231 323 q 136 298 172 323 q 73 229 100 273 l 71 315 z "},"≠":{"ha":671,"x_min":98,"x_max":574,"o":"m 574 283 l 273 283 l 187 104 l 144 133 l 217 283 l 98 283 l 98 356 l 253 356 l 353 562 l 98 562 l 98 635 l 388 635 l 478 820 l 521 791 l 444 635 l 574 635 l 574 562 l 409 562 l 309 356 l 574 356 l 574 283 z "},"≤":{"ha":623,"x_min":52,"x_max":528,"o":"m 136 464 l 527 282 l 527 203 l 57 434 l 57 495 l 527 725 l 527 647 l 136 464 m 528 1 l 52 1 l 52 71 l 528 71 l 528 1 z "},"≥":{"ha":633,"x_min":83,"x_max":568,"o":"m 485 473 l 85 656 l 85 733 l 568 503 l 568 442 l 85 211 l 85 288 l 485 473 m 558 1 l 83 1 l 83 71 l 558 71 l 558 1 z "},"◊":{"ha":616,"x_min":43,"x_max":570,"o":"m 277 987 l 336 987 l 570 493 l 338 0 l 278 0 l 43 493 l 277 987 m 306 893 l 124 493 l 308 93 l 490 493 l 306 893 z "},"":{"ha":330,"x_min":113,"x_max":230,"o":"m 113 168 q 128 209 113 193 q 170 226 143 226 q 213 209 197 226 q 229 168 229 193 q 213 129 229 144 q 170 113 197 113 q 128 129 143 113 q 113 168 113 144 m 114 793 q 129 834 114 817 q 172 850 144 850 q 214 834 199 850 q 230 793 230 817 q 214 753 230 769 q 172 738 199 738 q 129 753 144 738 q 114 793 114 769 z "},"":{"ha":370,"x_min":79,"x_max":299,"o":"m 140 453 l 79 453 l 79 734 l 140 734 l 140 453 m 299 453 l 239 453 l 239 734 l 299 734 l 299 453 z "},"":{"ha":308,"x_min":79,"x_max":193,"o":"m 193 68 q 175 -36 193 15 q 123 -123 158 -87 l 79 -87 q 111 -15 100 -51 q 121 66 121 20 l 121 121 l 193 121 l 193 68 z "},"ﬁ":{"ha":657,"x_min":39,"x_max":547,"o":"m 140 0 l 140 666 l 39 666 l 39 734 l 140 734 l 140 810 q 155 915 140 869 q 197 992 170 961 q 262 1040 224 1023 q 349 1056 301 1056 q 427 1046 388 1056 q 507 1016 467 1036 l 494 945 q 432 970 465 960 q 355 980 399 980 q 251 937 285 980 q 216 810 216 894 l 216 734 l 357 734 l 357 666 l 216 666 l 216 0 l 140 0 m 547 0 l 471 0 l 471 734 l 547 734 l 547 0 z "},"﻿":{"ha":27,"x_min":0,"x_max":0,"o":""},"￼":{"ha":1420,"x_min":60,"x_max":1375,"o":"m 557 317 q 546 257 557 284 q 514 210 535 230 q 465 180 494 191 q 402 169 437 169 q 338 180 367 169 q 289 210 309 191 q 256 257 268 230 q 245 317 245 284 l 245 393 q 256 453 245 426 q 288 500 268 481 q 337 531 309 520 q 401 542 366 542 q 464 531 435 542 q 514 500 493 520 q 546 453 534 481 q 557 393 557 426 l 557 317 m 603 171 l 603 543 l 730 543 q 836 518 797 543 q 874 441 874 494 q 860 395 874 416 q 817 363 846 374 q 869 330 851 354 q 886 276 886 307 q 851 197 886 224 q 753 171 815 171 l 603 171 m 495 393 q 470 467 495 440 q 401 493 445 493 q 332 467 357 493 q 307 393 307 440 l 307 317 q 332 244 307 271 q 402 218 357 218 q 470 244 446 218 q 495 317 495 271 l 495 393 m 1142 545 l 1204 545 l 1204 288 q 1195 240 1204 261 q 1168 203 1185 218 q 1128 180 1152 189 q 1078 172 1105 172 q 981 200 1018 172 q 944 283 944 227 l 1007 283 q 1026 237 1007 252 q 1078 222 1045 222 q 1124 240 1105 222 q 1142 288 1142 258 l 1142 545 m 60 -270 l 60 -56 l 136 -56 l 136 -193 l 269 -193 l 269 -270 l 60 -270 m 1164 -270 l 1164 -193 l 1299 -193 l 1299 -56 l 1375 -56 l 1375 -270 l 1164 -270 m 60 793 l 60 986 l 269 986 l 269 907 l 136 907 l 136 793 l 60 793 m 1164 907 l 1164 986 l 1375 986 l 1375 793 l 1299 793 l 1299 907 l 1164 907 m 667 336 l 667 222 l 753 222 q 805 237 788 222 q 823 278 823 252 q 806 319 823 304 q 756 336 789 335 l 753 336 l 667 336 m 894 907 l 894 986 l 1082 986 l 1082 907 l 894 907 m 623 907 l 623 986 l 811 986 l 811 907 l 623 907 m 353 907 l 353 986 l 540 986 l 540 907 l 353 907 m 894 -270 l 894 -193 l 1082 -193 l 1082 -270 l 894 -270 m 623 -270 l 623 -193 l 811 -193 l 811 -270 l 623 -270 m 353 -270 l 353 -193 l 540 -193 l 540 -270 l 353 -270 m 667 384 l 730 384 q 810 438 810 384 q 791 476 810 466 q 730 486 771 486 l 667 486 l 667 384 m 136 282 l 60 282 l 60 453 l 136 453 l 136 282 m 136 538 l 60 538 l 60 708 l 136 708 l 136 538 m 136 28 l 60 28 l 60 197 l 136 197 l 136 28 m 1375 282 l 1299 282 l 1299 453 l 1375 453 l 1375 282 m 1375 538 l 1299 538 l 1299 708 l 1375 708 l 1375 538 m 1375 28 l 1299 28 l 1299 197 l 1375 197 l 1375 28 z "},"�":{"ha":1425,"x_min":62,"x_max":1361,"o":"m 711 1097 l 1361 436 l 711 -225 l 62 436 l 711 1097 m 767 273 q 769 303 767 290 q 775 328 770 317 q 789 349 781 339 q 812 368 798 358 q 855 397 835 380 q 891 436 876 415 q 915 483 906 458 q 924 536 924 508 q 910 614 924 579 q 868 674 895 649 q 800 712 840 699 q 710 725 760 725 q 629 715 667 725 q 564 683 592 705 q 519 626 536 661 q 503 545 503 592 l 640 545 q 647 576 641 563 q 662 598 652 589 q 684 610 672 606 q 710 614 696 614 q 768 593 749 614 q 787 536 787 571 q 769 474 787 500 q 724 431 751 448 q 682 399 700 414 q 653 367 665 385 q 636 328 642 350 q 630 273 630 305 l 767 273 m 767 211 l 630 211 l 630 96 l 767 96 l 767 211 m 716 -374 l 719 -374 l 719 -376 l 716 -376 l 716 -374 m 715 1467 l 718 1467 l 718 1464 l 715 1464 l 715 1467 z "}," ":{"ha":312,"x_min":0,"x_max":0,"o":"z "},"­":{"ha":359,"x_min":40,"x_max":314,"o":"m 314 400 l 40 400 l 40 470 l 314 470 l 314 400 z "},"Đ":{"ha":812,"x_min":50,"x_max":720,"o":"m 137 0 l 137 467 l 50 467 l 50 538 l 137 538 l 137 987 l 370 987 q 512 962 448 987 q 623 886 577 936 q 695 762 669 836 q 720 592 720 688 l 720 395 q 695 225 720 299 q 623 101 669 151 q 511 26 576 52 q 364 0 445 0 l 137 0 m 401 467 l 214 467 l 214 72 l 364 72 q 483 93 431 72 q 570 155 534 114 q 625 256 606 196 q 644 395 644 317 l 644 594 q 625 733 644 673 q 570 833 606 793 q 484 894 535 873 q 370 914 433 914 l 214 914 l 214 538 l 401 538 l 401 467 z "},"Ð":{"ha":812,"x_min":50,"x_max":720,"o":"m 137 0 l 137 467 l 50 467 l 50 538 l 137 538 l 137 987 l 370 987 q 512 962 448 987 q 623 886 577 936 q 695 762 669 836 q 720 592 720 688 l 720 395 q 695 225 720 299 q 623 101 669 151 q 511 26 576 52 q 364 0 445 0 l 137 0 m 401 467 l 214 467 l 214 72 l 364 72 q 483 93 431 72 q 570 155 534 114 q 625 256 606 196 q 644 395 644 317 l 644 594 q 625 733 644 673 q 570 833 606 793 q 484 894 535 873 q 370 914 433 914 l 214 914 l 214 538 l 401 538 l 401 467 z "},"ħ":{"ha":688,"x_min":31,"x_max":589,"o":"m 382 852 l 196 852 l 196 618 q 278 712 229 677 q 393 747 328 747 q 475 732 439 747 q 537 685 511 718 q 576 601 562 652 q 589 477 589 550 l 589 0 l 515 0 l 515 478 q 505 572 515 534 q 477 633 495 610 q 432 666 458 656 q 374 675 406 675 q 312 662 340 675 q 261 625 283 648 q 222 572 239 602 q 196 509 206 542 l 196 0 l 121 0 l 121 852 l 31 852 l 31 923 l 121 923 l 121 1042 l 196 1042 l 196 923 l 382 923 l 382 852 z "},"Ŧ":{"ha":724,"x_min":43,"x_max":682,"o":"m 536 566 l 401 566 l 401 0 l 323 0 l 323 566 l 185 566 l 185 636 l 323 636 l 323 914 l 43 914 l 43 987 l 682 987 l 682 914 l 401 914 l 401 636 l 536 636 l 536 566 z "},"ŧ":{"ha":403,"x_min":19,"x_max":370,"o":"m 214 921 l 214 734 l 339 734 l 339 666 l 214 666 l 214 489 l 370 489 l 370 418 l 214 418 l 214 178 q 220 117 214 140 q 237 81 227 94 q 262 63 248 68 q 292 59 276 59 q 321 61 307 59 q 346 66 335 64 l 348 -2 q 316 -11 336 -7 q 274 -14 296 -14 q 220 -4 245 -14 q 177 28 195 5 q 149 87 159 50 q 138 179 138 124 l 138 418 l 19 418 l 19 489 l 138 489 l 138 666 l 25 666 l 25 734 l 138 734 l 138 921 l 214 921 z "},"À":{"ha":762,"x_min":31,"x_max":732,"o":"m 566 276 l 195 276 l 111 0 l 31 0 l 345 987 l 417 987 l 732 0 l 651 0 l 566 276 m 218 349 l 543 349 l 380 878 l 218 349 m 433 1058 l 359 1058 l 205 1248 l 303 1248 l 433 1058 z "},"Á":{"ha":762,"x_min":31,"x_max":732,"o":"m 566 276 l 195 276 l 111 0 l 31 0 l 345 987 l 417 987 l 732 0 l 651 0 l 566 276 m 218 349 l 543 349 l 380 878 l 218 349 m 464 1248 l 562 1248 l 406 1058 l 334 1058 l 464 1248 z "},"Â":{"ha":762,"x_min":31,"x_max":732,"o":"m 566 276 l 195 276 l 111 0 l 31 0 l 345 987 l 417 987 l 732 0 l 651 0 l 566 276 m 218 349 l 543 349 l 380 878 l 218 349 m 544 1074 l 544 1067 l 476 1067 l 382 1190 l 289 1067 l 222 1067 l 222 1075 l 359 1249 l 406 1249 l 544 1074 z "},"Ã":{"ha":762,"x_min":31,"x_max":732,"o":"m 566 276 l 195 276 l 111 0 l 31 0 l 345 987 l 417 987 l 732 0 l 651 0 l 566 276 m 218 349 l 543 349 l 380 878 l 218 349 m 578 1227 q 569 1168 578 1195 q 545 1122 560 1141 q 509 1092 530 1103 q 465 1082 489 1082 q 416 1093 435 1082 q 381 1119 397 1105 q 348 1145 365 1133 q 307 1156 332 1156 q 264 1135 281 1156 q 246 1076 246 1114 l 191 1078 q 200 1138 191 1111 q 223 1183 208 1164 q 259 1213 239 1202 q 304 1223 280 1223 q 350 1212 330 1223 q 386 1186 369 1200 q 421 1161 404 1173 q 462 1149 438 1149 q 506 1172 488 1149 q 524 1232 524 1194 l 578 1227 z "},"Ä":{"ha":762,"x_min":31,"x_max":732,"o":"m 566 276 l 195 276 l 111 0 l 31 0 l 345 987 l 417 987 l 732 0 l 651 0 l 566 276 m 218 349 l 543 349 l 380 878 l 218 349 m 184 1160 q 198 1199 184 1183 q 239 1215 213 1215 q 280 1199 265 1215 q 296 1160 296 1183 q 280 1121 296 1137 q 239 1105 265 1105 q 198 1121 213 1105 q 184 1160 184 1137 m 480 1159 q 495 1199 480 1183 q 536 1215 510 1215 q 577 1199 562 1215 q 592 1159 592 1183 q 577 1120 592 1136 q 536 1105 562 1105 q 495 1120 510 1105 q 480 1159 480 1136 z "},"Å":{"ha":762,"x_min":31,"x_max":732,"o":"m 566 276 l 195 276 l 111 0 l 31 0 l 345 987 l 417 987 l 732 0 l 651 0 l 566 276 m 218 349 l 543 349 l 380 878 l 218 349 m 252 1164 q 262 1215 252 1191 q 290 1256 273 1238 q 332 1284 308 1274 q 383 1294 355 1294 q 434 1284 410 1294 q 476 1256 458 1274 q 504 1215 494 1238 q 514 1164 514 1191 q 504 1113 514 1137 q 476 1073 494 1090 q 434 1046 458 1056 q 383 1037 410 1037 q 332 1046 355 1037 q 290 1073 308 1056 q 262 1113 273 1090 q 252 1164 252 1137 m 304 1164 q 310 1133 304 1147 q 327 1108 316 1119 q 351 1092 337 1098 q 383 1086 366 1086 q 415 1092 400 1086 q 440 1108 429 1098 q 457 1133 451 1119 q 463 1164 463 1147 q 457 1196 463 1181 q 440 1221 451 1211 q 415 1238 429 1232 q 383 1244 400 1244 q 351 1238 366 1244 q 327 1221 337 1232 q 310 1196 316 1211 q 304 1164 304 1181 z "},"Ǻ":{"ha":762,"x_min":31,"x_max":732,"o":"m 566 276 l 195 276 l 111 0 l 31 0 l 345 987 l 417 987 l 732 0 l 651 0 l 566 276 m 218 349 l 543 349 l 380 878 l 218 349 m 452 1309 l 535 1309 l 418 1182 l 364 1182 l 452 1309 m 294 1042 q 301 1084 294 1065 q 320 1117 308 1103 q 349 1139 333 1131 q 384 1147 366 1147 q 418 1139 402 1147 q 446 1117 434 1131 q 465 1084 458 1103 q 472 1042 472 1065 q 465 1001 472 1020 q 446 969 458 983 q 418 948 434 956 q 384 940 402 940 q 349 948 366 940 q 320 969 333 956 q 301 1001 308 983 q 294 1042 294 1020 m 334 1042 q 349 1001 334 1017 q 384 984 363 984 q 418 1001 404 984 q 432 1042 432 1017 q 418 1086 432 1069 q 384 1103 404 1103 q 349 1086 363 1103 q 334 1042 334 1069 z "},"Ç":{"ha":785,"x_min":92,"x_max":709,"o":"m 709 308 q 619 64 698 142 q 401 -14 541 -14 q 273 14 330 -14 q 176 94 216 42 q 114 221 136 146 q 92 391 92 296 l 92 603 q 114 770 92 696 q 176 895 136 844 q 275 974 217 946 q 408 1001 334 1001 q 528 982 475 1001 q 620 924 581 963 q 681 823 659 884 q 709 678 703 762 l 630 678 q 609 793 625 746 q 566 871 593 841 q 499 914 538 901 q 408 928 460 928 q 306 906 350 928 q 232 842 262 884 q 186 741 201 801 q 171 604 171 680 l 171 391 q 185 254 171 315 q 229 149 200 193 q 301 82 258 106 q 401 58 344 58 q 496 71 456 58 q 565 113 537 83 q 609 190 593 142 q 630 308 625 237 l 709 308 m 431 -6 l 425 -50 q 458 -59 441 -52 q 488 -80 475 -66 q 509 -114 501 -94 q 517 -165 517 -135 q 506 -221 517 -196 q 473 -263 494 -245 q 420 -291 452 -281 q 349 -301 389 -301 l 345 -248 q 386 -243 366 -248 q 421 -229 406 -238 q 446 -204 437 -219 q 456 -167 456 -189 q 450 -134 456 -147 q 431 -113 444 -121 q 400 -100 419 -104 q 357 -93 382 -96 l 374 -6 l 431 -6 z "},"È":{"ha":690,"x_min":117,"x_max":635,"o":"m 577 473 l 194 473 l 194 72 l 635 72 l 635 0 l 117 0 l 117 987 l 631 987 l 631 914 l 194 914 l 194 545 l 577 545 l 577 473 m 416 1062 l 342 1062 l 189 1252 l 287 1252 l 416 1062 z "},"É":{"ha":690,"x_min":117,"x_max":635,"o":"m 577 473 l 194 473 l 194 72 l 635 72 l 635 0 l 117 0 l 117 987 l 631 987 l 631 914 l 194 914 l 194 545 l 577 545 l 577 473 m 448 1252 l 546 1252 l 389 1062 l 318 1062 l 448 1252 z "},"Ê":{"ha":690,"x_min":117,"x_max":635,"o":"m 577 473 l 194 473 l 194 72 l 635 72 l 635 0 l 117 0 l 117 987 l 631 987 l 631 914 l 194 914 l 194 545 l 577 545 l 577 473 m 528 1078 l 528 1071 l 460 1071 l 366 1194 l 273 1071 l 206 1071 l 206 1079 l 342 1253 l 389 1253 l 528 1078 z "},"Ë":{"ha":690,"x_min":117,"x_max":635,"o":"m 577 473 l 194 473 l 194 72 l 635 72 l 635 0 l 117 0 l 117 987 l 631 987 l 631 914 l 194 914 l 194 545 l 577 545 l 577 473 m 168 1164 q 182 1203 168 1187 q 223 1219 197 1219 q 264 1203 249 1219 q 279 1164 279 1187 q 264 1125 279 1141 q 223 1109 249 1109 q 182 1125 197 1109 q 168 1164 168 1141 m 464 1163 q 479 1203 464 1187 q 519 1219 494 1219 q 561 1203 546 1219 q 576 1163 576 1187 q 561 1124 576 1140 q 519 1109 546 1109 q 479 1124 494 1109 q 464 1163 464 1140 z "},"Ì":{"ha":339,"x_min":-7,"x_max":220,"o":"m 208 0 l 131 0 l 131 987 l 208 987 l 208 0 m 220 1062 l 146 1062 l -7 1252 l 91 1252 l 220 1062 z "},"Í":{"ha":339,"x_min":121,"x_max":349,"o":"m 208 0 l 131 0 l 131 987 l 208 987 l 208 0 m 251 1252 l 349 1252 l 193 1062 l 121 1062 l 251 1252 z "},"Î":{"ha":339,"x_min":10,"x_max":332,"o":"m 208 0 l 131 0 l 131 987 l 208 987 l 208 0 m 332 1078 l 332 1071 l 264 1071 l 170 1194 l 77 1071 l 10 1071 l 10 1079 l 146 1253 l 193 1253 l 332 1078 z "},"Ï":{"ha":339,"x_min":-28,"x_max":380,"o":"m 208 0 l 131 0 l 131 987 l 208 987 l 208 0 m -28 1164 q -14 1203 -28 1187 q 27 1219 1 1219 q 68 1203 53 1219 q 83 1164 83 1187 q 68 1125 83 1141 q 27 1109 53 1109 q -14 1125 1 1109 q -28 1164 -28 1141 m 268 1163 q 283 1203 268 1187 q 323 1219 298 1219 q 365 1203 350 1219 q 380 1163 380 1187 q 365 1124 380 1140 q 323 1109 350 1109 q 283 1124 298 1109 q 268 1163 268 1140 z "},"Ñ":{"ha":856,"x_min":117,"x_max":738,"o":"m 738 0 l 661 0 l 195 841 l 195 0 l 117 0 l 117 987 l 195 987 l 661 145 l 661 987 l 738 987 l 738 0 m 623 1227 q 614 1168 623 1195 q 590 1122 605 1141 q 554 1092 574 1103 q 510 1082 534 1082 q 461 1093 480 1082 q 426 1119 441 1105 q 393 1145 410 1133 q 352 1156 376 1156 q 309 1135 326 1156 q 291 1076 291 1114 l 236 1078 q 244 1138 236 1111 q 268 1183 253 1164 q 304 1213 283 1202 q 349 1223 325 1223 q 394 1212 375 1223 q 431 1186 414 1200 q 466 1161 448 1173 q 507 1149 483 1149 q 550 1172 532 1149 q 568 1232 568 1194 l 623 1227 z "},"Ò":{"ha":819,"x_min":90,"x_max":729,"o":"m 729 387 q 707 214 729 289 q 644 89 685 139 q 543 12 602 38 q 410 -14 484 -14 q 278 12 337 -14 q 177 89 219 38 q 112 214 135 139 q 90 387 90 289 l 90 600 q 112 772 90 697 q 176 898 134 847 q 277 975 218 949 q 409 1001 336 1001 q 542 975 483 1001 q 643 898 602 949 q 707 772 684 847 q 729 600 729 697 l 729 387 m 651 601 q 589 844 651 763 q 409 926 526 926 q 231 844 294 926 q 167 601 167 763 l 167 387 q 231 142 167 224 q 410 60 296 60 q 590 142 528 60 q 651 387 651 223 l 651 601 m 459 1065 l 385 1065 l 232 1255 l 330 1255 l 459 1065 z "},"Ó":{"ha":819,"x_min":90,"x_max":729,"o":"m 729 387 q 707 214 729 289 q 644 89 685 139 q 543 12 602 38 q 410 -14 484 -14 q 278 12 337 -14 q 177 89 219 38 q 112 214 135 139 q 90 387 90 289 l 90 600 q 112 772 90 697 q 176 898 134 847 q 277 975 218 949 q 409 1001 336 1001 q 542 975 483 1001 q 643 898 602 949 q 707 772 684 847 q 729 600 729 697 l 729 387 m 651 601 q 589 844 651 763 q 409 926 526 926 q 231 844 294 926 q 167 601 167 763 l 167 387 q 231 142 167 224 q 410 60 296 60 q 590 142 528 60 q 651 387 651 223 l 651 601 m 490 1255 l 589 1255 l 432 1065 l 361 1065 l 490 1255 z "},"Ô":{"ha":819,"x_min":90,"x_max":729,"o":"m 729 387 q 707 214 729 289 q 644 89 685 139 q 543 12 602 38 q 410 -14 484 -14 q 278 12 337 -14 q 177 89 219 38 q 112 214 135 139 q 90 387 90 289 l 90 600 q 112 772 90 697 q 176 898 134 847 q 277 975 218 949 q 409 1001 336 1001 q 542 975 483 1001 q 643 898 602 949 q 707 772 684 847 q 729 600 729 697 l 729 387 m 651 601 q 589 844 651 763 q 409 926 526 926 q 231 844 294 926 q 167 601 167 763 l 167 387 q 231 142 167 224 q 410 60 296 60 q 590 142 528 60 q 651 387 651 223 l 651 601 m 570 1081 l 570 1074 l 503 1074 l 409 1198 l 315 1074 l 249 1074 l 249 1082 l 385 1256 l 432 1256 l 570 1081 z "},"Õ":{"ha":819,"x_min":90,"x_max":729,"o":"m 729 387 q 707 214 729 289 q 644 89 685 139 q 543 12 602 38 q 410 -14 484 -14 q 278 12 337 -14 q 177 89 219 38 q 112 214 135 139 q 90 387 90 289 l 90 600 q 112 772 90 697 q 176 898 134 847 q 277 975 218 949 q 409 1001 336 1001 q 542 975 483 1001 q 643 898 602 949 q 707 772 684 847 q 729 600 729 697 l 729 387 m 651 601 q 589 844 651 763 q 409 926 526 926 q 231 844 294 926 q 167 601 167 763 l 167 387 q 231 142 167 224 q 410 60 296 60 q 590 142 528 60 q 651 387 651 223 l 651 601 m 604 1235 q 595 1175 604 1202 q 571 1129 587 1148 q 536 1100 556 1110 q 492 1089 515 1089 q 443 1101 462 1089 q 407 1126 423 1112 q 375 1152 391 1141 q 334 1164 358 1164 q 290 1142 308 1164 q 273 1084 273 1121 l 218 1086 q 226 1145 218 1118 q 250 1191 235 1172 q 286 1220 265 1210 q 330 1231 307 1231 q 376 1219 357 1231 q 413 1194 395 1208 q 447 1168 430 1180 q 488 1157 465 1157 q 532 1179 514 1157 q 550 1239 550 1202 l 604 1235 z "}}}
